<?xml version="1.0" encoding="utf-8" standalone="no"?>
<!DOCTYPE svg PUBLIC "-//W3C//DTD SVG 1.1//EN"
  "http://www.w3.org/Graphics/SVG/1.1/DTD/svg11.dtd">
<svg xmlns:xlink="http://www.w3.org/1999/xlink" width="432pt" height="360pt" viewBox="0 0 432 360" xmlns="http://www.w3.org/2000/svg" version="1.1">
 <metadata>
  <rdf:RDF xmlns:dc="http://purl.org/dc/elements/1.1/" xmlns:cc="http://creativecommons.org/ns#" xmlns:rdf="http://www.w3.org/1999/02/22-rdf-syntax-ns#">
   <cc:Work>
    <dc:type rdf:resource="http://purl.org/dc/dcmitype/StillImage"/>
    <dc:date>2025-01-19T10:43:13.531770</dc:date>
    <dc:format>image/svg+xml</dc:format>
    <dc:creator>
     <cc:Agent>
      <dc:title>Matplotlib v3.8.2, https://matplotlib.org/</dc:title>
     </cc:Agent>
    </dc:creator>
   </cc:Work>
  </rdf:RDF>
 </metadata>
 <defs>
  <style type="text/css">*{stroke-linejoin: round; stroke-linecap: butt}</style>
 </defs>
 <g id="figure_1">
  <g id="patch_1">
   <path d="M 0 360 
L 432 360 
L 432 0 
L 0 0 
z
" style="fill: #ffffff"/>
  </g>
  <g id="axes_1">
   <g id="patch_2">
    <path d="M 54 320.4 
L 388.8 320.4 
L 388.8 43.2 
L 54 43.2 
z
" style="fill: #ffffff"/>
   </g>
   <g id="patch_3">
    <path d="M 69.218182 320.4 
L 75.305455 320.4 
L 75.305455 314.696296 
L 69.218182 314.696296 
z
" clip-path="url(#p8020638126)" style="fill: #284f8c; opacity: 0.8"/>
   </g>
   <g id="patch_4">
    <path d="M 75.305455 320.4 
L 81.392727 320.4 
L 81.392727 320.4 
L 75.305455 320.4 
z
" clip-path="url(#p8020638126)" style="fill: #284f8c; opacity: 0.8"/>
   </g>
   <g id="patch_5">
    <path d="M 81.392727 320.4 
L 87.48 320.4 
L 87.48 320.4 
L 81.392727 320.4 
z
" clip-path="url(#p8020638126)" style="fill: #284f8c; opacity: 0.8"/>
   </g>
   <g id="patch_6">
    <path d="M 87.48 320.4 
L 93.567273 320.4 
L 93.567273 320.4 
L 87.48 320.4 
z
" clip-path="url(#p8020638126)" style="fill: #284f8c; opacity: 0.8"/>
   </g>
   <g id="patch_7">
    <path d="M 93.567273 320.4 
L 99.654545 320.4 
L 99.654545 320.4 
L 93.567273 320.4 
z
" clip-path="url(#p8020638126)" style="fill: #284f8c; opacity: 0.8"/>
   </g>
   <g id="patch_8">
    <path d="M 99.654545 320.4 
L 105.741818 320.4 
L 105.741818 320.4 
L 99.654545 320.4 
z
" clip-path="url(#p8020638126)" style="fill: #284f8c; opacity: 0.8"/>
   </g>
   <g id="patch_9">
    <path d="M 105.741818 320.4 
L 111.829091 320.4 
L 111.829091 320.4 
L 105.741818 320.4 
z
" clip-path="url(#p8020638126)" style="fill: #284f8c; opacity: 0.8"/>
   </g>
   <g id="patch_10">
    <path d="M 111.829091 320.4 
L 117.916364 320.4 
L 117.916364 320.4 
L 111.829091 320.4 
z
" clip-path="url(#p8020638126)" style="fill: #284f8c; opacity: 0.8"/>
   </g>
   <g id="patch_11">
    <path d="M 117.916364 320.4 
L 124.003636 320.4 
L 124.003636 320.4 
L 117.916364 320.4 
z
" clip-path="url(#p8020638126)" style="fill: #284f8c; opacity: 0.8"/>
   </g>
   <g id="patch_12">
    <path d="M 124.003636 320.4 
L 130.090909 320.4 
L 130.090909 320.4 
L 124.003636 320.4 
z
" clip-path="url(#p8020638126)" style="fill: #284f8c; opacity: 0.8"/>
   </g>
   <g id="patch_13">
    <path d="M 130.090909 320.4 
L 136.178182 320.4 
L 136.178182 320.4 
L 130.090909 320.4 
z
" clip-path="url(#p8020638126)" style="fill: #284f8c; opacity: 0.8"/>
   </g>
   <g id="patch_14">
    <path d="M 136.178182 320.4 
L 142.265455 320.4 
L 142.265455 320.4 
L 136.178182 320.4 
z
" clip-path="url(#p8020638126)" style="fill: #284f8c; opacity: 0.8"/>
   </g>
   <g id="patch_15">
    <path d="M 142.265455 320.4 
L 148.352727 320.4 
L 148.352727 320.4 
L 142.265455 320.4 
z
" clip-path="url(#p8020638126)" style="fill: #284f8c; opacity: 0.8"/>
   </g>
   <g id="patch_16">
    <path d="M 148.352727 320.4 
L 154.44 320.4 
L 154.44 320.4 
L 148.352727 320.4 
z
" clip-path="url(#p8020638126)" style="fill: #284f8c; opacity: 0.8"/>
   </g>
   <g id="patch_17">
    <path d="M 154.44 320.4 
L 160.527273 320.4 
L 160.527273 308.992593 
L 154.44 308.992593 
z
" clip-path="url(#p8020638126)" style="fill: #284f8c; opacity: 0.8"/>
   </g>
   <g id="patch_18">
    <path d="M 160.527273 320.4 
L 166.614545 320.4 
L 166.614545 320.4 
L 160.527273 320.4 
z
" clip-path="url(#p8020638126)" style="fill: #284f8c; opacity: 0.8"/>
   </g>
   <g id="patch_19">
    <path d="M 166.614545 320.4 
L 172.701818 320.4 
L 172.701818 314.696296 
L 166.614545 314.696296 
z
" clip-path="url(#p8020638126)" style="fill: #284f8c; opacity: 0.8"/>
   </g>
   <g id="patch_20">
    <path d="M 172.701818 320.4 
L 178.789091 320.4 
L 178.789091 320.4 
L 172.701818 320.4 
z
" clip-path="url(#p8020638126)" style="fill: #284f8c; opacity: 0.8"/>
   </g>
   <g id="patch_21">
    <path d="M 178.789091 320.4 
L 184.876364 320.4 
L 184.876364 320.4 
L 178.789091 320.4 
z
" clip-path="url(#p8020638126)" style="fill: #284f8c; opacity: 0.8"/>
   </g>
   <g id="patch_22">
    <path d="M 184.876364 320.4 
L 190.963636 320.4 
L 190.963636 314.696296 
L 184.876364 314.696296 
z
" clip-path="url(#p8020638126)" style="fill: #284f8c; opacity: 0.8"/>
   </g>
   <g id="patch_23">
    <path d="M 190.963636 320.4 
L 197.050909 320.4 
L 197.050909 314.696296 
L 190.963636 314.696296 
z
" clip-path="url(#p8020638126)" style="fill: #284f8c; opacity: 0.8"/>
   </g>
   <g id="patch_24">
    <path d="M 197.050909 320.4 
L 203.138182 320.4 
L 203.138182 320.4 
L 197.050909 320.4 
z
" clip-path="url(#p8020638126)" style="fill: #284f8c; opacity: 0.8"/>
   </g>
   <g id="patch_25">
    <path d="M 203.138182 320.4 
L 209.225455 320.4 
L 209.225455 303.288889 
L 203.138182 303.288889 
z
" clip-path="url(#p8020638126)" style="fill: #284f8c; opacity: 0.8"/>
   </g>
   <g id="patch_26">
    <path d="M 209.225455 320.4 
L 215.312727 320.4 
L 215.312727 320.4 
L 209.225455 320.4 
z
" clip-path="url(#p8020638126)" style="fill: #284f8c; opacity: 0.8"/>
   </g>
   <g id="patch_27">
    <path d="M 215.312727 320.4 
L 221.4 320.4 
L 221.4 320.4 
L 215.312727 320.4 
z
" clip-path="url(#p8020638126)" style="fill: #284f8c; opacity: 0.8"/>
   </g>
   <g id="patch_28">
    <path d="M 221.4 320.4 
L 227.487273 320.4 
L 227.487273 320.4 
L 221.4 320.4 
z
" clip-path="url(#p8020638126)" style="fill: #284f8c; opacity: 0.8"/>
   </g>
   <g id="patch_29">
    <path d="M 227.487273 320.4 
L 233.574545 320.4 
L 233.574545 320.4 
L 227.487273 320.4 
z
" clip-path="url(#p8020638126)" style="fill: #284f8c; opacity: 0.8"/>
   </g>
   <g id="patch_30">
    <path d="M 233.574545 320.4 
L 239.661818 320.4 
L 239.661818 320.4 
L 233.574545 320.4 
z
" clip-path="url(#p8020638126)" style="fill: #284f8c; opacity: 0.8"/>
   </g>
   <g id="patch_31">
    <path d="M 239.661818 320.4 
L 245.749091 320.4 
L 245.749091 314.696296 
L 239.661818 314.696296 
z
" clip-path="url(#p8020638126)" style="fill: #284f8c; opacity: 0.8"/>
   </g>
   <g id="patch_32">
    <path d="M 245.749091 320.4 
L 251.836364 320.4 
L 251.836364 320.4 
L 245.749091 320.4 
z
" clip-path="url(#p8020638126)" style="fill: #284f8c; opacity: 0.8"/>
   </g>
   <g id="patch_33">
    <path d="M 251.836364 320.4 
L 257.923636 320.4 
L 257.923636 320.4 
L 251.836364 320.4 
z
" clip-path="url(#p8020638126)" style="fill: #284f8c; opacity: 0.8"/>
   </g>
   <g id="patch_34">
    <path d="M 257.923636 320.4 
L 264.010909 320.4 
L 264.010909 308.992593 
L 257.923636 308.992593 
z
" clip-path="url(#p8020638126)" style="fill: #284f8c; opacity: 0.8"/>
   </g>
   <g id="patch_35">
    <path d="M 264.010909 320.4 
L 270.098182 320.4 
L 270.098182 320.4 
L 264.010909 320.4 
z
" clip-path="url(#p8020638126)" style="fill: #284f8c; opacity: 0.8"/>
   </g>
   <g id="patch_36">
    <path d="M 270.098182 320.4 
L 276.185455 320.4 
L 276.185455 320.4 
L 270.098182 320.4 
z
" clip-path="url(#p8020638126)" style="fill: #284f8c; opacity: 0.8"/>
   </g>
   <g id="patch_37">
    <path d="M 276.185455 320.4 
L 282.272727 320.4 
L 282.272727 308.992593 
L 276.185455 308.992593 
z
" clip-path="url(#p8020638126)" style="fill: #284f8c; opacity: 0.8"/>
   </g>
   <g id="patch_38">
    <path d="M 282.272727 320.4 
L 288.36 320.4 
L 288.36 320.4 
L 282.272727 320.4 
z
" clip-path="url(#p8020638126)" style="fill: #284f8c; opacity: 0.8"/>
   </g>
   <g id="patch_39">
    <path d="M 288.36 320.4 
L 294.447273 320.4 
L 294.447273 314.696296 
L 288.36 314.696296 
z
" clip-path="url(#p8020638126)" style="fill: #284f8c; opacity: 0.8"/>
   </g>
   <g id="patch_40">
    <path d="M 294.447273 320.4 
L 300.534545 320.4 
L 300.534545 314.696296 
L 294.447273 314.696296 
z
" clip-path="url(#p8020638126)" style="fill: #284f8c; opacity: 0.8"/>
   </g>
   <g id="patch_41">
    <path d="M 300.534545 320.4 
L 306.621818 320.4 
L 306.621818 314.696296 
L 300.534545 314.696296 
z
" clip-path="url(#p8020638126)" style="fill: #284f8c; opacity: 0.8"/>
   </g>
   <g id="patch_42">
    <path d="M 306.621818 320.4 
L 312.709091 320.4 
L 312.709091 314.696296 
L 306.621818 314.696296 
z
" clip-path="url(#p8020638126)" style="fill: #284f8c; opacity: 0.8"/>
   </g>
   <g id="patch_43">
    <path d="M 312.709091 320.4 
L 318.796364 320.4 
L 318.796364 314.696296 
L 312.709091 314.696296 
z
" clip-path="url(#p8020638126)" style="fill: #284f8c; opacity: 0.8"/>
   </g>
   <g id="patch_44">
    <path d="M 318.796364 320.4 
L 324.883636 320.4 
L 324.883636 303.288889 
L 318.796364 303.288889 
z
" clip-path="url(#p8020638126)" style="fill: #284f8c; opacity: 0.8"/>
   </g>
   <g id="patch_45">
    <path d="M 324.883636 320.4 
L 330.970909 320.4 
L 330.970909 320.4 
L 324.883636 320.4 
z
" clip-path="url(#p8020638126)" style="fill: #284f8c; opacity: 0.8"/>
   </g>
   <g id="patch_46">
    <path d="M 330.970909 320.4 
L 337.058182 320.4 
L 337.058182 308.992593 
L 330.970909 308.992593 
z
" clip-path="url(#p8020638126)" style="fill: #284f8c; opacity: 0.8"/>
   </g>
   <g id="patch_47">
    <path d="M 337.058182 320.4 
L 343.145455 320.4 
L 343.145455 308.992593 
L 337.058182 308.992593 
z
" clip-path="url(#p8020638126)" style="fill: #284f8c; opacity: 0.8"/>
   </g>
   <g id="patch_48">
    <path d="M 343.145455 320.4 
L 349.232727 320.4 
L 349.232727 320.4 
L 343.145455 320.4 
z
" clip-path="url(#p8020638126)" style="fill: #284f8c; opacity: 0.8"/>
   </g>
   <g id="patch_49">
    <path d="M 349.232727 320.4 
L 355.32 320.4 
L 355.32 257.659259 
L 349.232727 257.659259 
z
" clip-path="url(#p8020638126)" style="fill: #284f8c; opacity: 0.8"/>
   </g>
   <g id="patch_50">
    <path d="M 355.32 320.4 
L 361.407273 320.4 
L 361.407273 308.992593 
L 355.32 308.992593 
z
" clip-path="url(#p8020638126)" style="fill: #284f8c; opacity: 0.8"/>
   </g>
   <g id="patch_51">
    <path d="M 361.407273 320.4 
L 367.494545 320.4 
L 367.494545 263.362963 
L 361.407273 263.362963 
z
" clip-path="url(#p8020638126)" style="fill: #284f8c; opacity: 0.8"/>
   </g>
   <g id="patch_52">
    <path d="M 367.494545 320.4 
L 373.581818 320.4 
L 373.581818 257.659259 
L 367.494545 257.659259 
z
" clip-path="url(#p8020638126)" style="fill: #284f8c; opacity: 0.8"/>
   </g>
   <g id="patch_53">
    <path d="M 85.518514 320.4 
L 91.189705 320.4 
L 91.189705 303.288889 
L 85.518514 303.288889 
z
" clip-path="url(#p8020638126)" style="fill: #ff3131; opacity: 0.8"/>
   </g>
   <g id="patch_54">
    <path d="M 91.189705 320.4 
L 96.860896 320.4 
L 96.860896 320.4 
L 91.189705 320.4 
z
" clip-path="url(#p8020638126)" style="fill: #ff3131; opacity: 0.8"/>
   </g>
   <g id="patch_55">
    <path d="M 96.860896 320.4 
L 102.532088 320.4 
L 102.532088 320.4 
L 96.860896 320.4 
z
" clip-path="url(#p8020638126)" style="fill: #ff3131; opacity: 0.8"/>
   </g>
   <g id="patch_56">
    <path d="M 102.532088 320.4 
L 108.203279 320.4 
L 108.203279 314.696296 
L 102.532088 314.696296 
z
" clip-path="url(#p8020638126)" style="fill: #ff3131; opacity: 0.8"/>
   </g>
   <g id="patch_57">
    <path d="M 108.203279 320.4 
L 113.87447 320.4 
L 113.87447 320.4 
L 108.203279 320.4 
z
" clip-path="url(#p8020638126)" style="fill: #ff3131; opacity: 0.8"/>
   </g>
   <g id="patch_58">
    <path d="M 113.87447 320.4 
L 119.545662 320.4 
L 119.545662 320.4 
L 113.87447 320.4 
z
" clip-path="url(#p8020638126)" style="fill: #ff3131; opacity: 0.8"/>
   </g>
   <g id="patch_59">
    <path d="M 119.545662 320.4 
L 125.216853 320.4 
L 125.216853 320.4 
L 119.545662 320.4 
z
" clip-path="url(#p8020638126)" style="fill: #ff3131; opacity: 0.8"/>
   </g>
   <g id="patch_60">
    <path d="M 125.216853 320.4 
L 130.888044 320.4 
L 130.888044 320.4 
L 125.216853 320.4 
z
" clip-path="url(#p8020638126)" style="fill: #ff3131; opacity: 0.8"/>
   </g>
   <g id="patch_61">
    <path d="M 130.888044 320.4 
L 136.559236 320.4 
L 136.559236 314.696296 
L 130.888044 314.696296 
z
" clip-path="url(#p8020638126)" style="fill: #ff3131; opacity: 0.8"/>
   </g>
   <g id="patch_62">
    <path d="M 136.559236 320.4 
L 142.230427 320.4 
L 142.230427 314.696296 
L 136.559236 314.696296 
z
" clip-path="url(#p8020638126)" style="fill: #ff3131; opacity: 0.8"/>
   </g>
   <g id="patch_63">
    <path d="M 142.230427 320.4 
L 147.901618 320.4 
L 147.901618 314.696296 
L 142.230427 314.696296 
z
" clip-path="url(#p8020638126)" style="fill: #ff3131; opacity: 0.8"/>
   </g>
   <g id="patch_64">
    <path d="M 147.901618 320.4 
L 153.57281 320.4 
L 153.57281 320.4 
L 147.901618 320.4 
z
" clip-path="url(#p8020638126)" style="fill: #ff3131; opacity: 0.8"/>
   </g>
   <g id="patch_65">
    <path d="M 153.57281 320.4 
L 159.244001 320.4 
L 159.244001 320.4 
L 153.57281 320.4 
z
" clip-path="url(#p8020638126)" style="fill: #ff3131; opacity: 0.8"/>
   </g>
   <g id="patch_66">
    <path d="M 159.244001 320.4 
L 164.915192 320.4 
L 164.915192 320.4 
L 159.244001 320.4 
z
" clip-path="url(#p8020638126)" style="fill: #ff3131; opacity: 0.8"/>
   </g>
   <g id="patch_67">
    <path d="M 164.915192 320.4 
L 170.586384 320.4 
L 170.586384 320.4 
L 164.915192 320.4 
z
" clip-path="url(#p8020638126)" style="fill: #ff3131; opacity: 0.8"/>
   </g>
   <g id="patch_68">
    <path d="M 170.586384 320.4 
L 176.257575 320.4 
L 176.257575 320.4 
L 170.586384 320.4 
z
" clip-path="url(#p8020638126)" style="fill: #ff3131; opacity: 0.8"/>
   </g>
   <g id="patch_69">
    <path d="M 176.257575 320.4 
L 181.928766 320.4 
L 181.928766 314.696296 
L 176.257575 314.696296 
z
" clip-path="url(#p8020638126)" style="fill: #ff3131; opacity: 0.8"/>
   </g>
   <g id="patch_70">
    <path d="M 181.928766 320.4 
L 187.599958 320.4 
L 187.599958 320.4 
L 181.928766 320.4 
z
" clip-path="url(#p8020638126)" style="fill: #ff3131; opacity: 0.8"/>
   </g>
   <g id="patch_71">
    <path d="M 187.599958 320.4 
L 193.271149 320.4 
L 193.271149 320.4 
L 187.599958 320.4 
z
" clip-path="url(#p8020638126)" style="fill: #ff3131; opacity: 0.8"/>
   </g>
   <g id="patch_72">
    <path d="M 193.271149 320.4 
L 198.942341 320.4 
L 198.942341 314.696296 
L 193.271149 314.696296 
z
" clip-path="url(#p8020638126)" style="fill: #ff3131; opacity: 0.8"/>
   </g>
   <g id="patch_73">
    <path d="M 198.942341 320.4 
L 204.613532 320.4 
L 204.613532 314.696296 
L 198.942341 314.696296 
z
" clip-path="url(#p8020638126)" style="fill: #ff3131; opacity: 0.8"/>
   </g>
   <g id="patch_74">
    <path d="M 204.613532 320.4 
L 210.284723 320.4 
L 210.284723 314.696296 
L 204.613532 314.696296 
z
" clip-path="url(#p8020638126)" style="fill: #ff3131; opacity: 0.8"/>
   </g>
   <g id="patch_75">
    <path d="M 210.284723 320.4 
L 215.955915 320.4 
L 215.955915 320.4 
L 210.284723 320.4 
z
" clip-path="url(#p8020638126)" style="fill: #ff3131; opacity: 0.8"/>
   </g>
   <g id="patch_76">
    <path d="M 215.955915 320.4 
L 221.627106 320.4 
L 221.627106 314.696296 
L 215.955915 314.696296 
z
" clip-path="url(#p8020638126)" style="fill: #ff3131; opacity: 0.8"/>
   </g>
   <g id="patch_77">
    <path d="M 221.627106 320.4 
L 227.298297 320.4 
L 227.298297 314.696296 
L 221.627106 314.696296 
z
" clip-path="url(#p8020638126)" style="fill: #ff3131; opacity: 0.8"/>
   </g>
   <g id="patch_78">
    <path d="M 227.298297 320.4 
L 232.969489 320.4 
L 232.969489 320.4 
L 227.298297 320.4 
z
" clip-path="url(#p8020638126)" style="fill: #ff3131; opacity: 0.8"/>
   </g>
   <g id="patch_79">
    <path d="M 232.969489 320.4 
L 238.64068 320.4 
L 238.64068 320.4 
L 232.969489 320.4 
z
" clip-path="url(#p8020638126)" style="fill: #ff3131; opacity: 0.8"/>
   </g>
   <g id="patch_80">
    <path d="M 238.64068 320.4 
L 244.311871 320.4 
L 244.311871 320.4 
L 238.64068 320.4 
z
" clip-path="url(#p8020638126)" style="fill: #ff3131; opacity: 0.8"/>
   </g>
   <g id="patch_81">
    <path d="M 244.311871 320.4 
L 249.983063 320.4 
L 249.983063 320.4 
L 244.311871 320.4 
z
" clip-path="url(#p8020638126)" style="fill: #ff3131; opacity: 0.8"/>
   </g>
   <g id="patch_82">
    <path d="M 249.983063 320.4 
L 255.654254 320.4 
L 255.654254 314.696296 
L 249.983063 314.696296 
z
" clip-path="url(#p8020638126)" style="fill: #ff3131; opacity: 0.8"/>
   </g>
   <g id="patch_83">
    <path d="M 255.654254 320.4 
L 261.325445 320.4 
L 261.325445 320.4 
L 255.654254 320.4 
z
" clip-path="url(#p8020638126)" style="fill: #ff3131; opacity: 0.8"/>
   </g>
   <g id="patch_84">
    <path d="M 261.325445 320.4 
L 266.996637 320.4 
L 266.996637 314.696296 
L 261.325445 314.696296 
z
" clip-path="url(#p8020638126)" style="fill: #ff3131; opacity: 0.8"/>
   </g>
   <g id="patch_85">
    <path d="M 266.996637 320.4 
L 272.667828 320.4 
L 272.667828 314.696296 
L 266.996637 314.696296 
z
" clip-path="url(#p8020638126)" style="fill: #ff3131; opacity: 0.8"/>
   </g>
   <g id="patch_86">
    <path d="M 272.667828 320.4 
L 278.339019 320.4 
L 278.339019 320.4 
L 272.667828 320.4 
z
" clip-path="url(#p8020638126)" style="fill: #ff3131; opacity: 0.8"/>
   </g>
   <g id="patch_87">
    <path d="M 278.339019 320.4 
L 284.010211 320.4 
L 284.010211 320.4 
L 278.339019 320.4 
z
" clip-path="url(#p8020638126)" style="fill: #ff3131; opacity: 0.8"/>
   </g>
   <g id="patch_88">
    <path d="M 284.010211 320.4 
L 289.681402 320.4 
L 289.681402 320.4 
L 284.010211 320.4 
z
" clip-path="url(#p8020638126)" style="fill: #ff3131; opacity: 0.8"/>
   </g>
   <g id="patch_89">
    <path d="M 289.681402 320.4 
L 295.352593 320.4 
L 295.352593 314.696296 
L 289.681402 314.696296 
z
" clip-path="url(#p8020638126)" style="fill: #ff3131; opacity: 0.8"/>
   </g>
   <g id="patch_90">
    <path d="M 295.352593 320.4 
L 301.023785 320.4 
L 301.023785 314.696296 
L 295.352593 314.696296 
z
" clip-path="url(#p8020638126)" style="fill: #ff3131; opacity: 0.8"/>
   </g>
   <g id="patch_91">
    <path d="M 301.023785 320.4 
L 306.694976 320.4 
L 306.694976 320.4 
L 301.023785 320.4 
z
" clip-path="url(#p8020638126)" style="fill: #ff3131; opacity: 0.8"/>
   </g>
   <g id="patch_92">
    <path d="M 306.694976 320.4 
L 312.366167 320.4 
L 312.366167 308.992593 
L 306.694976 308.992593 
z
" clip-path="url(#p8020638126)" style="fill: #ff3131; opacity: 0.8"/>
   </g>
   <g id="patch_93">
    <path d="M 312.366167 320.4 
L 318.037359 320.4 
L 318.037359 314.696296 
L 312.366167 314.696296 
z
" clip-path="url(#p8020638126)" style="fill: #ff3131; opacity: 0.8"/>
   </g>
   <g id="patch_94">
    <path d="M 318.037359 320.4 
L 323.70855 320.4 
L 323.70855 320.4 
L 318.037359 320.4 
z
" clip-path="url(#p8020638126)" style="fill: #ff3131; opacity: 0.8"/>
   </g>
   <g id="patch_95">
    <path d="M 323.70855 320.4 
L 329.379741 320.4 
L 329.379741 308.992593 
L 323.70855 308.992593 
z
" clip-path="url(#p8020638126)" style="fill: #ff3131; opacity: 0.8"/>
   </g>
   <g id="patch_96">
    <path d="M 329.379741 320.4 
L 335.050933 320.4 
L 335.050933 320.4 
L 329.379741 320.4 
z
" clip-path="url(#p8020638126)" style="fill: #ff3131; opacity: 0.8"/>
   </g>
   <g id="patch_97">
    <path d="M 335.050933 320.4 
L 340.722124 320.4 
L 340.722124 314.696296 
L 335.050933 314.696296 
z
" clip-path="url(#p8020638126)" style="fill: #ff3131; opacity: 0.8"/>
   </g>
   <g id="patch_98">
    <path d="M 340.722124 320.4 
L 346.393316 320.4 
L 346.393316 314.696296 
L 340.722124 314.696296 
z
" clip-path="url(#p8020638126)" style="fill: #ff3131; opacity: 0.8"/>
   </g>
   <g id="patch_99">
    <path d="M 346.393316 320.4 
L 352.064507 320.4 
L 352.064507 314.696296 
L 346.393316 314.696296 
z
" clip-path="url(#p8020638126)" style="fill: #ff3131; opacity: 0.8"/>
   </g>
   <g id="patch_100">
    <path d="M 352.064507 320.4 
L 357.735698 320.4 
L 357.735698 314.696296 
L 352.064507 314.696296 
z
" clip-path="url(#p8020638126)" style="fill: #ff3131; opacity: 0.8"/>
   </g>
   <g id="patch_101">
    <path d="M 357.735698 320.4 
L 363.40689 320.4 
L 363.40689 297.585185 
L 357.735698 297.585185 
z
" clip-path="url(#p8020638126)" style="fill: #ff3131; opacity: 0.8"/>
   </g>
   <g id="patch_102">
    <path d="M 363.40689 320.4 
L 369.078081 320.4 
L 369.078081 274.77037 
L 363.40689 274.77037 
z
" clip-path="url(#p8020638126)" style="fill: #ff3131; opacity: 0.8"/>
   </g>
   <g id="matplotlib.axis_1">
    <g id="xtick_1">
     <g id="line2d_1">
      <defs>
       <path id="ma463b3e0ea" d="M 0 0 
L 0 3 
" style="stroke: #000000"/>
      </defs>
      <g>
       <use xlink:href="#ma463b3e0ea" x="59.32792" y="320.4" style="stroke: #000000"/>
      </g>
     </g>
     <g id="text_1">
      <!-- 0.5 -->
      <g transform="translate(50.57792 336.62125) scale(0.14 -0.14)">
       <defs>
        <path id="TimesNewRomanPSMT-30" d="M 231 2094 
Q 231 2819 450 3342 
Q 669 3866 1031 4122 
Q 1313 4325 1613 4325 
Q 2100 4325 2488 3828 
Q 2972 3213 2972 2159 
Q 2972 1422 2759 906 
Q 2547 391 2217 158 
Q 1888 -75 1581 -75 
Q 975 -75 572 641 
Q 231 1244 231 2094 
z
M 844 2016 
Q 844 1141 1059 588 
Q 1238 122 1591 122 
Q 1759 122 1940 273 
Q 2122 425 2216 781 
Q 2359 1319 2359 2297 
Q 2359 3022 2209 3506 
Q 2097 3866 1919 4016 
Q 1791 4119 1609 4119 
Q 1397 4119 1231 3928 
Q 1006 3669 925 3112 
Q 844 2556 844 2016 
z
" transform="scale(0.015625)"/>
        <path id="TimesNewRomanPSMT-2e" d="M 800 606 
Q 947 606 1047 504 
Q 1147 403 1147 259 
Q 1147 116 1045 14 
Q 944 -88 800 -88 
Q 656 -88 554 14 
Q 453 116 453 259 
Q 453 406 554 506 
Q 656 606 800 606 
z
" transform="scale(0.015625)"/>
        <path id="TimesNewRomanPSMT-35" d="M 2778 4238 
L 2534 3706 
L 1259 3706 
L 981 3138 
Q 1809 3016 2294 2522 
Q 2709 2097 2709 1522 
Q 2709 1188 2573 903 
Q 2438 619 2231 419 
Q 2025 219 1772 97 
Q 1413 -75 1034 -75 
Q 653 -75 479 54 
Q 306 184 306 341 
Q 306 428 378 495 
Q 450 563 559 563 
Q 641 563 702 538 
Q 763 513 909 409 
Q 1144 247 1384 247 
Q 1750 247 2026 523 
Q 2303 800 2303 1197 
Q 2303 1581 2056 1914 
Q 1809 2247 1375 2428 
Q 1034 2569 447 2591 
L 1259 4238 
L 2778 4238 
z
" transform="scale(0.015625)"/>
       </defs>
       <use xlink:href="#TimesNewRomanPSMT-30"/>
       <use xlink:href="#TimesNewRomanPSMT-2e" x="50"/>
       <use xlink:href="#TimesNewRomanPSMT-35" x="75"/>
      </g>
     </g>
    </g>
    <g id="xtick_2">
     <g id="line2d_2">
      <g>
       <use xlink:href="#ma463b3e0ea" x="218.58973" y="320.4" style="stroke: #000000"/>
      </g>
     </g>
     <g id="text_2">
      <!-- 0.75 -->
      <g transform="translate(206.33973 336.62125) scale(0.14 -0.14)">
       <defs>
        <path id="TimesNewRomanPSMT-37" d="M 644 4238 
L 2916 4238 
L 2916 4119 
L 1503 -88 
L 1153 -88 
L 2419 3728 
L 1253 3728 
Q 900 3728 750 3644 
Q 488 3500 328 3200 
L 238 3234 
L 644 4238 
z
" transform="scale(0.015625)"/>
       </defs>
       <use xlink:href="#TimesNewRomanPSMT-30"/>
       <use xlink:href="#TimesNewRomanPSMT-2e" x="50"/>
       <use xlink:href="#TimesNewRomanPSMT-37" x="75"/>
       <use xlink:href="#TimesNewRomanPSMT-35" x="125"/>
      </g>
     </g>
    </g>
    <g id="xtick_3">
     <g id="line2d_3">
      <g>
       <use xlink:href="#ma463b3e0ea" x="377.85154" y="320.4" style="stroke: #000000"/>
      </g>
     </g>
     <g id="text_3">
      <!-- 1 -->
      <g transform="translate(374.35154 336.62125) scale(0.14 -0.14)">
       <defs>
        <path id="TimesNewRomanPSMT-31" d="M 750 3822 
L 1781 4325 
L 1884 4325 
L 1884 747 
Q 1884 391 1914 303 
Q 1944 216 2037 169 
Q 2131 122 2419 116 
L 2419 0 
L 825 0 
L 825 116 
Q 1125 122 1212 167 
Q 1300 213 1334 289 
Q 1369 366 1369 747 
L 1369 3034 
Q 1369 3497 1338 3628 
Q 1316 3728 1258 3775 
Q 1200 3822 1119 3822 
Q 1003 3822 797 3725 
L 750 3822 
z
" transform="scale(0.015625)"/>
       </defs>
       <use xlink:href="#TimesNewRomanPSMT-31"/>
      </g>
     </g>
    </g>
    <g id="text_4">
     <!-- Confidence -->
     <g transform="translate(184.52375 354.725937) scale(0.16 -0.16)">
      <defs>
       <path id="TimesNewRomanPSMT-43" d="M 3853 4334 
L 3950 2894 
L 3853 2894 
Q 3659 3541 3300 3825 
Q 2941 4109 2438 4109 
Q 2016 4109 1675 3895 
Q 1334 3681 1139 3212 
Q 944 2744 944 2047 
Q 944 1472 1128 1050 
Q 1313 628 1683 403 
Q 2053 178 2528 178 
Q 2941 178 3256 354 
Q 3572 531 3950 1056 
L 4047 994 
Q 3728 428 3303 165 
Q 2878 -97 2294 -97 
Q 1241 -97 663 684 
Q 231 1266 231 2053 
Q 231 2688 515 3219 
Q 800 3750 1298 4042 
Q 1797 4334 2388 4334 
Q 2847 4334 3294 4109 
Q 3425 4041 3481 4041 
Q 3566 4041 3628 4100 
Q 3709 4184 3744 4334 
L 3853 4334 
z
" transform="scale(0.015625)"/>
       <path id="TimesNewRomanPSMT-6f" d="M 1600 2947 
Q 2250 2947 2644 2453 
Q 2978 2031 2978 1484 
Q 2978 1100 2793 706 
Q 2609 313 2286 112 
Q 1963 -88 1566 -88 
Q 919 -88 538 428 
Q 216 863 216 1403 
Q 216 1797 411 2186 
Q 606 2575 925 2761 
Q 1244 2947 1600 2947 
z
M 1503 2744 
Q 1338 2744 1170 2645 
Q 1003 2547 900 2300 
Q 797 2053 797 1666 
Q 797 1041 1045 587 
Q 1294 134 1700 134 
Q 2003 134 2200 384 
Q 2397 634 2397 1244 
Q 2397 2006 2069 2444 
Q 1847 2744 1503 2744 
z
" transform="scale(0.015625)"/>
       <path id="TimesNewRomanPSMT-6e" d="M 1034 2341 
Q 1538 2947 1994 2947 
Q 2228 2947 2397 2830 
Q 2566 2713 2666 2444 
Q 2734 2256 2734 1869 
L 2734 647 
Q 2734 375 2778 278 
Q 2813 200 2889 156 
Q 2966 113 3172 113 
L 3172 0 
L 1756 0 
L 1756 113 
L 1816 113 
Q 2016 113 2095 173 
Q 2175 234 2206 353 
Q 2219 400 2219 647 
L 2219 1819 
Q 2219 2209 2117 2386 
Q 2016 2563 1775 2563 
Q 1403 2563 1034 2156 
L 1034 647 
Q 1034 356 1069 288 
Q 1113 197 1189 155 
Q 1266 113 1500 113 
L 1500 0 
L 84 0 
L 84 113 
L 147 113 
Q 366 113 442 223 
Q 519 334 519 647 
L 519 1709 
Q 519 2225 495 2337 
Q 472 2450 423 2490 
Q 375 2531 294 2531 
Q 206 2531 84 2484 
L 38 2597 
L 900 2947 
L 1034 2947 
L 1034 2341 
z
" transform="scale(0.015625)"/>
       <path id="TimesNewRomanPSMT-66" d="M 1319 2638 
L 1319 756 
Q 1319 356 1406 250 
Q 1522 113 1716 113 
L 1975 113 
L 1975 0 
L 266 0 
L 266 113 
L 394 113 
Q 519 113 622 175 
Q 725 238 764 344 
Q 803 450 803 756 
L 803 2638 
L 247 2638 
L 247 2863 
L 803 2863 
L 803 3050 
Q 803 3478 940 3775 
Q 1078 4072 1361 4255 
Q 1644 4438 1997 4438 
Q 2325 4438 2600 4225 
Q 2781 4084 2781 3909 
Q 2781 3816 2700 3733 
Q 2619 3650 2525 3650 
Q 2453 3650 2373 3701 
Q 2294 3753 2178 3923 
Q 2063 4094 1966 4153 
Q 1869 4213 1750 4213 
Q 1606 4213 1506 4136 
Q 1406 4059 1362 3898 
Q 1319 3738 1319 3069 
L 1319 2863 
L 2056 2863 
L 2056 2638 
L 1319 2638 
z
" transform="scale(0.015625)"/>
       <path id="TimesNewRomanPSMT-69" d="M 928 4444 
Q 1059 4444 1151 4351 
Q 1244 4259 1244 4128 
Q 1244 3997 1151 3903 
Q 1059 3809 928 3809 
Q 797 3809 703 3903 
Q 609 3997 609 4128 
Q 609 4259 701 4351 
Q 794 4444 928 4444 
z
M 1188 2947 
L 1188 647 
Q 1188 378 1227 289 
Q 1266 200 1342 156 
Q 1419 113 1622 113 
L 1622 0 
L 231 0 
L 231 113 
Q 441 113 512 153 
Q 584 194 626 287 
Q 669 381 669 647 
L 669 1750 
Q 669 2216 641 2353 
Q 619 2453 572 2492 
Q 525 2531 444 2531 
Q 356 2531 231 2484 
L 188 2597 
L 1050 2947 
L 1188 2947 
z
" transform="scale(0.015625)"/>
       <path id="TimesNewRomanPSMT-64" d="M 2222 322 
Q 2013 103 1813 7 
Q 1613 -88 1381 -88 
Q 913 -88 563 304 
Q 213 697 213 1313 
Q 213 1928 600 2439 
Q 988 2950 1597 2950 
Q 1975 2950 2222 2709 
L 2222 3238 
Q 2222 3728 2198 3840 
Q 2175 3953 2125 3993 
Q 2075 4034 2000 4034 
Q 1919 4034 1784 3984 
L 1744 4094 
L 2597 4444 
L 2738 4444 
L 2738 1134 
Q 2738 631 2761 520 
Q 2784 409 2836 365 
Q 2888 322 2956 322 
Q 3041 322 3181 375 
L 3216 266 
L 2366 -88 
L 2222 -88 
L 2222 322 
z
M 2222 541 
L 2222 2016 
Q 2203 2228 2109 2403 
Q 2016 2578 1861 2667 
Q 1706 2756 1559 2756 
Q 1284 2756 1069 2509 
Q 784 2184 784 1559 
Q 784 928 1059 592 
Q 1334 256 1672 256 
Q 1956 256 2222 541 
z
" transform="scale(0.015625)"/>
       <path id="TimesNewRomanPSMT-65" d="M 681 1784 
Q 678 1147 991 784 
Q 1303 422 1725 422 
Q 2006 422 2214 576 
Q 2422 731 2563 1106 
L 2659 1044 
Q 2594 616 2278 264 
Q 1963 -88 1488 -88 
Q 972 -88 605 314 
Q 238 716 238 1394 
Q 238 2128 614 2539 
Q 991 2950 1559 2950 
Q 2041 2950 2350 2633 
Q 2659 2316 2659 1784 
L 681 1784 
z
M 681 1966 
L 2006 1966 
Q 1991 2241 1941 2353 
Q 1863 2528 1708 2628 
Q 1553 2728 1384 2728 
Q 1125 2728 920 2526 
Q 716 2325 681 1966 
z
" transform="scale(0.015625)"/>
       <path id="TimesNewRomanPSMT-63" d="M 2631 1088 
Q 2516 522 2178 217 
Q 1841 -88 1431 -88 
Q 944 -88 581 321 
Q 219 731 219 1428 
Q 219 2103 620 2525 
Q 1022 2947 1584 2947 
Q 2006 2947 2278 2723 
Q 2550 2500 2550 2259 
Q 2550 2141 2473 2067 
Q 2397 1994 2259 1994 
Q 2075 1994 1981 2113 
Q 1928 2178 1911 2362 
Q 1894 2547 1784 2644 
Q 1675 2738 1481 2738 
Q 1169 2738 978 2506 
Q 725 2200 725 1697 
Q 725 1184 976 792 
Q 1228 400 1656 400 
Q 1963 400 2206 609 
Q 2378 753 2541 1131 
L 2631 1088 
z
" transform="scale(0.015625)"/>
      </defs>
      <use xlink:href="#TimesNewRomanPSMT-43"/>
      <use xlink:href="#TimesNewRomanPSMT-6f" x="66.699219"/>
      <use xlink:href="#TimesNewRomanPSMT-6e" x="116.699219"/>
      <use xlink:href="#TimesNewRomanPSMT-66" x="166.699219"/>
      <use xlink:href="#TimesNewRomanPSMT-69" x="200"/>
      <use xlink:href="#TimesNewRomanPSMT-64" x="227.783203"/>
      <use xlink:href="#TimesNewRomanPSMT-65" x="277.783203"/>
      <use xlink:href="#TimesNewRomanPSMT-6e" x="322.167969"/>
      <use xlink:href="#TimesNewRomanPSMT-63" x="372.167969"/>
      <use xlink:href="#TimesNewRomanPSMT-65" x="416.552734"/>
     </g>
    </g>
   </g>
   <g id="matplotlib.axis_2">
    <g id="ytick_1">
     <g id="line2d_4">
      <defs>
       <path id="m5c5d3926fb" d="M 0 0 
L -3 0 
" style="stroke: #000000"/>
      </defs>
      <g>
       <use xlink:href="#m5c5d3926fb" x="54" y="320.4" style="stroke: #000000"/>
      </g>
     </g>
     <g id="text_5">
      <!-- 0 -->
      <g transform="translate(40.5 325.260625) scale(0.14 -0.14)">
       <use xlink:href="#TimesNewRomanPSMT-30"/>
      </g>
     </g>
    </g>
    <g id="ytick_2">
     <g id="line2d_5">
      <g>
       <use xlink:href="#m5c5d3926fb" x="54" y="263.362963" style="stroke: #000000"/>
      </g>
     </g>
     <g id="text_6">
      <!-- 10 -->
      <g transform="translate(33.5 268.223588) scale(0.14 -0.14)">
       <use xlink:href="#TimesNewRomanPSMT-31"/>
       <use xlink:href="#TimesNewRomanPSMT-30" x="50"/>
      </g>
     </g>
    </g>
    <g id="ytick_3">
     <g id="line2d_6">
      <g>
       <use xlink:href="#m5c5d3926fb" x="54" y="206.325926" style="stroke: #000000"/>
      </g>
     </g>
     <g id="text_7">
      <!-- 20 -->
      <g transform="translate(33.5 211.186551) scale(0.14 -0.14)">
       <defs>
        <path id="TimesNewRomanPSMT-32" d="M 2934 816 
L 2638 0 
L 138 0 
L 138 116 
Q 1241 1122 1691 1759 
Q 2141 2397 2141 2925 
Q 2141 3328 1894 3587 
Q 1647 3847 1303 3847 
Q 991 3847 742 3664 
Q 494 3481 375 3128 
L 259 3128 
Q 338 3706 661 4015 
Q 984 4325 1469 4325 
Q 1984 4325 2329 3994 
Q 2675 3663 2675 3213 
Q 2675 2891 2525 2569 
Q 2294 2063 1775 1497 
Q 997 647 803 472 
L 1909 472 
Q 2247 472 2383 497 
Q 2519 522 2628 598 
Q 2738 675 2819 816 
L 2934 816 
z
" transform="scale(0.015625)"/>
       </defs>
       <use xlink:href="#TimesNewRomanPSMT-32"/>
       <use xlink:href="#TimesNewRomanPSMT-30" x="50"/>
      </g>
     </g>
    </g>
    <g id="ytick_4">
     <g id="line2d_7">
      <g>
       <use xlink:href="#m5c5d3926fb" x="54" y="149.288889" style="stroke: #000000"/>
      </g>
     </g>
     <g id="text_8">
      <!-- 30 -->
      <g transform="translate(33.5 154.149514) scale(0.14 -0.14)">
       <defs>
        <path id="TimesNewRomanPSMT-33" d="M 325 3431 
Q 506 3859 782 4092 
Q 1059 4325 1472 4325 
Q 1981 4325 2253 3994 
Q 2459 3747 2459 3466 
Q 2459 3003 1878 2509 
Q 2269 2356 2469 2072 
Q 2669 1788 2669 1403 
Q 2669 853 2319 450 
Q 1863 -75 997 -75 
Q 569 -75 414 31 
Q 259 138 259 259 
Q 259 350 332 419 
Q 406 488 509 488 
Q 588 488 669 463 
Q 722 447 909 348 
Q 1097 250 1169 231 
Q 1284 197 1416 197 
Q 1734 197 1970 444 
Q 2206 691 2206 1028 
Q 2206 1275 2097 1509 
Q 2016 1684 1919 1775 
Q 1784 1900 1550 2001 
Q 1316 2103 1072 2103 
L 972 2103 
L 972 2197 
Q 1219 2228 1467 2375 
Q 1716 2522 1828 2728 
Q 1941 2934 1941 3181 
Q 1941 3503 1739 3701 
Q 1538 3900 1238 3900 
Q 753 3900 428 3381 
L 325 3431 
z
" transform="scale(0.015625)"/>
       </defs>
       <use xlink:href="#TimesNewRomanPSMT-33"/>
       <use xlink:href="#TimesNewRomanPSMT-30" x="50"/>
      </g>
     </g>
    </g>
    <g id="ytick_5">
     <g id="line2d_8">
      <g>
       <use xlink:href="#m5c5d3926fb" x="54" y="92.251852" style="stroke: #000000"/>
      </g>
     </g>
     <g id="text_9">
      <!-- 40 -->
      <g transform="translate(33.5 97.112477) scale(0.14 -0.14)">
       <defs>
        <path id="TimesNewRomanPSMT-34" d="M 2978 1563 
L 2978 1119 
L 2409 1119 
L 2409 0 
L 1894 0 
L 1894 1119 
L 100 1119 
L 100 1519 
L 2066 4325 
L 2409 4325 
L 2409 1563 
L 2978 1563 
z
M 1894 1563 
L 1894 3666 
L 406 1563 
L 1894 1563 
z
" transform="scale(0.015625)"/>
       </defs>
       <use xlink:href="#TimesNewRomanPSMT-34"/>
       <use xlink:href="#TimesNewRomanPSMT-30" x="50"/>
      </g>
     </g>
    </g>
    <g id="text_10">
     <!-- Predictions -->
     <g transform="translate(26.0775 217.79625) rotate(-90) scale(0.16 -0.16)">
      <defs>
       <path id="TimesNewRomanPSMT-50" d="M 1313 1984 
L 1313 750 
Q 1313 350 1400 253 
Q 1519 116 1759 116 
L 1922 116 
L 1922 0 
L 106 0 
L 106 116 
L 266 116 
Q 534 116 650 291 
Q 713 388 713 750 
L 713 3488 
Q 713 3888 628 3984 
Q 506 4122 266 4122 
L 106 4122 
L 106 4238 
L 1659 4238 
Q 2228 4238 2556 4120 
Q 2884 4003 3109 3725 
Q 3334 3447 3334 3066 
Q 3334 2547 2992 2222 
Q 2650 1897 2025 1897 
Q 1872 1897 1694 1919 
Q 1516 1941 1313 1984 
z
M 1313 2163 
Q 1478 2131 1606 2115 
Q 1734 2100 1825 2100 
Q 2150 2100 2386 2351 
Q 2622 2603 2622 3003 
Q 2622 3278 2509 3514 
Q 2397 3750 2190 3867 
Q 1984 3984 1722 3984 
Q 1563 3984 1313 3925 
L 1313 2163 
z
" transform="scale(0.015625)"/>
       <path id="TimesNewRomanPSMT-72" d="M 1038 2947 
L 1038 2303 
Q 1397 2947 1775 2947 
Q 1947 2947 2059 2842 
Q 2172 2738 2172 2600 
Q 2172 2478 2090 2393 
Q 2009 2309 1897 2309 
Q 1788 2309 1652 2417 
Q 1516 2525 1450 2525 
Q 1394 2525 1328 2463 
Q 1188 2334 1038 2041 
L 1038 669 
Q 1038 431 1097 309 
Q 1138 225 1241 169 
Q 1344 113 1538 113 
L 1538 0 
L 72 0 
L 72 113 
Q 291 113 397 181 
Q 475 231 506 341 
Q 522 394 522 644 
L 522 1753 
Q 522 2253 501 2348 
Q 481 2444 426 2487 
Q 372 2531 291 2531 
Q 194 2531 72 2484 
L 41 2597 
L 906 2947 
L 1038 2947 
z
" transform="scale(0.015625)"/>
       <path id="TimesNewRomanPSMT-74" d="M 1031 3803 
L 1031 2863 
L 1700 2863 
L 1700 2644 
L 1031 2644 
L 1031 788 
Q 1031 509 1111 412 
Q 1191 316 1316 316 
Q 1419 316 1516 380 
Q 1613 444 1666 569 
L 1788 569 
Q 1678 263 1478 108 
Q 1278 -47 1066 -47 
Q 922 -47 784 33 
Q 647 113 581 261 
Q 516 409 516 719 
L 516 2644 
L 63 2644 
L 63 2747 
Q 234 2816 414 2980 
Q 594 3144 734 3369 
Q 806 3488 934 3803 
L 1031 3803 
z
" transform="scale(0.015625)"/>
       <path id="TimesNewRomanPSMT-73" d="M 2050 2947 
L 2050 1972 
L 1947 1972 
Q 1828 2431 1642 2597 
Q 1456 2763 1169 2763 
Q 950 2763 815 2647 
Q 681 2531 681 2391 
Q 681 2216 781 2091 
Q 878 1963 1175 1819 
L 1631 1597 
Q 2266 1288 2266 781 
Q 2266 391 1970 151 
Q 1675 -88 1309 -88 
Q 1047 -88 709 6 
Q 606 38 541 38 
Q 469 38 428 -44 
L 325 -44 
L 325 978 
L 428 978 
Q 516 541 762 319 
Q 1009 97 1316 97 
Q 1531 97 1667 223 
Q 1803 350 1803 528 
Q 1803 744 1651 891 
Q 1500 1038 1047 1263 
Q 594 1488 453 1669 
Q 313 1847 313 2119 
Q 313 2472 555 2709 
Q 797 2947 1181 2947 
Q 1350 2947 1591 2875 
Q 1750 2828 1803 2828 
Q 1853 2828 1881 2850 
Q 1909 2872 1947 2947 
L 2050 2947 
z
" transform="scale(0.015625)"/>
      </defs>
      <use xlink:href="#TimesNewRomanPSMT-50"/>
      <use xlink:href="#TimesNewRomanPSMT-72" x="55.615234"/>
      <use xlink:href="#TimesNewRomanPSMT-65" x="88.916016"/>
      <use xlink:href="#TimesNewRomanPSMT-64" x="133.300781"/>
      <use xlink:href="#TimesNewRomanPSMT-69" x="183.300781"/>
      <use xlink:href="#TimesNewRomanPSMT-63" x="211.083984"/>
      <use xlink:href="#TimesNewRomanPSMT-74" x="255.46875"/>
      <use xlink:href="#TimesNewRomanPSMT-69" x="283.251953"/>
      <use xlink:href="#TimesNewRomanPSMT-6f" x="311.035156"/>
      <use xlink:href="#TimesNewRomanPSMT-6e" x="361.035156"/>
      <use xlink:href="#TimesNewRomanPSMT-73" x="411.035156"/>
     </g>
    </g>
   </g>
   <g id="patch_103">
    <path d="M 54 320.4 
L 54 43.2 
" style="fill: none; stroke: #000000; stroke-linejoin: miter; stroke-linecap: square"/>
   </g>
   <g id="patch_104">
    <path d="M 54 320.4 
L 388.8 320.4 
" style="fill: none; stroke: #000000; stroke-linejoin: miter; stroke-linecap: square"/>
   </g>
   <g id="legend_1">
    <g id="patch_105">
     <path d="M 68.4 68.8 
L 100.4 68.8 
L 100.4 57.6 
L 68.4 57.6 
z
" style="fill: #ff3131; opacity: 0.8"/>
    </g>
    <g id="text_11">
     <!-- Misinformation -->
     <g transform="translate(113.2 68.8) scale(0.16 -0.16)">
      <defs>
       <path id="TimesNewRomanPSMT-4d" d="M 2619 0 
L 981 3566 
L 981 734 
Q 981 344 1066 247 
Q 1181 116 1431 116 
L 1581 116 
L 1581 0 
L 106 0 
L 106 116 
L 256 116 
Q 525 116 638 278 
Q 706 378 706 734 
L 706 3503 
Q 706 3784 644 3909 
Q 600 4000 483 4061 
Q 366 4122 106 4122 
L 106 4238 
L 1306 4238 
L 2844 922 
L 4356 4238 
L 5556 4238 
L 5556 4122 
L 5409 4122 
Q 5138 4122 5025 3959 
Q 4956 3859 4956 3503 
L 4956 734 
Q 4956 344 5044 247 
Q 5159 116 5409 116 
L 5556 116 
L 5556 0 
L 3756 0 
L 3756 116 
L 3906 116 
Q 4178 116 4288 278 
Q 4356 378 4356 734 
L 4356 3566 
L 2722 0 
L 2619 0 
z
" transform="scale(0.015625)"/>
       <path id="TimesNewRomanPSMT-6d" d="M 1050 2338 
Q 1363 2650 1419 2697 
Q 1559 2816 1721 2881 
Q 1884 2947 2044 2947 
Q 2313 2947 2506 2790 
Q 2700 2634 2766 2338 
Q 3088 2713 3309 2830 
Q 3531 2947 3766 2947 
Q 3994 2947 4170 2830 
Q 4347 2713 4450 2447 
Q 4519 2266 4519 1878 
L 4519 647 
Q 4519 378 4559 278 
Q 4591 209 4675 161 
Q 4759 113 4950 113 
L 4950 0 
L 3538 0 
L 3538 113 
L 3597 113 
Q 3781 113 3884 184 
Q 3956 234 3988 344 
Q 4000 397 4000 647 
L 4000 1878 
Q 4000 2228 3916 2372 
Q 3794 2572 3525 2572 
Q 3359 2572 3192 2489 
Q 3025 2406 2788 2181 
L 2781 2147 
L 2788 2013 
L 2788 647 
Q 2788 353 2820 281 
Q 2853 209 2943 161 
Q 3034 113 3253 113 
L 3253 0 
L 1806 0 
L 1806 113 
Q 2044 113 2133 169 
Q 2222 225 2256 338 
Q 2272 391 2272 647 
L 2272 1878 
Q 2272 2228 2169 2381 
Q 2031 2581 1784 2581 
Q 1616 2581 1450 2491 
Q 1191 2353 1050 2181 
L 1050 647 
Q 1050 366 1089 281 
Q 1128 197 1204 155 
Q 1281 113 1516 113 
L 1516 0 
L 100 0 
L 100 113 
Q 297 113 375 155 
Q 453 197 493 289 
Q 534 381 534 647 
L 534 1741 
Q 534 2213 506 2350 
Q 484 2453 437 2492 
Q 391 2531 309 2531 
Q 222 2531 100 2484 
L 53 2597 
L 916 2947 
L 1050 2947 
L 1050 2338 
z
" transform="scale(0.015625)"/>
       <path id="TimesNewRomanPSMT-61" d="M 1822 413 
Q 1381 72 1269 19 
Q 1100 -59 909 -59 
Q 613 -59 420 144 
Q 228 347 228 678 
Q 228 888 322 1041 
Q 450 1253 767 1440 
Q 1084 1628 1822 1897 
L 1822 2009 
Q 1822 2438 1686 2597 
Q 1550 2756 1291 2756 
Q 1094 2756 978 2650 
Q 859 2544 859 2406 
L 866 2225 
Q 866 2081 792 2003 
Q 719 1925 600 1925 
Q 484 1925 411 2006 
Q 338 2088 338 2228 
Q 338 2497 613 2722 
Q 888 2947 1384 2947 
Q 1766 2947 2009 2819 
Q 2194 2722 2281 2516 
Q 2338 2381 2338 1966 
L 2338 994 
Q 2338 584 2353 492 
Q 2369 400 2405 369 
Q 2441 338 2488 338 
Q 2538 338 2575 359 
Q 2641 400 2828 588 
L 2828 413 
Q 2478 -56 2159 -56 
Q 2006 -56 1915 50 
Q 1825 156 1822 413 
z
M 1822 616 
L 1822 1706 
Q 1350 1519 1213 1441 
Q 966 1303 859 1153 
Q 753 1003 753 825 
Q 753 600 887 451 
Q 1022 303 1197 303 
Q 1434 303 1822 616 
z
" transform="scale(0.015625)"/>
      </defs>
      <use xlink:href="#TimesNewRomanPSMT-4d"/>
      <use xlink:href="#TimesNewRomanPSMT-69" x="88.916016"/>
      <use xlink:href="#TimesNewRomanPSMT-73" x="116.699219"/>
      <use xlink:href="#TimesNewRomanPSMT-69" x="155.615234"/>
      <use xlink:href="#TimesNewRomanPSMT-6e" x="183.398438"/>
      <use xlink:href="#TimesNewRomanPSMT-66" x="233.398438"/>
      <use xlink:href="#TimesNewRomanPSMT-6f" x="266.699219"/>
      <use xlink:href="#TimesNewRomanPSMT-72" x="316.699219"/>
      <use xlink:href="#TimesNewRomanPSMT-6d" x="350"/>
      <use xlink:href="#TimesNewRomanPSMT-61" x="427.783203"/>
      <use xlink:href="#TimesNewRomanPSMT-74" x="472.167969"/>
      <use xlink:href="#TimesNewRomanPSMT-69" x="499.951172"/>
      <use xlink:href="#TimesNewRomanPSMT-6f" x="527.734375"/>
      <use xlink:href="#TimesNewRomanPSMT-6e" x="577.734375"/>
     </g>
    </g>
    <g id="patch_106">
     <path d="M 68.4 91.4225 
L 100.4 91.4225 
L 100.4 80.2225 
L 68.4 80.2225 
z
" style="fill: #284f8c; opacity: 0.8"/>
    </g>
    <g id="text_12">
     <!-- Not misinformation -->
     <g transform="translate(113.2 91.4225) scale(0.16 -0.16)">
      <defs>
       <path id="TimesNewRomanPSMT-4e" d="M -84 4238 
L 1066 4238 
L 3656 1059 
L 3656 3503 
Q 3656 3894 3569 3991 
Q 3453 4122 3203 4122 
L 3056 4122 
L 3056 4238 
L 4531 4238 
L 4531 4122 
L 4381 4122 
Q 4113 4122 4000 3959 
Q 3931 3859 3931 3503 
L 3931 -69 
L 3819 -69 
L 1025 3344 
L 1025 734 
Q 1025 344 1109 247 
Q 1228 116 1475 116 
L 1625 116 
L 1625 0 
L 150 0 
L 150 116 
L 297 116 
Q 569 116 681 278 
Q 750 378 750 734 
L 750 3681 
Q 566 3897 470 3965 
Q 375 4034 191 4094 
Q 100 4122 -84 4122 
L -84 4238 
z
" transform="scale(0.015625)"/>
       <path id="TimesNewRomanPSMT-20" transform="scale(0.015625)"/>
      </defs>
      <use xlink:href="#TimesNewRomanPSMT-4e"/>
      <use xlink:href="#TimesNewRomanPSMT-6f" x="72.216797"/>
      <use xlink:href="#TimesNewRomanPSMT-74" x="122.216797"/>
      <use xlink:href="#TimesNewRomanPSMT-20" x="150"/>
      <use xlink:href="#TimesNewRomanPSMT-6d" x="175"/>
      <use xlink:href="#TimesNewRomanPSMT-69" x="252.783203"/>
      <use xlink:href="#TimesNewRomanPSMT-73" x="280.566406"/>
      <use xlink:href="#TimesNewRomanPSMT-69" x="319.482422"/>
      <use xlink:href="#TimesNewRomanPSMT-6e" x="347.265625"/>
      <use xlink:href="#TimesNewRomanPSMT-66" x="397.265625"/>
      <use xlink:href="#TimesNewRomanPSMT-6f" x="430.566406"/>
      <use xlink:href="#TimesNewRomanPSMT-72" x="480.566406"/>
      <use xlink:href="#TimesNewRomanPSMT-6d" x="513.867188"/>
      <use xlink:href="#TimesNewRomanPSMT-61" x="591.650391"/>
      <use xlink:href="#TimesNewRomanPSMT-74" x="636.035156"/>
      <use xlink:href="#TimesNewRomanPSMT-69" x="663.818359"/>
      <use xlink:href="#TimesNewRomanPSMT-6f" x="691.601562"/>
      <use xlink:href="#TimesNewRomanPSMT-6e" x="741.601562"/>
     </g>
    </g>
   </g>
  </g>
 </g>
 <defs>
  <clipPath id="p8020638126">
   <rect x="54" y="43.2" width="334.8" height="277.2"/>
  </clipPath>
 </defs>
</svg>
