<?xml version="1.0" encoding="utf-8" standalone="no"?>
<!DOCTYPE svg PUBLIC "-//W3C//DTD SVG 1.1//EN"
  "http://www.w3.org/Graphics/SVG/1.1/DTD/svg11.dtd">
<svg xmlns:xlink="http://www.w3.org/1999/xlink" width="432pt" height="360pt" viewBox="0 0 432 360" xmlns="http://www.w3.org/2000/svg" version="1.1">
 <metadata>
  <rdf:RDF xmlns:dc="http://purl.org/dc/elements/1.1/" xmlns:cc="http://creativecommons.org/ns#" xmlns:rdf="http://www.w3.org/1999/02/22-rdf-syntax-ns#">
   <cc:Work>
    <dc:type rdf:resource="http://purl.org/dc/dcmitype/StillImage"/>
    <dc:date>2025-01-18T16:34:17.676448</dc:date>
    <dc:format>image/svg+xml</dc:format>
    <dc:creator>
     <cc:Agent>
      <dc:title>Matplotlib v3.8.2, https://matplotlib.org/</dc:title>
     </cc:Agent>
    </dc:creator>
   </cc:Work>
  </rdf:RDF>
 </metadata>
 <defs>
  <style type="text/css">*{stroke-linejoin: round; stroke-linecap: butt}</style>
 </defs>
 <g id="figure_1">
  <g id="patch_1">
   <path d="M 0 360 
L 432 360 
L 432 0 
L 0 0 
z
" style="fill: #ffffff"/>
  </g>
  <g id="axes_1">
   <g id="patch_2">
    <path d="M 54 320.4 
L 388.8 320.4 
L 388.8 43.2 
L 54 43.2 
z
" style="fill: #ffffff"/>
   </g>
   <g id="patch_3">
    <path d="M 68.414706 320.4 
L 71.297648 320.4 
L 71.297648 56.4 
L 68.414706 56.4 
z
" clip-path="url(#pcae50e6939)" style="fill: #ff3131; fill-opacity: 0.9"/>
   </g>
   <g id="patch_4">
    <path d="M 71.297648 320.4 
L 74.180589 320.4 
L 74.180589 76.677696 
L 71.297648 76.677696 
z
" clip-path="url(#pcae50e6939)" style="fill: #ff3131; fill-opacity: 0.9"/>
   </g>
   <g id="patch_5">
    <path d="M 74.180589 320.4 
L 77.06353 320.4 
L 77.06353 96.17548 
L 74.180589 96.17548 
z
" clip-path="url(#pcae50e6939)" style="fill: #ff3131; fill-opacity: 0.9"/>
   </g>
   <g id="patch_6">
    <path d="M 77.06353 320.4 
L 79.946471 320.4 
L 79.946471 111.383752 
L 77.06353 111.383752 
z
" clip-path="url(#pcae50e6939)" style="fill: #ff3131; fill-opacity: 0.9"/>
   </g>
   <g id="patch_7">
    <path d="M 79.946471 320.4 
L 82.829413 320.4 
L 82.829413 114.113442 
L 79.946471 114.113442 
z
" clip-path="url(#pcae50e6939)" style="fill: #ff3131; fill-opacity: 0.9"/>
   </g>
   <g id="patch_8">
    <path d="M 82.829413 320.4 
L 85.712354 320.4 
L 85.712354 136.340916 
L 82.829413 136.340916 
z
" clip-path="url(#pcae50e6939)" style="fill: #ff3131; fill-opacity: 0.9"/>
   </g>
   <g id="patch_9">
    <path d="M 85.712354 320.4 
L 88.595295 320.4 
L 88.595295 137.120827 
L 85.712354 137.120827 
z
" clip-path="url(#pcae50e6939)" style="fill: #ff3131; fill-opacity: 0.9"/>
   </g>
   <g id="patch_10">
    <path d="M 88.595295 320.4 
L 91.478236 320.4 
L 91.478236 153.888922 
L 88.595295 153.888922 
z
" clip-path="url(#pcae50e6939)" style="fill: #ff3131; fill-opacity: 0.9"/>
   </g>
   <g id="patch_11">
    <path d="M 91.478236 320.4 
L 94.361178 320.4 
L 94.361178 174.166617 
L 91.478236 174.166617 
z
" clip-path="url(#pcae50e6939)" style="fill: #ff3131; fill-opacity: 0.9"/>
   </g>
   <g id="patch_12">
    <path d="M 94.361178 320.4 
L 97.244119 320.4 
L 97.244119 187.035155 
L 94.361178 187.035155 
z
" clip-path="url(#pcae50e6939)" style="fill: #ff3131; fill-opacity: 0.9"/>
   </g>
   <g id="patch_13">
    <path d="M 97.244119 320.4 
L 100.12706 320.4 
L 100.12706 189.374889 
L 97.244119 189.374889 
z
" clip-path="url(#pcae50e6939)" style="fill: #ff3131; fill-opacity: 0.9"/>
   </g>
   <g id="patch_14">
    <path d="M 100.12706 320.4 
L 103.010002 320.4 
L 103.010002 194.444313 
L 100.12706 194.444313 
z
" clip-path="url(#pcae50e6939)" style="fill: #ff3131; fill-opacity: 0.9"/>
   </g>
   <g id="patch_15">
    <path d="M 103.010002 320.4 
L 105.892943 320.4 
L 105.892943 199.513737 
L 103.010002 199.513737 
z
" clip-path="url(#pcae50e6939)" style="fill: #ff3131; fill-opacity: 0.9"/>
   </g>
   <g id="patch_16">
    <path d="M 105.892943 320.4 
L 108.775884 320.4 
L 108.775884 204.973117 
L 105.892943 204.973117 
z
" clip-path="url(#pcae50e6939)" style="fill: #ff3131; fill-opacity: 0.9"/>
   </g>
   <g id="patch_17">
    <path d="M 108.775884 320.4 
L 111.658825 320.4 
L 111.658825 220.9613 
L 108.775884 220.9613 
z
" clip-path="url(#pcae50e6939)" style="fill: #ff3131; fill-opacity: 0.9"/>
   </g>
   <g id="patch_18">
    <path d="M 111.658825 320.4 
L 114.541767 320.4 
L 114.541767 228.370458 
L 111.658825 228.370458 
z
" clip-path="url(#pcae50e6939)" style="fill: #ff3131; fill-opacity: 0.9"/>
   </g>
   <g id="patch_19">
    <path d="M 114.541767 320.4 
L 117.424708 320.4 
L 117.424708 234.219793 
L 114.541767 234.219793 
z
" clip-path="url(#pcae50e6939)" style="fill: #ff3131; fill-opacity: 0.9"/>
   </g>
   <g id="patch_20">
    <path d="M 117.424708 320.4 
L 120.307649 320.4 
L 120.307649 244.748597 
L 117.424708 244.748597 
z
" clip-path="url(#pcae50e6939)" style="fill: #ff3131; fill-opacity: 0.9"/>
   </g>
   <g id="patch_21">
    <path d="M 120.307649 320.4 
L 123.19059 320.4 
L 123.19059 234.999705 
L 120.307649 234.999705 
z
" clip-path="url(#pcae50e6939)" style="fill: #ff3131; fill-opacity: 0.9"/>
   </g>
   <g id="patch_22">
    <path d="M 123.19059 320.4 
L 126.073532 320.4 
L 126.073532 252.937666 
L 123.19059 252.937666 
z
" clip-path="url(#pcae50e6939)" style="fill: #ff3131; fill-opacity: 0.9"/>
   </g>
   <g id="patch_23">
    <path d="M 126.073532 320.4 
L 128.956473 320.4 
L 128.956473 257.617134 
L 126.073532 257.617134 
z
" clip-path="url(#pcae50e6939)" style="fill: #ff3131; fill-opacity: 0.9"/>
   </g>
   <g id="patch_24">
    <path d="M 128.956473 320.4 
L 131.839414 320.4 
L 131.839414 260.73678 
L 128.956473 260.73678 
z
" clip-path="url(#pcae50e6939)" style="fill: #ff3131; fill-opacity: 0.9"/>
   </g>
   <g id="patch_25">
    <path d="M 131.839414 320.4 
L 134.722355 320.4 
L 134.722355 262.296603 
L 131.839414 262.296603 
z
" clip-path="url(#pcae50e6939)" style="fill: #ff3131; fill-opacity: 0.9"/>
   </g>
   <g id="patch_26">
    <path d="M 134.722355 320.4 
L 137.605297 320.4 
L 137.605297 276.724963 
L 134.722355 276.724963 
z
" clip-path="url(#pcae50e6939)" style="fill: #ff3131; fill-opacity: 0.9"/>
   </g>
   <g id="patch_27">
    <path d="M 137.605297 320.4 
L 140.488238 320.4 
L 140.488238 272.435451 
L 137.605297 272.435451 
z
" clip-path="url(#pcae50e6939)" style="fill: #ff3131; fill-opacity: 0.9"/>
   </g>
   <g id="patch_28">
    <path d="M 140.488238 320.4 
L 143.371179 320.4 
L 143.371179 269.705761 
L 140.488238 269.705761 
z
" clip-path="url(#pcae50e6939)" style="fill: #ff3131; fill-opacity: 0.9"/>
   </g>
   <g id="patch_29">
    <path d="M 143.371179 320.4 
L 146.25412 320.4 
L 146.25412 277.89483 
L 143.371179 277.89483 
z
" clip-path="url(#pcae50e6939)" style="fill: #ff3131; fill-opacity: 0.9"/>
   </g>
   <g id="patch_30">
    <path d="M 146.25412 320.4 
L 149.137062 320.4 
L 149.137062 288.033678 
L 146.25412 288.033678 
z
" clip-path="url(#pcae50e6939)" style="fill: #ff3131; fill-opacity: 0.9"/>
   </g>
   <g id="patch_31">
    <path d="M 149.137062 320.4 
L 152.020003 320.4 
L 152.020003 285.303988 
L 149.137062 285.303988 
z
" clip-path="url(#pcae50e6939)" style="fill: #ff3131; fill-opacity: 0.9"/>
   </g>
   <g id="patch_32">
    <path d="M 152.020003 320.4 
L 154.902944 320.4 
L 154.902944 292.713146 
L 152.020003 292.713146 
z
" clip-path="url(#pcae50e6939)" style="fill: #ff3131; fill-opacity: 0.9"/>
   </g>
   <g id="patch_33">
    <path d="M 154.902944 320.4 
L 157.785886 320.4 
L 157.785886 291.543279 
L 154.902944 291.543279 
z
" clip-path="url(#pcae50e6939)" style="fill: #ff3131; fill-opacity: 0.9"/>
   </g>
   <g id="patch_34">
    <path d="M 157.785886 320.4 
L 160.668827 320.4 
L 160.668827 289.203545 
L 157.785886 289.203545 
z
" clip-path="url(#pcae50e6939)" style="fill: #ff3131; fill-opacity: 0.9"/>
   </g>
   <g id="patch_35">
    <path d="M 160.668827 320.4 
L 163.551768 320.4 
L 163.551768 291.543279 
L 160.668827 291.543279 
z
" clip-path="url(#pcae50e6939)" style="fill: #ff3131; fill-opacity: 0.9"/>
   </g>
   <g id="patch_36">
    <path d="M 163.551768 320.4 
L 166.434709 320.4 
L 166.434709 296.612703 
L 163.551768 296.612703 
z
" clip-path="url(#pcae50e6939)" style="fill: #ff3131; fill-opacity: 0.9"/>
   </g>
   <g id="patch_37">
    <path d="M 166.434709 320.4 
L 169.317651 320.4 
L 169.317651 302.462038 
L 166.434709 302.462038 
z
" clip-path="url(#pcae50e6939)" style="fill: #ff3131; fill-opacity: 0.9"/>
   </g>
   <g id="patch_38">
    <path d="M 169.317651 320.4 
L 172.200592 320.4 
L 172.200592 302.851994 
L 169.317651 302.851994 
z
" clip-path="url(#pcae50e6939)" style="fill: #ff3131; fill-opacity: 0.9"/>
   </g>
   <g id="patch_39">
    <path d="M 172.200592 320.4 
L 175.083533 320.4 
L 175.083533 307.921418 
L 172.200592 307.921418 
z
" clip-path="url(#pcae50e6939)" style="fill: #ff3131; fill-opacity: 0.9"/>
   </g>
   <g id="patch_40">
    <path d="M 175.083533 320.4 
L 177.966474 320.4 
L 177.966474 312.210931 
L 175.083533 312.210931 
z
" clip-path="url(#pcae50e6939)" style="fill: #ff3131; fill-opacity: 0.9"/>
   </g>
   <g id="patch_41">
    <path d="M 177.966474 320.4 
L 180.849416 320.4 
L 180.849416 309.871196 
L 177.966474 309.871196 
z
" clip-path="url(#pcae50e6939)" style="fill: #ff3131; fill-opacity: 0.9"/>
   </g>
   <g id="patch_42">
    <path d="M 180.849416 320.4 
L 183.732357 320.4 
L 183.732357 308.311374 
L 180.849416 308.311374 
z
" clip-path="url(#pcae50e6939)" style="fill: #ff3131; fill-opacity: 0.9"/>
   </g>
   <g id="patch_43">
    <path d="M 183.732357 320.4 
L 186.615298 320.4 
L 186.615298 310.261152 
L 183.732357 310.261152 
z
" clip-path="url(#pcae50e6939)" style="fill: #ff3131; fill-opacity: 0.9"/>
   </g>
   <g id="patch_44">
    <path d="M 186.615298 320.4 
L 189.498239 320.4 
L 189.498239 309.091285 
L 186.615298 309.091285 
z
" clip-path="url(#pcae50e6939)" style="fill: #ff3131; fill-opacity: 0.9"/>
   </g>
   <g id="patch_45">
    <path d="M 189.498239 320.4 
L 192.381181 320.4 
L 192.381181 310.261152 
L 189.498239 310.261152 
z
" clip-path="url(#pcae50e6939)" style="fill: #ff3131; fill-opacity: 0.9"/>
   </g>
   <g id="patch_46">
    <path d="M 192.381181 320.4 
L 195.264122 320.4 
L 195.264122 313.770753 
L 192.381181 313.770753 
z
" clip-path="url(#pcae50e6939)" style="fill: #ff3131; fill-opacity: 0.9"/>
   </g>
   <g id="patch_47">
    <path d="M 195.264122 320.4 
L 198.147063 320.4 
L 198.147063 310.261152 
L 195.264122 310.261152 
z
" clip-path="url(#pcae50e6939)" style="fill: #ff3131; fill-opacity: 0.9"/>
   </g>
   <g id="patch_48">
    <path d="M 198.147063 320.4 
L 201.030005 320.4 
L 201.030005 315.720532 
L 198.147063 315.720532 
z
" clip-path="url(#pcae50e6939)" style="fill: #ff3131; fill-opacity: 0.9"/>
   </g>
   <g id="patch_49">
    <path d="M 201.030005 320.4 
L 203.912946 320.4 
L 203.912946 313.380798 
L 201.030005 313.380798 
z
" clip-path="url(#pcae50e6939)" style="fill: #ff3131; fill-opacity: 0.9"/>
   </g>
   <g id="patch_50">
    <path d="M 203.912946 320.4 
L 206.795887 320.4 
L 206.795887 313.380798 
L 203.912946 313.380798 
z
" clip-path="url(#pcae50e6939)" style="fill: #ff3131; fill-opacity: 0.9"/>
   </g>
   <g id="patch_51">
    <path d="M 206.795887 320.4 
L 209.678828 320.4 
L 209.678828 316.110487 
L 206.795887 316.110487 
z
" clip-path="url(#pcae50e6939)" style="fill: #ff3131; fill-opacity: 0.9"/>
   </g>
   <g id="patch_52">
    <path d="M 209.678828 320.4 
L 212.56177 320.4 
L 212.56177 317.280355 
L 209.678828 317.280355 
z
" clip-path="url(#pcae50e6939)" style="fill: #ff3131; fill-opacity: 0.9"/>
   </g>
   <g id="patch_53">
    <path d="M 212.56177 320.4 
L 215.444711 320.4 
L 215.444711 315.720532 
L 212.56177 315.720532 
z
" clip-path="url(#pcae50e6939)" style="fill: #ff3131; fill-opacity: 0.9"/>
   </g>
   <g id="patch_54">
    <path d="M 215.444711 320.4 
L 218.327652 320.4 
L 218.327652 316.500443 
L 215.444711 316.500443 
z
" clip-path="url(#pcae50e6939)" style="fill: #ff3131; fill-opacity: 0.9"/>
   </g>
   <g id="patch_55">
    <path d="M 218.327652 320.4 
L 221.210593 320.4 
L 221.210593 316.500443 
L 218.327652 316.500443 
z
" clip-path="url(#pcae50e6939)" style="fill: #ff3131; fill-opacity: 0.9"/>
   </g>
   <g id="patch_56">
    <path d="M 221.210593 320.4 
L 224.093535 320.4 
L 224.093535 318.060266 
L 221.210593 318.060266 
z
" clip-path="url(#pcae50e6939)" style="fill: #ff3131; fill-opacity: 0.9"/>
   </g>
   <g id="patch_57">
    <path d="M 224.093535 320.4 
L 226.976476 320.4 
L 226.976476 316.890399 
L 224.093535 316.890399 
z
" clip-path="url(#pcae50e6939)" style="fill: #ff3131; fill-opacity: 0.9"/>
   </g>
   <g id="patch_58">
    <path d="M 226.976476 320.4 
L 229.859417 320.4 
L 229.859417 316.500443 
L 226.976476 316.500443 
z
" clip-path="url(#pcae50e6939)" style="fill: #ff3131; fill-opacity: 0.9"/>
   </g>
   <g id="patch_59">
    <path d="M 229.859417 320.4 
L 232.742358 320.4 
L 232.742358 318.450222 
L 229.859417 318.450222 
z
" clip-path="url(#pcae50e6939)" style="fill: #ff3131; fill-opacity: 0.9"/>
   </g>
   <g id="patch_60">
    <path d="M 232.742358 320.4 
L 235.6253 320.4 
L 235.6253 317.67031 
L 232.742358 317.67031 
z
" clip-path="url(#pcae50e6939)" style="fill: #ff3131; fill-opacity: 0.9"/>
   </g>
   <g id="patch_61">
    <path d="M 235.6253 320.4 
L 238.508241 320.4 
L 238.508241 319.620089 
L 235.6253 319.620089 
z
" clip-path="url(#pcae50e6939)" style="fill: #ff3131; fill-opacity: 0.9"/>
   </g>
   <g id="patch_62">
    <path d="M 238.508241 320.4 
L 241.391182 320.4 
L 241.391182 318.450222 
L 238.508241 318.450222 
z
" clip-path="url(#pcae50e6939)" style="fill: #ff3131; fill-opacity: 0.9"/>
   </g>
   <g id="patch_63">
    <path d="M 241.391182 320.4 
L 244.274123 320.4 
L 244.274123 320.010044 
L 241.391182 320.010044 
z
" clip-path="url(#pcae50e6939)" style="fill: #ff3131; fill-opacity: 0.9"/>
   </g>
   <g id="patch_64">
    <path d="M 244.274123 320.4 
L 247.157065 320.4 
L 247.157065 316.500443 
L 244.274123 316.500443 
z
" clip-path="url(#pcae50e6939)" style="fill: #ff3131; fill-opacity: 0.9"/>
   </g>
   <g id="patch_65">
    <path d="M 247.157065 320.4 
L 250.040006 320.4 
L 250.040006 319.230133 
L 247.157065 319.230133 
z
" clip-path="url(#pcae50e6939)" style="fill: #ff3131; fill-opacity: 0.9"/>
   </g>
   <g id="patch_66">
    <path d="M 250.040006 320.4 
L 252.922947 320.4 
L 252.922947 318.840177 
L 250.040006 318.840177 
z
" clip-path="url(#pcae50e6939)" style="fill: #ff3131; fill-opacity: 0.9"/>
   </g>
   <g id="patch_67">
    <path d="M 252.922947 320.4 
L 255.805889 320.4 
L 255.805889 318.450222 
L 252.922947 318.450222 
z
" clip-path="url(#pcae50e6939)" style="fill: #ff3131; fill-opacity: 0.9"/>
   </g>
   <g id="patch_68">
    <path d="M 255.805889 320.4 
L 258.68883 320.4 
L 258.68883 318.450222 
L 255.805889 318.450222 
z
" clip-path="url(#pcae50e6939)" style="fill: #ff3131; fill-opacity: 0.9"/>
   </g>
   <g id="patch_69">
    <path d="M 258.68883 320.4 
L 261.571771 320.4 
L 261.571771 320.010044 
L 258.68883 320.010044 
z
" clip-path="url(#pcae50e6939)" style="fill: #ff3131; fill-opacity: 0.9"/>
   </g>
   <g id="patch_70">
    <path d="M 261.571771 320.4 
L 264.454712 320.4 
L 264.454712 319.620089 
L 261.571771 319.620089 
z
" clip-path="url(#pcae50e6939)" style="fill: #ff3131; fill-opacity: 0.9"/>
   </g>
   <g id="patch_71">
    <path d="M 264.454712 320.4 
L 267.337654 320.4 
L 267.337654 319.620089 
L 264.454712 319.620089 
z
" clip-path="url(#pcae50e6939)" style="fill: #ff3131; fill-opacity: 0.9"/>
   </g>
   <g id="patch_72">
    <path d="M 267.337654 320.4 
L 270.220595 320.4 
L 270.220595 319.620089 
L 267.337654 319.620089 
z
" clip-path="url(#pcae50e6939)" style="fill: #ff3131; fill-opacity: 0.9"/>
   </g>
   <g id="patch_73">
    <path d="M 270.220595 320.4 
L 273.103536 320.4 
L 273.103536 319.620089 
L 270.220595 319.620089 
z
" clip-path="url(#pcae50e6939)" style="fill: #ff3131; fill-opacity: 0.9"/>
   </g>
   <g id="patch_74">
    <path d="M 273.103536 320.4 
L 275.986477 320.4 
L 275.986477 320.4 
L 273.103536 320.4 
z
" clip-path="url(#pcae50e6939)" style="fill: #ff3131; fill-opacity: 0.9"/>
   </g>
   <g id="patch_75">
    <path d="M 275.986477 320.4 
L 278.869419 320.4 
L 278.869419 320.010044 
L 275.986477 320.010044 
z
" clip-path="url(#pcae50e6939)" style="fill: #ff3131; fill-opacity: 0.9"/>
   </g>
   <g id="patch_76">
    <path d="M 278.869419 320.4 
L 281.75236 320.4 
L 281.75236 320.4 
L 278.869419 320.4 
z
" clip-path="url(#pcae50e6939)" style="fill: #ff3131; fill-opacity: 0.9"/>
   </g>
   <g id="patch_77">
    <path d="M 281.75236 320.4 
L 284.635301 320.4 
L 284.635301 320.010044 
L 281.75236 320.010044 
z
" clip-path="url(#pcae50e6939)" style="fill: #ff3131; fill-opacity: 0.9"/>
   </g>
   <g id="patch_78">
    <path d="M 284.635301 320.4 
L 287.518242 320.4 
L 287.518242 320.4 
L 284.635301 320.4 
z
" clip-path="url(#pcae50e6939)" style="fill: #ff3131; fill-opacity: 0.9"/>
   </g>
   <g id="patch_79">
    <path d="M 287.518242 320.4 
L 290.401184 320.4 
L 290.401184 320.4 
L 287.518242 320.4 
z
" clip-path="url(#pcae50e6939)" style="fill: #ff3131; fill-opacity: 0.9"/>
   </g>
   <g id="patch_80">
    <path d="M 290.401184 320.4 
L 293.284125 320.4 
L 293.284125 320.010044 
L 290.401184 320.010044 
z
" clip-path="url(#pcae50e6939)" style="fill: #ff3131; fill-opacity: 0.9"/>
   </g>
   <g id="patch_81">
    <path d="M 293.284125 320.4 
L 296.167066 320.4 
L 296.167066 320.4 
L 293.284125 320.4 
z
" clip-path="url(#pcae50e6939)" style="fill: #ff3131; fill-opacity: 0.9"/>
   </g>
   <g id="patch_82">
    <path d="M 296.167066 320.4 
L 299.050008 320.4 
L 299.050008 320.4 
L 296.167066 320.4 
z
" clip-path="url(#pcae50e6939)" style="fill: #ff3131; fill-opacity: 0.9"/>
   </g>
   <g id="patch_83">
    <path d="M 299.050008 320.4 
L 301.932949 320.4 
L 301.932949 320.010044 
L 299.050008 320.010044 
z
" clip-path="url(#pcae50e6939)" style="fill: #ff3131; fill-opacity: 0.9"/>
   </g>
   <g id="patch_84">
    <path d="M 301.932949 320.4 
L 304.81589 320.4 
L 304.81589 320.4 
L 301.932949 320.4 
z
" clip-path="url(#pcae50e6939)" style="fill: #ff3131; fill-opacity: 0.9"/>
   </g>
   <g id="patch_85">
    <path d="M 304.81589 320.4 
L 307.698831 320.4 
L 307.698831 320.4 
L 304.81589 320.4 
z
" clip-path="url(#pcae50e6939)" style="fill: #ff3131; fill-opacity: 0.9"/>
   </g>
   <g id="patch_86">
    <path d="M 307.698831 320.4 
L 310.581773 320.4 
L 310.581773 320.4 
L 307.698831 320.4 
z
" clip-path="url(#pcae50e6939)" style="fill: #ff3131; fill-opacity: 0.9"/>
   </g>
   <g id="patch_87">
    <path d="M 310.581773 320.4 
L 313.464714 320.4 
L 313.464714 320.4 
L 310.581773 320.4 
z
" clip-path="url(#pcae50e6939)" style="fill: #ff3131; fill-opacity: 0.9"/>
   </g>
   <g id="patch_88">
    <path d="M 313.464714 320.4 
L 316.347655 320.4 
L 316.347655 320.4 
L 313.464714 320.4 
z
" clip-path="url(#pcae50e6939)" style="fill: #ff3131; fill-opacity: 0.9"/>
   </g>
   <g id="patch_89">
    <path d="M 316.347655 320.4 
L 319.230596 320.4 
L 319.230596 320.010044 
L 316.347655 320.010044 
z
" clip-path="url(#pcae50e6939)" style="fill: #ff3131; fill-opacity: 0.9"/>
   </g>
   <g id="patch_90">
    <path d="M 319.230596 320.4 
L 322.113538 320.4 
L 322.113538 320.4 
L 319.230596 320.4 
z
" clip-path="url(#pcae50e6939)" style="fill: #ff3131; fill-opacity: 0.9"/>
   </g>
   <g id="patch_91">
    <path d="M 322.113538 320.4 
L 324.996479 320.4 
L 324.996479 320.4 
L 322.113538 320.4 
z
" clip-path="url(#pcae50e6939)" style="fill: #ff3131; fill-opacity: 0.9"/>
   </g>
   <g id="patch_92">
    <path d="M 324.996479 320.4 
L 327.87942 320.4 
L 327.87942 320.4 
L 324.996479 320.4 
z
" clip-path="url(#pcae50e6939)" style="fill: #ff3131; fill-opacity: 0.9"/>
   </g>
   <g id="patch_93">
    <path d="M 327.87942 320.4 
L 330.762361 320.4 
L 330.762361 320.4 
L 327.87942 320.4 
z
" clip-path="url(#pcae50e6939)" style="fill: #ff3131; fill-opacity: 0.9"/>
   </g>
   <g id="patch_94">
    <path d="M 330.762361 320.4 
L 333.645303 320.4 
L 333.645303 320.4 
L 330.762361 320.4 
z
" clip-path="url(#pcae50e6939)" style="fill: #ff3131; fill-opacity: 0.9"/>
   </g>
   <g id="patch_95">
    <path d="M 333.645303 320.4 
L 336.528244 320.4 
L 336.528244 320.4 
L 333.645303 320.4 
z
" clip-path="url(#pcae50e6939)" style="fill: #ff3131; fill-opacity: 0.9"/>
   </g>
   <g id="patch_96">
    <path d="M 336.528244 320.4 
L 339.411185 320.4 
L 339.411185 319.620089 
L 336.528244 319.620089 
z
" clip-path="url(#pcae50e6939)" style="fill: #ff3131; fill-opacity: 0.9"/>
   </g>
   <g id="patch_97">
    <path d="M 339.411185 320.4 
L 342.294126 320.4 
L 342.294126 320.4 
L 339.411185 320.4 
z
" clip-path="url(#pcae50e6939)" style="fill: #ff3131; fill-opacity: 0.9"/>
   </g>
   <g id="patch_98">
    <path d="M 342.294126 320.4 
L 345.177068 320.4 
L 345.177068 320.4 
L 342.294126 320.4 
z
" clip-path="url(#pcae50e6939)" style="fill: #ff3131; fill-opacity: 0.9"/>
   </g>
   <g id="patch_99">
    <path d="M 345.177068 320.4 
L 348.060009 320.4 
L 348.060009 320.4 
L 345.177068 320.4 
z
" clip-path="url(#pcae50e6939)" style="fill: #ff3131; fill-opacity: 0.9"/>
   </g>
   <g id="patch_100">
    <path d="M 348.060009 320.4 
L 350.94295 320.4 
L 350.94295 320.4 
L 348.060009 320.4 
z
" clip-path="url(#pcae50e6939)" style="fill: #ff3131; fill-opacity: 0.9"/>
   </g>
   <g id="patch_101">
    <path d="M 350.94295 320.4 
L 353.825892 320.4 
L 353.825892 320.4 
L 350.94295 320.4 
z
" clip-path="url(#pcae50e6939)" style="fill: #ff3131; fill-opacity: 0.9"/>
   </g>
   <g id="patch_102">
    <path d="M 353.825892 320.4 
L 356.708833 320.4 
L 356.708833 320.010044 
L 353.825892 320.010044 
z
" clip-path="url(#pcae50e6939)" style="fill: #ff3131; fill-opacity: 0.9"/>
   </g>
   <g id="matplotlib.axis_1">
    <g id="xtick_1">
     <g id="line2d_1">
      <defs>
       <path id="m17c32777b3" d="M 0 0 
L 0 3.5 
" style="stroke: #000000; stroke-width: 0.8"/>
      </defs>
      <g>
       <use xlink:href="#m17c32777b3" x="68.412415" y="320.4" style="stroke: #000000; stroke-width: 0.8"/>
      </g>
     </g>
     <g id="text_1">
      <!-- 0.75 -->
      <g transform="translate(56.162415 337.12125) scale(0.14 -0.14)">
       <defs>
        <path id="TimesNewRomanPSMT-30" d="M 231 2094 
Q 231 2819 450 3342 
Q 669 3866 1031 4122 
Q 1313 4325 1613 4325 
Q 2100 4325 2488 3828 
Q 2972 3213 2972 2159 
Q 2972 1422 2759 906 
Q 2547 391 2217 158 
Q 1888 -75 1581 -75 
Q 975 -75 572 641 
Q 231 1244 231 2094 
z
M 844 2016 
Q 844 1141 1059 588 
Q 1238 122 1591 122 
Q 1759 122 1940 273 
Q 2122 425 2216 781 
Q 2359 1319 2359 2297 
Q 2359 3022 2209 3506 
Q 2097 3866 1919 4016 
Q 1791 4119 1609 4119 
Q 1397 4119 1231 3928 
Q 1006 3669 925 3112 
Q 844 2556 844 2016 
z
" transform="scale(0.015625)"/>
        <path id="TimesNewRomanPSMT-2e" d="M 800 606 
Q 947 606 1047 504 
Q 1147 403 1147 259 
Q 1147 116 1045 14 
Q 944 -88 800 -88 
Q 656 -88 554 14 
Q 453 116 453 259 
Q 453 406 554 506 
Q 656 606 800 606 
z
" transform="scale(0.015625)"/>
        <path id="TimesNewRomanPSMT-37" d="M 644 4238 
L 2916 4238 
L 2916 4119 
L 1503 -88 
L 1153 -88 
L 2419 3728 
L 1253 3728 
Q 900 3728 750 3644 
Q 488 3500 328 3200 
L 238 3234 
L 644 4238 
z
" transform="scale(0.015625)"/>
        <path id="TimesNewRomanPSMT-35" d="M 2778 4238 
L 2534 3706 
L 1259 3706 
L 981 3138 
Q 1809 3016 2294 2522 
Q 2709 2097 2709 1522 
Q 2709 1188 2573 903 
Q 2438 619 2231 419 
Q 2025 219 1772 97 
Q 1413 -75 1034 -75 
Q 653 -75 479 54 
Q 306 184 306 341 
Q 306 428 378 495 
Q 450 563 559 563 
Q 641 563 702 538 
Q 763 513 909 409 
Q 1144 247 1384 247 
Q 1750 247 2026 523 
Q 2303 800 2303 1197 
Q 2303 1581 2056 1914 
Q 1809 2247 1375 2428 
Q 1034 2569 447 2591 
L 1259 4238 
L 2778 4238 
z
" transform="scale(0.015625)"/>
       </defs>
       <use xlink:href="#TimesNewRomanPSMT-30"/>
       <use xlink:href="#TimesNewRomanPSMT-2e" x="50"/>
       <use xlink:href="#TimesNewRomanPSMT-37" x="75"/>
       <use xlink:href="#TimesNewRomanPSMT-35" x="125"/>
      </g>
     </g>
    </g>
    <g id="xtick_2">
     <g id="line2d_2">
      <g>
       <use xlink:href="#m17c32777b3" x="148.509311" y="320.4" style="stroke: #000000; stroke-width: 0.8"/>
      </g>
     </g>
     <g id="text_2">
      <!-- 0.80 -->
      <g transform="translate(136.259311 337.12125) scale(0.14 -0.14)">
       <defs>
        <path id="TimesNewRomanPSMT-38" d="M 1228 2134 
Q 725 2547 579 2797 
Q 434 3047 434 3316 
Q 434 3728 753 4026 
Q 1072 4325 1600 4325 
Q 2113 4325 2425 4047 
Q 2738 3769 2738 3413 
Q 2738 3175 2569 2928 
Q 2400 2681 1866 2347 
Q 2416 1922 2594 1678 
Q 2831 1359 2831 1006 
Q 2831 559 2490 242 
Q 2150 -75 1597 -75 
Q 994 -75 656 303 
Q 388 606 388 966 
Q 388 1247 577 1523 
Q 766 1800 1228 2134 
z
M 1719 2469 
Q 2094 2806 2194 3001 
Q 2294 3197 2294 3444 
Q 2294 3772 2109 3958 
Q 1925 4144 1606 4144 
Q 1288 4144 1088 3959 
Q 888 3775 888 3528 
Q 888 3366 970 3203 
Q 1053 3041 1206 2894 
L 1719 2469 
z
M 1375 2016 
Q 1116 1797 991 1539 
Q 866 1281 866 981 
Q 866 578 1086 336 
Q 1306 94 1647 94 
Q 1984 94 2187 284 
Q 2391 475 2391 747 
Q 2391 972 2272 1150 
Q 2050 1481 1375 2016 
z
" transform="scale(0.015625)"/>
       </defs>
       <use xlink:href="#TimesNewRomanPSMT-30"/>
       <use xlink:href="#TimesNewRomanPSMT-2e" x="50"/>
       <use xlink:href="#TimesNewRomanPSMT-38" x="75"/>
       <use xlink:href="#TimesNewRomanPSMT-30" x="125"/>
      </g>
     </g>
    </g>
    <g id="xtick_3">
     <g id="line2d_3">
      <g>
       <use xlink:href="#m17c32777b3" x="228.606207" y="320.4" style="stroke: #000000; stroke-width: 0.8"/>
      </g>
     </g>
     <g id="text_3">
      <!-- 0.85 -->
      <g transform="translate(216.356207 337.12125) scale(0.14 -0.14)">
       <use xlink:href="#TimesNewRomanPSMT-30"/>
       <use xlink:href="#TimesNewRomanPSMT-2e" x="50"/>
       <use xlink:href="#TimesNewRomanPSMT-38" x="75"/>
       <use xlink:href="#TimesNewRomanPSMT-35" x="125"/>
      </g>
     </g>
    </g>
    <g id="xtick_4">
     <g id="line2d_4">
      <g>
       <use xlink:href="#m17c32777b3" x="308.703104" y="320.4" style="stroke: #000000; stroke-width: 0.8"/>
      </g>
     </g>
     <g id="text_4">
      <!-- 0.90 -->
      <g transform="translate(296.453104 337.12125) scale(0.14 -0.14)">
       <defs>
        <path id="TimesNewRomanPSMT-39" d="M 338 -88 
L 338 28 
Q 744 34 1094 217 
Q 1444 400 1770 856 
Q 2097 1313 2225 1859 
Q 1734 1544 1338 1544 
Q 891 1544 572 1889 
Q 253 2234 253 2806 
Q 253 3363 572 3797 
Q 956 4325 1575 4325 
Q 2097 4325 2469 3894 
Q 2925 3359 2925 2575 
Q 2925 1869 2578 1258 
Q 2231 647 1613 244 
Q 1109 -88 516 -88 
L 338 -88 
z
M 2275 2091 
Q 2331 2497 2331 2741 
Q 2331 3044 2228 3395 
Q 2125 3747 1936 3934 
Q 1747 4122 1506 4122 
Q 1228 4122 1018 3872 
Q 809 3622 809 3128 
Q 809 2469 1088 2097 
Q 1291 1828 1588 1828 
Q 1731 1828 1928 1897 
Q 2125 1966 2275 2091 
z
" transform="scale(0.015625)"/>
       </defs>
       <use xlink:href="#TimesNewRomanPSMT-30"/>
       <use xlink:href="#TimesNewRomanPSMT-2e" x="50"/>
       <use xlink:href="#TimesNewRomanPSMT-39" x="75"/>
       <use xlink:href="#TimesNewRomanPSMT-30" x="125"/>
      </g>
     </g>
    </g>
    <g id="xtick_5">
     <g id="line2d_5">
      <g>
       <use xlink:href="#m17c32777b3" x="388.8" y="320.4" style="stroke: #000000; stroke-width: 0.8"/>
      </g>
     </g>
     <g id="text_5">
      <!-- 0.95 -->
      <g transform="translate(376.55 337.12125) scale(0.14 -0.14)">
       <use xlink:href="#TimesNewRomanPSMT-30"/>
       <use xlink:href="#TimesNewRomanPSMT-2e" x="50"/>
       <use xlink:href="#TimesNewRomanPSMT-39" x="75"/>
       <use xlink:href="#TimesNewRomanPSMT-35" x="125"/>
      </g>
     </g>
    </g>
    <g id="text_6">
     <!-- Similarity scores -->
     <g transform="translate(167.4075 355.225937) scale(0.16 -0.16)">
      <defs>
       <path id="TimesNewRomanPSMT-53" d="M 2934 4334 
L 2934 2869 
L 2819 2869 
Q 2763 3291 2617 3541 
Q 2472 3791 2203 3937 
Q 1934 4084 1647 4084 
Q 1322 4084 1109 3886 
Q 897 3688 897 3434 
Q 897 3241 1031 3081 
Q 1225 2847 1953 2456 
Q 2547 2138 2764 1967 
Q 2981 1797 3098 1565 
Q 3216 1334 3216 1081 
Q 3216 600 2842 251 
Q 2469 -97 1881 -97 
Q 1697 -97 1534 -69 
Q 1438 -53 1133 45 
Q 828 144 747 144 
Q 669 144 623 97 
Q 578 50 556 -97 
L 441 -97 
L 441 1356 
L 556 1356 
Q 638 900 775 673 
Q 913 447 1195 297 
Q 1478 147 1816 147 
Q 2206 147 2432 353 
Q 2659 559 2659 841 
Q 2659 997 2573 1156 
Q 2488 1316 2306 1453 
Q 2184 1547 1640 1851 
Q 1097 2156 867 2337 
Q 638 2519 519 2737 
Q 400 2956 400 3219 
Q 400 3675 750 4004 
Q 1100 4334 1641 4334 
Q 1978 4334 2356 4169 
Q 2531 4091 2603 4091 
Q 2684 4091 2736 4139 
Q 2788 4188 2819 4334 
L 2934 4334 
z
" transform="scale(0.015625)"/>
       <path id="TimesNewRomanPSMT-69" d="M 928 4444 
Q 1059 4444 1151 4351 
Q 1244 4259 1244 4128 
Q 1244 3997 1151 3903 
Q 1059 3809 928 3809 
Q 797 3809 703 3903 
Q 609 3997 609 4128 
Q 609 4259 701 4351 
Q 794 4444 928 4444 
z
M 1188 2947 
L 1188 647 
Q 1188 378 1227 289 
Q 1266 200 1342 156 
Q 1419 113 1622 113 
L 1622 0 
L 231 0 
L 231 113 
Q 441 113 512 153 
Q 584 194 626 287 
Q 669 381 669 647 
L 669 1750 
Q 669 2216 641 2353 
Q 619 2453 572 2492 
Q 525 2531 444 2531 
Q 356 2531 231 2484 
L 188 2597 
L 1050 2947 
L 1188 2947 
z
" transform="scale(0.015625)"/>
       <path id="TimesNewRomanPSMT-6d" d="M 1050 2338 
Q 1363 2650 1419 2697 
Q 1559 2816 1721 2881 
Q 1884 2947 2044 2947 
Q 2313 2947 2506 2790 
Q 2700 2634 2766 2338 
Q 3088 2713 3309 2830 
Q 3531 2947 3766 2947 
Q 3994 2947 4170 2830 
Q 4347 2713 4450 2447 
Q 4519 2266 4519 1878 
L 4519 647 
Q 4519 378 4559 278 
Q 4591 209 4675 161 
Q 4759 113 4950 113 
L 4950 0 
L 3538 0 
L 3538 113 
L 3597 113 
Q 3781 113 3884 184 
Q 3956 234 3988 344 
Q 4000 397 4000 647 
L 4000 1878 
Q 4000 2228 3916 2372 
Q 3794 2572 3525 2572 
Q 3359 2572 3192 2489 
Q 3025 2406 2788 2181 
L 2781 2147 
L 2788 2013 
L 2788 647 
Q 2788 353 2820 281 
Q 2853 209 2943 161 
Q 3034 113 3253 113 
L 3253 0 
L 1806 0 
L 1806 113 
Q 2044 113 2133 169 
Q 2222 225 2256 338 
Q 2272 391 2272 647 
L 2272 1878 
Q 2272 2228 2169 2381 
Q 2031 2581 1784 2581 
Q 1616 2581 1450 2491 
Q 1191 2353 1050 2181 
L 1050 647 
Q 1050 366 1089 281 
Q 1128 197 1204 155 
Q 1281 113 1516 113 
L 1516 0 
L 100 0 
L 100 113 
Q 297 113 375 155 
Q 453 197 493 289 
Q 534 381 534 647 
L 534 1741 
Q 534 2213 506 2350 
Q 484 2453 437 2492 
Q 391 2531 309 2531 
Q 222 2531 100 2484 
L 53 2597 
L 916 2947 
L 1050 2947 
L 1050 2338 
z
" transform="scale(0.015625)"/>
       <path id="TimesNewRomanPSMT-6c" d="M 1184 4444 
L 1184 647 
Q 1184 378 1223 290 
Q 1263 203 1344 158 
Q 1425 113 1647 113 
L 1647 0 
L 244 0 
L 244 113 
Q 441 113 512 153 
Q 584 194 625 287 
Q 666 381 666 647 
L 666 3247 
Q 666 3731 644 3842 
Q 622 3953 573 3993 
Q 525 4034 450 4034 
Q 369 4034 244 3984 
L 191 4094 
L 1044 4444 
L 1184 4444 
z
" transform="scale(0.015625)"/>
       <path id="TimesNewRomanPSMT-61" d="M 1822 413 
Q 1381 72 1269 19 
Q 1100 -59 909 -59 
Q 613 -59 420 144 
Q 228 347 228 678 
Q 228 888 322 1041 
Q 450 1253 767 1440 
Q 1084 1628 1822 1897 
L 1822 2009 
Q 1822 2438 1686 2597 
Q 1550 2756 1291 2756 
Q 1094 2756 978 2650 
Q 859 2544 859 2406 
L 866 2225 
Q 866 2081 792 2003 
Q 719 1925 600 1925 
Q 484 1925 411 2006 
Q 338 2088 338 2228 
Q 338 2497 613 2722 
Q 888 2947 1384 2947 
Q 1766 2947 2009 2819 
Q 2194 2722 2281 2516 
Q 2338 2381 2338 1966 
L 2338 994 
Q 2338 584 2353 492 
Q 2369 400 2405 369 
Q 2441 338 2488 338 
Q 2538 338 2575 359 
Q 2641 400 2828 588 
L 2828 413 
Q 2478 -56 2159 -56 
Q 2006 -56 1915 50 
Q 1825 156 1822 413 
z
M 1822 616 
L 1822 1706 
Q 1350 1519 1213 1441 
Q 966 1303 859 1153 
Q 753 1003 753 825 
Q 753 600 887 451 
Q 1022 303 1197 303 
Q 1434 303 1822 616 
z
" transform="scale(0.015625)"/>
       <path id="TimesNewRomanPSMT-72" d="M 1038 2947 
L 1038 2303 
Q 1397 2947 1775 2947 
Q 1947 2947 2059 2842 
Q 2172 2738 2172 2600 
Q 2172 2478 2090 2393 
Q 2009 2309 1897 2309 
Q 1788 2309 1652 2417 
Q 1516 2525 1450 2525 
Q 1394 2525 1328 2463 
Q 1188 2334 1038 2041 
L 1038 669 
Q 1038 431 1097 309 
Q 1138 225 1241 169 
Q 1344 113 1538 113 
L 1538 0 
L 72 0 
L 72 113 
Q 291 113 397 181 
Q 475 231 506 341 
Q 522 394 522 644 
L 522 1753 
Q 522 2253 501 2348 
Q 481 2444 426 2487 
Q 372 2531 291 2531 
Q 194 2531 72 2484 
L 41 2597 
L 906 2947 
L 1038 2947 
z
" transform="scale(0.015625)"/>
       <path id="TimesNewRomanPSMT-74" d="M 1031 3803 
L 1031 2863 
L 1700 2863 
L 1700 2644 
L 1031 2644 
L 1031 788 
Q 1031 509 1111 412 
Q 1191 316 1316 316 
Q 1419 316 1516 380 
Q 1613 444 1666 569 
L 1788 569 
Q 1678 263 1478 108 
Q 1278 -47 1066 -47 
Q 922 -47 784 33 
Q 647 113 581 261 
Q 516 409 516 719 
L 516 2644 
L 63 2644 
L 63 2747 
Q 234 2816 414 2980 
Q 594 3144 734 3369 
Q 806 3488 934 3803 
L 1031 3803 
z
" transform="scale(0.015625)"/>
       <path id="TimesNewRomanPSMT-79" d="M 38 2863 
L 1372 2863 
L 1372 2747 
L 1306 2747 
Q 1166 2747 1095 2686 
Q 1025 2625 1025 2534 
Q 1025 2413 1128 2197 
L 1825 753 
L 2466 2334 
Q 2519 2463 2519 2588 
Q 2519 2644 2497 2672 
Q 2472 2706 2419 2726 
Q 2366 2747 2231 2747 
L 2231 2863 
L 3163 2863 
L 3163 2747 
Q 3047 2734 2984 2696 
Q 2922 2659 2847 2556 
Q 2819 2513 2741 2316 
L 1575 -541 
Q 1406 -956 1132 -1168 
Q 859 -1381 606 -1381 
Q 422 -1381 303 -1275 
Q 184 -1169 184 -1031 
Q 184 -900 270 -820 
Q 356 -741 506 -741 
Q 609 -741 788 -809 
Q 913 -856 944 -856 
Q 1038 -856 1148 -759 
Q 1259 -663 1372 -384 
L 1575 113 
L 547 2272 
Q 500 2369 397 2513 
Q 319 2622 269 2659 
Q 197 2709 38 2747 
L 38 2863 
z
" transform="scale(0.015625)"/>
       <path id="TimesNewRomanPSMT-20" transform="scale(0.015625)"/>
       <path id="TimesNewRomanPSMT-73" d="M 2050 2947 
L 2050 1972 
L 1947 1972 
Q 1828 2431 1642 2597 
Q 1456 2763 1169 2763 
Q 950 2763 815 2647 
Q 681 2531 681 2391 
Q 681 2216 781 2091 
Q 878 1963 1175 1819 
L 1631 1597 
Q 2266 1288 2266 781 
Q 2266 391 1970 151 
Q 1675 -88 1309 -88 
Q 1047 -88 709 6 
Q 606 38 541 38 
Q 469 38 428 -44 
L 325 -44 
L 325 978 
L 428 978 
Q 516 541 762 319 
Q 1009 97 1316 97 
Q 1531 97 1667 223 
Q 1803 350 1803 528 
Q 1803 744 1651 891 
Q 1500 1038 1047 1263 
Q 594 1488 453 1669 
Q 313 1847 313 2119 
Q 313 2472 555 2709 
Q 797 2947 1181 2947 
Q 1350 2947 1591 2875 
Q 1750 2828 1803 2828 
Q 1853 2828 1881 2850 
Q 1909 2872 1947 2947 
L 2050 2947 
z
" transform="scale(0.015625)"/>
       <path id="TimesNewRomanPSMT-63" d="M 2631 1088 
Q 2516 522 2178 217 
Q 1841 -88 1431 -88 
Q 944 -88 581 321 
Q 219 731 219 1428 
Q 219 2103 620 2525 
Q 1022 2947 1584 2947 
Q 2006 2947 2278 2723 
Q 2550 2500 2550 2259 
Q 2550 2141 2473 2067 
Q 2397 1994 2259 1994 
Q 2075 1994 1981 2113 
Q 1928 2178 1911 2362 
Q 1894 2547 1784 2644 
Q 1675 2738 1481 2738 
Q 1169 2738 978 2506 
Q 725 2200 725 1697 
Q 725 1184 976 792 
Q 1228 400 1656 400 
Q 1963 400 2206 609 
Q 2378 753 2541 1131 
L 2631 1088 
z
" transform="scale(0.015625)"/>
       <path id="TimesNewRomanPSMT-6f" d="M 1600 2947 
Q 2250 2947 2644 2453 
Q 2978 2031 2978 1484 
Q 2978 1100 2793 706 
Q 2609 313 2286 112 
Q 1963 -88 1566 -88 
Q 919 -88 538 428 
Q 216 863 216 1403 
Q 216 1797 411 2186 
Q 606 2575 925 2761 
Q 1244 2947 1600 2947 
z
M 1503 2744 
Q 1338 2744 1170 2645 
Q 1003 2547 900 2300 
Q 797 2053 797 1666 
Q 797 1041 1045 587 
Q 1294 134 1700 134 
Q 2003 134 2200 384 
Q 2397 634 2397 1244 
Q 2397 2006 2069 2444 
Q 1847 2744 1503 2744 
z
" transform="scale(0.015625)"/>
       <path id="TimesNewRomanPSMT-65" d="M 681 1784 
Q 678 1147 991 784 
Q 1303 422 1725 422 
Q 2006 422 2214 576 
Q 2422 731 2563 1106 
L 2659 1044 
Q 2594 616 2278 264 
Q 1963 -88 1488 -88 
Q 972 -88 605 314 
Q 238 716 238 1394 
Q 238 2128 614 2539 
Q 991 2950 1559 2950 
Q 2041 2950 2350 2633 
Q 2659 2316 2659 1784 
L 681 1784 
z
M 681 1966 
L 2006 1966 
Q 1991 2241 1941 2353 
Q 1863 2528 1708 2628 
Q 1553 2728 1384 2728 
Q 1125 2728 920 2526 
Q 716 2325 681 1966 
z
" transform="scale(0.015625)"/>
      </defs>
      <use xlink:href="#TimesNewRomanPSMT-53"/>
      <use xlink:href="#TimesNewRomanPSMT-69" x="55.615234"/>
      <use xlink:href="#TimesNewRomanPSMT-6d" x="83.398438"/>
      <use xlink:href="#TimesNewRomanPSMT-69" x="161.181641"/>
      <use xlink:href="#TimesNewRomanPSMT-6c" x="188.964844"/>
      <use xlink:href="#TimesNewRomanPSMT-61" x="216.748047"/>
      <use xlink:href="#TimesNewRomanPSMT-72" x="261.132812"/>
      <use xlink:href="#TimesNewRomanPSMT-69" x="294.433594"/>
      <use xlink:href="#TimesNewRomanPSMT-74" x="322.216797"/>
      <use xlink:href="#TimesNewRomanPSMT-79" x="350"/>
      <use xlink:href="#TimesNewRomanPSMT-20" x="400"/>
      <use xlink:href="#TimesNewRomanPSMT-73" x="425"/>
      <use xlink:href="#TimesNewRomanPSMT-63" x="463.916016"/>
      <use xlink:href="#TimesNewRomanPSMT-6f" x="508.300781"/>
      <use xlink:href="#TimesNewRomanPSMT-72" x="558.300781"/>
      <use xlink:href="#TimesNewRomanPSMT-65" x="591.601562"/>
      <use xlink:href="#TimesNewRomanPSMT-73" x="635.986328"/>
     </g>
    </g>
   </g>
   <g id="matplotlib.axis_2">
    <g id="ytick_1">
     <g id="line2d_6">
      <defs>
       <path id="m04ac0127ef" d="M 0 0 
L -3.5 0 
" style="stroke: #000000; stroke-width: 0.8"/>
      </defs>
      <g>
       <use xlink:href="#m04ac0127ef" x="54" y="320.4" style="stroke: #000000; stroke-width: 0.8"/>
      </g>
     </g>
     <g id="text_7">
      <!-- 0 -->
      <g transform="translate(40 325.260625) scale(0.14 -0.14)">
       <use xlink:href="#TimesNewRomanPSMT-30"/>
      </g>
     </g>
    </g>
    <g id="ytick_2">
     <g id="line2d_7">
      <g>
       <use xlink:href="#m04ac0127ef" x="54" y="281.404431" style="stroke: #000000; stroke-width: 0.8"/>
      </g>
     </g>
     <g id="text_8">
      <!-- 100 -->
      <g transform="translate(26 286.265056) scale(0.14 -0.14)">
       <defs>
        <path id="TimesNewRomanPSMT-31" d="M 750 3822 
L 1781 4325 
L 1884 4325 
L 1884 747 
Q 1884 391 1914 303 
Q 1944 216 2037 169 
Q 2131 122 2419 116 
L 2419 0 
L 825 0 
L 825 116 
Q 1125 122 1212 167 
Q 1300 213 1334 289 
Q 1369 366 1369 747 
L 1369 3034 
Q 1369 3497 1338 3628 
Q 1316 3728 1258 3775 
Q 1200 3822 1119 3822 
Q 1003 3822 797 3725 
L 750 3822 
z
" transform="scale(0.015625)"/>
       </defs>
       <use xlink:href="#TimesNewRomanPSMT-31"/>
       <use xlink:href="#TimesNewRomanPSMT-30" x="50"/>
       <use xlink:href="#TimesNewRomanPSMT-30" x="100"/>
      </g>
     </g>
    </g>
    <g id="ytick_3">
     <g id="line2d_8">
      <g>
       <use xlink:href="#m04ac0127ef" x="54" y="242.408863" style="stroke: #000000; stroke-width: 0.8"/>
      </g>
     </g>
     <g id="text_9">
      <!-- 200 -->
      <g transform="translate(26 247.269488) scale(0.14 -0.14)">
       <defs>
        <path id="TimesNewRomanPSMT-32" d="M 2934 816 
L 2638 0 
L 138 0 
L 138 116 
Q 1241 1122 1691 1759 
Q 2141 2397 2141 2925 
Q 2141 3328 1894 3587 
Q 1647 3847 1303 3847 
Q 991 3847 742 3664 
Q 494 3481 375 3128 
L 259 3128 
Q 338 3706 661 4015 
Q 984 4325 1469 4325 
Q 1984 4325 2329 3994 
Q 2675 3663 2675 3213 
Q 2675 2891 2525 2569 
Q 2294 2063 1775 1497 
Q 997 647 803 472 
L 1909 472 
Q 2247 472 2383 497 
Q 2519 522 2628 598 
Q 2738 675 2819 816 
L 2934 816 
z
" transform="scale(0.015625)"/>
       </defs>
       <use xlink:href="#TimesNewRomanPSMT-32"/>
       <use xlink:href="#TimesNewRomanPSMT-30" x="50"/>
       <use xlink:href="#TimesNewRomanPSMT-30" x="100"/>
      </g>
     </g>
    </g>
    <g id="ytick_4">
     <g id="line2d_9">
      <g>
       <use xlink:href="#m04ac0127ef" x="54" y="203.413294" style="stroke: #000000; stroke-width: 0.8"/>
      </g>
     </g>
     <g id="text_10">
      <!-- 300 -->
      <g transform="translate(26 208.273919) scale(0.14 -0.14)">
       <defs>
        <path id="TimesNewRomanPSMT-33" d="M 325 3431 
Q 506 3859 782 4092 
Q 1059 4325 1472 4325 
Q 1981 4325 2253 3994 
Q 2459 3747 2459 3466 
Q 2459 3003 1878 2509 
Q 2269 2356 2469 2072 
Q 2669 1788 2669 1403 
Q 2669 853 2319 450 
Q 1863 -75 997 -75 
Q 569 -75 414 31 
Q 259 138 259 259 
Q 259 350 332 419 
Q 406 488 509 488 
Q 588 488 669 463 
Q 722 447 909 348 
Q 1097 250 1169 231 
Q 1284 197 1416 197 
Q 1734 197 1970 444 
Q 2206 691 2206 1028 
Q 2206 1275 2097 1509 
Q 2016 1684 1919 1775 
Q 1784 1900 1550 2001 
Q 1316 2103 1072 2103 
L 972 2103 
L 972 2197 
Q 1219 2228 1467 2375 
Q 1716 2522 1828 2728 
Q 1941 2934 1941 3181 
Q 1941 3503 1739 3701 
Q 1538 3900 1238 3900 
Q 753 3900 428 3381 
L 325 3431 
z
" transform="scale(0.015625)"/>
       </defs>
       <use xlink:href="#TimesNewRomanPSMT-33"/>
       <use xlink:href="#TimesNewRomanPSMT-30" x="50"/>
       <use xlink:href="#TimesNewRomanPSMT-30" x="100"/>
      </g>
     </g>
    </g>
    <g id="ytick_5">
     <g id="line2d_10">
      <g>
       <use xlink:href="#m04ac0127ef" x="54" y="164.417725" style="stroke: #000000; stroke-width: 0.8"/>
      </g>
     </g>
     <g id="text_11">
      <!-- 400 -->
      <g transform="translate(26 169.27835) scale(0.14 -0.14)">
       <defs>
        <path id="TimesNewRomanPSMT-34" d="M 2978 1563 
L 2978 1119 
L 2409 1119 
L 2409 0 
L 1894 0 
L 1894 1119 
L 100 1119 
L 100 1519 
L 2066 4325 
L 2409 4325 
L 2409 1563 
L 2978 1563 
z
M 1894 1563 
L 1894 3666 
L 406 1563 
L 1894 1563 
z
" transform="scale(0.015625)"/>
       </defs>
       <use xlink:href="#TimesNewRomanPSMT-34"/>
       <use xlink:href="#TimesNewRomanPSMT-30" x="50"/>
       <use xlink:href="#TimesNewRomanPSMT-30" x="100"/>
      </g>
     </g>
    </g>
    <g id="ytick_6">
     <g id="line2d_11">
      <g>
       <use xlink:href="#m04ac0127ef" x="54" y="125.422157" style="stroke: #000000; stroke-width: 0.8"/>
      </g>
     </g>
     <g id="text_12">
      <!-- 500 -->
      <g transform="translate(26 130.282782) scale(0.14 -0.14)">
       <use xlink:href="#TimesNewRomanPSMT-35"/>
       <use xlink:href="#TimesNewRomanPSMT-30" x="50"/>
       <use xlink:href="#TimesNewRomanPSMT-30" x="100"/>
      </g>
     </g>
    </g>
    <g id="ytick_7">
     <g id="line2d_12">
      <g>
       <use xlink:href="#m04ac0127ef" x="54" y="86.426588" style="stroke: #000000; stroke-width: 0.8"/>
      </g>
     </g>
     <g id="text_13">
      <!-- 600 -->
      <g transform="translate(26 91.287213) scale(0.14 -0.14)">
       <defs>
        <path id="TimesNewRomanPSMT-36" d="M 2869 4325 
L 2869 4209 
Q 2456 4169 2195 4045 
Q 1934 3922 1679 3669 
Q 1425 3416 1258 3105 
Q 1091 2794 978 2366 
Q 1428 2675 1881 2675 
Q 2316 2675 2634 2325 
Q 2953 1975 2953 1425 
Q 2953 894 2631 456 
Q 2244 -75 1606 -75 
Q 1172 -75 869 213 
Q 275 772 275 1663 
Q 275 2231 503 2743 
Q 731 3256 1154 3653 
Q 1578 4050 1965 4187 
Q 2353 4325 2688 4325 
L 2869 4325 
z
M 925 2138 
Q 869 1716 869 1456 
Q 869 1156 980 804 
Q 1091 453 1309 247 
Q 1469 100 1697 100 
Q 1969 100 2183 356 
Q 2397 613 2397 1088 
Q 2397 1622 2184 2012 
Q 1972 2403 1581 2403 
Q 1463 2403 1327 2353 
Q 1191 2303 925 2138 
z
" transform="scale(0.015625)"/>
       </defs>
       <use xlink:href="#TimesNewRomanPSMT-36"/>
       <use xlink:href="#TimesNewRomanPSMT-30" x="50"/>
       <use xlink:href="#TimesNewRomanPSMT-30" x="100"/>
      </g>
     </g>
    </g>
    <g id="ytick_8">
     <g id="line2d_13">
      <g>
       <use xlink:href="#m04ac0127ef" x="54" y="47.431019" style="stroke: #000000; stroke-width: 0.8"/>
      </g>
     </g>
     <g id="text_14">
      <!-- 700 -->
      <g transform="translate(26 52.291644) scale(0.14 -0.14)">
       <use xlink:href="#TimesNewRomanPSMT-37"/>
       <use xlink:href="#TimesNewRomanPSMT-30" x="50"/>
       <use xlink:href="#TimesNewRomanPSMT-30" x="100"/>
      </g>
     </g>
    </g>
    <g id="text_15">
     <!-- Estonian news articles -->
     <g transform="translate(18.5775 253.3375) rotate(-90) scale(0.16 -0.16)">
      <defs>
       <path id="TimesNewRomanPSMT-45" d="M 1338 4006 
L 1338 2331 
L 2269 2331 
Q 2631 2331 2753 2441 
Q 2916 2584 2934 2947 
L 3050 2947 
L 3050 1472 
L 2934 1472 
Q 2891 1781 2847 1869 
Q 2791 1978 2662 2040 
Q 2534 2103 2269 2103 
L 1338 2103 
L 1338 706 
Q 1338 425 1363 364 
Q 1388 303 1450 267 
Q 1513 231 1688 231 
L 2406 231 
Q 2766 231 2928 281 
Q 3091 331 3241 478 
Q 3434 672 3638 1063 
L 3763 1063 
L 3397 0 
L 131 0 
L 131 116 
L 281 116 
Q 431 116 566 188 
Q 666 238 702 338 
Q 738 438 738 747 
L 738 3500 
Q 738 3903 656 3997 
Q 544 4122 281 4122 
L 131 4122 
L 131 4238 
L 3397 4238 
L 3444 3309 
L 3322 3309 
Q 3256 3644 3176 3769 
Q 3097 3894 2941 3959 
Q 2816 4006 2500 4006 
L 1338 4006 
z
" transform="scale(0.015625)"/>
       <path id="TimesNewRomanPSMT-6e" d="M 1034 2341 
Q 1538 2947 1994 2947 
Q 2228 2947 2397 2830 
Q 2566 2713 2666 2444 
Q 2734 2256 2734 1869 
L 2734 647 
Q 2734 375 2778 278 
Q 2813 200 2889 156 
Q 2966 113 3172 113 
L 3172 0 
L 1756 0 
L 1756 113 
L 1816 113 
Q 2016 113 2095 173 
Q 2175 234 2206 353 
Q 2219 400 2219 647 
L 2219 1819 
Q 2219 2209 2117 2386 
Q 2016 2563 1775 2563 
Q 1403 2563 1034 2156 
L 1034 647 
Q 1034 356 1069 288 
Q 1113 197 1189 155 
Q 1266 113 1500 113 
L 1500 0 
L 84 0 
L 84 113 
L 147 113 
Q 366 113 442 223 
Q 519 334 519 647 
L 519 1709 
Q 519 2225 495 2337 
Q 472 2450 423 2490 
Q 375 2531 294 2531 
Q 206 2531 84 2484 
L 38 2597 
L 900 2947 
L 1034 2947 
L 1034 2341 
z
" transform="scale(0.015625)"/>
       <path id="TimesNewRomanPSMT-77" d="M 41 2863 
L 1241 2863 
L 1241 2747 
Q 1075 2734 1023 2687 
Q 972 2641 972 2553 
Q 972 2456 1025 2319 
L 1638 672 
L 2253 2013 
L 2091 2434 
Q 2016 2622 1894 2694 
Q 1825 2738 1638 2747 
L 1638 2863 
L 3000 2863 
L 3000 2747 
Q 2775 2738 2681 2666 
Q 2619 2616 2619 2506 
Q 2619 2444 2644 2378 
L 3294 734 
L 3897 2319 
Q 3959 2488 3959 2588 
Q 3959 2647 3898 2694 
Q 3838 2741 3659 2747 
L 3659 2863 
L 4563 2863 
L 4563 2747 
Q 4291 2706 4163 2378 
L 3206 -88 
L 3078 -88 
L 2363 1741 
L 1528 -88 
L 1413 -88 
L 494 2319 
Q 403 2547 315 2626 
Q 228 2706 41 2747 
L 41 2863 
z
" transform="scale(0.015625)"/>
      </defs>
      <use xlink:href="#TimesNewRomanPSMT-45"/>
      <use xlink:href="#TimesNewRomanPSMT-73" x="61.083984"/>
      <use xlink:href="#TimesNewRomanPSMT-74" x="100"/>
      <use xlink:href="#TimesNewRomanPSMT-6f" x="127.783203"/>
      <use xlink:href="#TimesNewRomanPSMT-6e" x="177.783203"/>
      <use xlink:href="#TimesNewRomanPSMT-69" x="227.783203"/>
      <use xlink:href="#TimesNewRomanPSMT-61" x="255.566406"/>
      <use xlink:href="#TimesNewRomanPSMT-6e" x="299.951172"/>
      <use xlink:href="#TimesNewRomanPSMT-20" x="349.951172"/>
      <use xlink:href="#TimesNewRomanPSMT-6e" x="374.951172"/>
      <use xlink:href="#TimesNewRomanPSMT-65" x="424.951172"/>
      <use xlink:href="#TimesNewRomanPSMT-77" x="469.335938"/>
      <use xlink:href="#TimesNewRomanPSMT-73" x="541.552734"/>
      <use xlink:href="#TimesNewRomanPSMT-20" x="580.46875"/>
      <use xlink:href="#TimesNewRomanPSMT-61" x="605.46875"/>
      <use xlink:href="#TimesNewRomanPSMT-72" x="649.853516"/>
      <use xlink:href="#TimesNewRomanPSMT-74" x="683.154297"/>
      <use xlink:href="#TimesNewRomanPSMT-69" x="710.9375"/>
      <use xlink:href="#TimesNewRomanPSMT-63" x="738.720703"/>
      <use xlink:href="#TimesNewRomanPSMT-6c" x="783.105469"/>
      <use xlink:href="#TimesNewRomanPSMT-65" x="810.888672"/>
      <use xlink:href="#TimesNewRomanPSMT-73" x="855.273438"/>
     </g>
    </g>
   </g>
   <g id="patch_103">
    <path d="M 54 320.4 
L 54 43.2 
" style="fill: none; stroke: #000000; stroke-width: 0.8; stroke-linejoin: miter; stroke-linecap: square"/>
   </g>
   <g id="patch_104">
    <path d="M 54 320.4 
L 388.8 320.4 
" style="fill: none; stroke: #000000; stroke-width: 0.8; stroke-linejoin: miter; stroke-linecap: square"/>
   </g>
  </g>
 </g>
 <defs>
  <clipPath id="pcae50e6939">
   <rect x="54" y="43.2" width="334.8" height="277.2"/>
  </clipPath>
 </defs>
</svg>
