<?xml version="1.0" encoding="utf-8" standalone="no"?>
<!DOCTYPE svg PUBLIC "-//W3C//DTD SVG 1.1//EN"
  "http://www.w3.org/Graphics/SVG/1.1/DTD/svg11.dtd">
<svg xmlns:xlink="http://www.w3.org/1999/xlink" width="432pt" height="360pt" viewBox="0 0 432 360" xmlns="http://www.w3.org/2000/svg" version="1.1">
 <metadata>
  <rdf:RDF xmlns:dc="http://purl.org/dc/elements/1.1/" xmlns:cc="http://creativecommons.org/ns#" xmlns:rdf="http://www.w3.org/1999/02/22-rdf-syntax-ns#">
   <cc:Work>
    <dc:type rdf:resource="http://purl.org/dc/dcmitype/StillImage"/>
    <dc:date>2025-01-19T09:47:05.717891</dc:date>
    <dc:format>image/svg+xml</dc:format>
    <dc:creator>
     <cc:Agent>
      <dc:title>Matplotlib v3.8.2, https://matplotlib.org/</dc:title>
     </cc:Agent>
    </dc:creator>
   </cc:Work>
  </rdf:RDF>
 </metadata>
 <defs>
  <style type="text/css">*{stroke-linejoin: round; stroke-linecap: butt}</style>
 </defs>
 <g id="figure_1">
  <g id="patch_1">
   <path d="M 0 360 
L 432 360 
L 432 0 
L 0 0 
z
" style="fill: #ffffff"/>
  </g>
  <g id="axes_1">
   <g id="patch_2">
    <path d="M 54 320.4 
L 388.8 320.4 
L 388.8 43.2 
L 54 43.2 
z
" style="fill: #ffffff"/>
   </g>
   <g id="patch_3">
    <path d="M 57.2643 320.4 
L 60.95254 320.4 
L 60.95254 243.4 
L 57.2643 243.4 
z
" clip-path="url(#pe2aed2831e)" style="fill: #284f8c"/>
   </g>
   <g id="patch_4">
    <path d="M 60.95254 320.4 
L 64.640781 320.4 
L 64.640781 243.4 
L 60.95254 243.4 
z
" clip-path="url(#pe2aed2831e)" style="fill: #284f8c"/>
   </g>
   <g id="patch_5">
    <path d="M 64.640781 320.4 
L 68.329022 320.4 
L 68.329022 144.4 
L 64.640781 144.4 
z
" clip-path="url(#pe2aed2831e)" style="fill: #284f8c"/>
   </g>
   <g id="patch_6">
    <path d="M 68.329021 320.4 
L 72.017262 320.4 
L 72.017262 144.4 
L 68.329021 144.4 
z
" clip-path="url(#pe2aed2831e)" style="fill: #284f8c"/>
   </g>
   <g id="patch_7">
    <path d="M 72.017262 320.4 
L 75.705503 320.4 
L 75.705503 78.4 
L 72.017262 78.4 
z
" clip-path="url(#pe2aed2831e)" style="fill: #284f8c"/>
   </g>
   <g id="patch_8">
    <path d="M 75.705502 320.4 
L 79.393743 320.4 
L 79.393743 56.4 
L 75.705502 56.4 
z
" clip-path="url(#pe2aed2831e)" style="fill: #284f8c"/>
   </g>
   <g id="patch_9">
    <path d="M 79.393743 320.4 
L 83.081984 320.4 
L 83.081984 111.4 
L 79.393743 111.4 
z
" clip-path="url(#pe2aed2831e)" style="fill: #284f8c"/>
   </g>
   <g id="patch_10">
    <path d="M 83.081983 320.4 
L 86.770224 320.4 
L 86.770224 177.4 
L 83.081983 177.4 
z
" clip-path="url(#pe2aed2831e)" style="fill: #284f8c"/>
   </g>
   <g id="patch_11">
    <path d="M 86.770224 320.4 
L 90.458465 320.4 
L 90.458465 221.4 
L 86.770224 221.4 
z
" clip-path="url(#pe2aed2831e)" style="fill: #284f8c"/>
   </g>
   <g id="patch_12">
    <path d="M 90.458464 320.4 
L 94.146705 320.4 
L 94.146705 265.4 
L 90.458464 265.4 
z
" clip-path="url(#pe2aed2831e)" style="fill: #284f8c"/>
   </g>
   <g id="patch_13">
    <path d="M 94.146705 320.4 
L 97.834945 320.4 
L 97.834945 232.4 
L 94.146705 232.4 
z
" clip-path="url(#pe2aed2831e)" style="fill: #284f8c"/>
   </g>
   <g id="patch_14">
    <path d="M 97.834946 320.4 
L 101.523186 320.4 
L 101.523186 254.4 
L 97.834946 254.4 
z
" clip-path="url(#pe2aed2831e)" style="fill: #284f8c"/>
   </g>
   <g id="patch_15">
    <path d="M 101.523186 320.4 
L 105.211427 320.4 
L 105.211427 298.4 
L 101.523186 298.4 
z
" clip-path="url(#pe2aed2831e)" style="fill: #284f8c"/>
   </g>
   <g id="patch_16">
    <path d="M 105.211427 320.4 
L 108.899667 320.4 
L 108.899667 254.4 
L 105.211427 254.4 
z
" clip-path="url(#pe2aed2831e)" style="fill: #284f8c"/>
   </g>
   <g id="patch_17">
    <path d="M 108.899667 320.4 
L 112.587907 320.4 
L 112.587907 243.4 
L 108.899667 243.4 
z
" clip-path="url(#pe2aed2831e)" style="fill: #284f8c"/>
   </g>
   <g id="patch_18">
    <path d="M 112.587908 320.4 
L 116.276148 320.4 
L 116.276148 287.4 
L 112.587908 287.4 
z
" clip-path="url(#pe2aed2831e)" style="fill: #284f8c"/>
   </g>
   <g id="patch_19">
    <path d="M 116.276148 320.4 
L 119.964389 320.4 
L 119.964389 243.4 
L 116.276148 243.4 
z
" clip-path="url(#pe2aed2831e)" style="fill: #284f8c"/>
   </g>
   <g id="patch_20">
    <path d="M 119.964389 320.4 
L 123.652629 320.4 
L 123.652629 243.4 
L 119.964389 243.4 
z
" clip-path="url(#pe2aed2831e)" style="fill: #284f8c"/>
   </g>
   <g id="patch_21">
    <path d="M 123.652629 320.4 
L 127.340869 320.4 
L 127.340869 276.4 
L 123.652629 276.4 
z
" clip-path="url(#pe2aed2831e)" style="fill: #284f8c"/>
   </g>
   <g id="patch_22">
    <path d="M 127.340869 320.4 
L 131.02911 320.4 
L 131.02911 254.4 
L 127.340869 254.4 
z
" clip-path="url(#pe2aed2831e)" style="fill: #284f8c"/>
   </g>
   <g id="patch_23">
    <path d="M 131.02911 320.4 
L 134.717351 320.4 
L 134.717351 287.4 
L 131.02911 287.4 
z
" clip-path="url(#pe2aed2831e)" style="fill: #284f8c"/>
   </g>
   <g id="patch_24">
    <path d="M 134.717351 320.4 
L 138.405591 320.4 
L 138.405591 276.4 
L 134.717351 276.4 
z
" clip-path="url(#pe2aed2831e)" style="fill: #284f8c"/>
   </g>
   <g id="patch_25">
    <path d="M 138.405591 320.4 
L 142.093832 320.4 
L 142.093832 254.4 
L 138.405591 254.4 
z
" clip-path="url(#pe2aed2831e)" style="fill: #284f8c"/>
   </g>
   <g id="patch_26">
    <path d="M 142.093832 320.4 
L 145.782072 320.4 
L 145.782072 298.4 
L 142.093832 298.4 
z
" clip-path="url(#pe2aed2831e)" style="fill: #284f8c"/>
   </g>
   <g id="patch_27">
    <path d="M 145.782072 320.4 
L 149.470313 320.4 
L 149.470313 287.4 
L 145.782072 287.4 
z
" clip-path="url(#pe2aed2831e)" style="fill: #284f8c"/>
   </g>
   <g id="patch_28">
    <path d="M 149.470313 320.4 
L 153.158553 320.4 
L 153.158553 276.4 
L 149.470313 276.4 
z
" clip-path="url(#pe2aed2831e)" style="fill: #284f8c"/>
   </g>
   <g id="patch_29">
    <path d="M 153.158553 320.4 
L 156.846793 320.4 
L 156.846793 254.4 
L 153.158553 254.4 
z
" clip-path="url(#pe2aed2831e)" style="fill: #284f8c"/>
   </g>
   <g id="patch_30">
    <path d="M 156.846793 320.4 
L 160.535034 320.4 
L 160.535034 287.4 
L 156.846793 287.4 
z
" clip-path="url(#pe2aed2831e)" style="fill: #284f8c"/>
   </g>
   <g id="patch_31">
    <path d="M 160.535034 320.4 
L 164.223275 320.4 
L 164.223275 232.4 
L 160.535034 232.4 
z
" clip-path="url(#pe2aed2831e)" style="fill: #284f8c"/>
   </g>
   <g id="patch_32">
    <path d="M 164.223275 320.4 
L 167.911515 320.4 
L 167.911515 287.4 
L 164.223275 287.4 
z
" clip-path="url(#pe2aed2831e)" style="fill: #284f8c"/>
   </g>
   <g id="patch_33">
    <path d="M 167.911515 320.4 
L 171.599756 320.4 
L 171.599756 254.4 
L 167.911515 254.4 
z
" clip-path="url(#pe2aed2831e)" style="fill: #284f8c"/>
   </g>
   <g id="patch_34">
    <path d="M 171.599756 320.4 
L 175.287996 320.4 
L 175.287996 309.4 
L 171.599756 309.4 
z
" clip-path="url(#pe2aed2831e)" style="fill: #284f8c"/>
   </g>
   <g id="patch_35">
    <path d="M 175.287996 320.4 
L 178.976237 320.4 
L 178.976237 298.4 
L 175.287996 298.4 
z
" clip-path="url(#pe2aed2831e)" style="fill: #284f8c"/>
   </g>
   <g id="patch_36">
    <path d="M 178.976237 320.4 
L 182.664477 320.4 
L 182.664477 298.4 
L 178.976237 298.4 
z
" clip-path="url(#pe2aed2831e)" style="fill: #284f8c"/>
   </g>
   <g id="patch_37">
    <path d="M 182.664477 320.4 
L 186.352717 320.4 
L 186.352717 265.4 
L 182.664477 265.4 
z
" clip-path="url(#pe2aed2831e)" style="fill: #284f8c"/>
   </g>
   <g id="patch_38">
    <path d="M 186.352718 320.4 
L 190.040958 320.4 
L 190.040958 276.4 
L 186.352718 276.4 
z
" clip-path="url(#pe2aed2831e)" style="fill: #284f8c"/>
   </g>
   <g id="patch_39">
    <path d="M 190.040958 320.4 
L 193.729199 320.4 
L 193.729199 287.4 
L 190.040958 287.4 
z
" clip-path="url(#pe2aed2831e)" style="fill: #284f8c"/>
   </g>
   <g id="patch_40">
    <path d="M 193.729199 320.4 
L 197.417439 320.4 
L 197.417439 287.4 
L 193.729199 287.4 
z
" clip-path="url(#pe2aed2831e)" style="fill: #284f8c"/>
   </g>
   <g id="patch_41">
    <path d="M 197.417439 320.4 
L 201.10568 320.4 
L 201.10568 287.4 
L 197.417439 287.4 
z
" clip-path="url(#pe2aed2831e)" style="fill: #284f8c"/>
   </g>
   <g id="patch_42">
    <path d="M 201.10568 320.4 
L 204.79392 320.4 
L 204.79392 309.4 
L 201.10568 309.4 
z
" clip-path="url(#pe2aed2831e)" style="fill: #284f8c"/>
   </g>
   <g id="patch_43">
    <path d="M 204.79392 320.4 
L 208.482161 320.4 
L 208.482161 309.4 
L 204.79392 309.4 
z
" clip-path="url(#pe2aed2831e)" style="fill: #284f8c"/>
   </g>
   <g id="patch_44">
    <path d="M 208.482161 320.4 
L 212.170401 320.4 
L 212.170401 298.4 
L 208.482161 298.4 
z
" clip-path="url(#pe2aed2831e)" style="fill: #284f8c"/>
   </g>
   <g id="patch_45">
    <path d="M 212.170401 320.4 
L 215.858642 320.4 
L 215.858642 309.4 
L 212.170401 309.4 
z
" clip-path="url(#pe2aed2831e)" style="fill: #284f8c"/>
   </g>
   <g id="patch_46">
    <path d="M 215.858642 320.4 
L 219.546882 320.4 
L 219.546882 287.4 
L 215.858642 287.4 
z
" clip-path="url(#pe2aed2831e)" style="fill: #284f8c"/>
   </g>
   <g id="patch_47">
    <path d="M 219.546882 320.4 
L 223.235123 320.4 
L 223.235123 320.4 
L 219.546882 320.4 
z
" clip-path="url(#pe2aed2831e)" style="fill: #284f8c"/>
   </g>
   <g id="patch_48">
    <path d="M 223.235123 320.4 
L 226.923363 320.4 
L 226.923363 276.4 
L 223.235123 276.4 
z
" clip-path="url(#pe2aed2831e)" style="fill: #284f8c"/>
   </g>
   <g id="patch_49">
    <path d="M 226.923363 320.4 
L 230.611604 320.4 
L 230.611604 298.4 
L 226.923363 298.4 
z
" clip-path="url(#pe2aed2831e)" style="fill: #284f8c"/>
   </g>
   <g id="patch_50">
    <path d="M 230.611603 320.4 
L 234.299844 320.4 
L 234.299844 298.4 
L 230.611603 298.4 
z
" clip-path="url(#pe2aed2831e)" style="fill: #284f8c"/>
   </g>
   <g id="patch_51">
    <path d="M 234.299844 320.4 
L 237.988085 320.4 
L 237.988085 276.4 
L 234.299844 276.4 
z
" clip-path="url(#pe2aed2831e)" style="fill: #284f8c"/>
   </g>
   <g id="patch_52">
    <path d="M 237.988084 320.4 
L 241.676325 320.4 
L 241.676325 309.4 
L 237.988084 309.4 
z
" clip-path="url(#pe2aed2831e)" style="fill: #284f8c"/>
   </g>
   <g id="patch_53">
    <path d="M 241.676325 320.4 
L 245.364566 320.4 
L 245.364566 298.4 
L 241.676325 298.4 
z
" clip-path="url(#pe2aed2831e)" style="fill: #284f8c"/>
   </g>
   <g id="patch_54">
    <path d="M 245.364565 320.4 
L 249.052806 320.4 
L 249.052806 320.4 
L 245.364565 320.4 
z
" clip-path="url(#pe2aed2831e)" style="fill: #284f8c"/>
   </g>
   <g id="patch_55">
    <path d="M 249.052806 320.4 
L 252.741047 320.4 
L 252.741047 320.4 
L 249.052806 320.4 
z
" clip-path="url(#pe2aed2831e)" style="fill: #284f8c"/>
   </g>
   <g id="patch_56">
    <path d="M 252.741047 320.4 
L 256.429287 320.4 
L 256.429287 309.4 
L 252.741047 309.4 
z
" clip-path="url(#pe2aed2831e)" style="fill: #284f8c"/>
   </g>
   <g id="patch_57">
    <path d="M 256.429287 320.4 
L 260.117527 320.4 
L 260.117527 320.4 
L 256.429287 320.4 
z
" clip-path="url(#pe2aed2831e)" style="fill: #284f8c"/>
   </g>
   <g id="patch_58">
    <path d="M 260.117528 320.4 
L 263.805768 320.4 
L 263.805768 320.4 
L 260.117528 320.4 
z
" clip-path="url(#pe2aed2831e)" style="fill: #284f8c"/>
   </g>
   <g id="patch_59">
    <path d="M 263.805768 320.4 
L 267.494008 320.4 
L 267.494008 320.4 
L 263.805768 320.4 
z
" clip-path="url(#pe2aed2831e)" style="fill: #284f8c"/>
   </g>
   <g id="patch_60">
    <path d="M 267.494009 320.4 
L 271.182249 320.4 
L 271.182249 320.4 
L 267.494009 320.4 
z
" clip-path="url(#pe2aed2831e)" style="fill: #284f8c"/>
   </g>
   <g id="patch_61">
    <path d="M 271.182249 320.4 
L 274.870489 320.4 
L 274.870489 298.4 
L 271.182249 298.4 
z
" clip-path="url(#pe2aed2831e)" style="fill: #284f8c"/>
   </g>
   <g id="patch_62">
    <path d="M 274.87049 320.4 
L 278.55873 320.4 
L 278.55873 309.4 
L 274.87049 309.4 
z
" clip-path="url(#pe2aed2831e)" style="fill: #284f8c"/>
   </g>
   <g id="patch_63">
    <path d="M 278.55873 320.4 
L 282.24697 320.4 
L 282.24697 320.4 
L 278.55873 320.4 
z
" clip-path="url(#pe2aed2831e)" style="fill: #284f8c"/>
   </g>
   <g id="patch_64">
    <path d="M 282.24697 320.4 
L 285.935211 320.4 
L 285.935211 309.4 
L 282.24697 309.4 
z
" clip-path="url(#pe2aed2831e)" style="fill: #284f8c"/>
   </g>
   <g id="patch_65">
    <path d="M 285.935211 320.4 
L 289.623451 320.4 
L 289.623451 320.4 
L 285.935211 320.4 
z
" clip-path="url(#pe2aed2831e)" style="fill: #284f8c"/>
   </g>
   <g id="patch_66">
    <path d="M 289.623451 320.4 
L 293.311692 320.4 
L 293.311692 309.4 
L 289.623451 309.4 
z
" clip-path="url(#pe2aed2831e)" style="fill: #284f8c"/>
   </g>
   <g id="patch_67">
    <path d="M 293.311692 320.4 
L 296.999932 320.4 
L 296.999932 320.4 
L 293.311692 320.4 
z
" clip-path="url(#pe2aed2831e)" style="fill: #284f8c"/>
   </g>
   <g id="patch_68">
    <path d="M 296.999932 320.4 
L 300.688173 320.4 
L 300.688173 309.4 
L 296.999932 309.4 
z
" clip-path="url(#pe2aed2831e)" style="fill: #284f8c"/>
   </g>
   <g id="patch_69">
    <path d="M 300.688173 320.4 
L 304.376414 320.4 
L 304.376414 320.4 
L 300.688173 320.4 
z
" clip-path="url(#pe2aed2831e)" style="fill: #284f8c"/>
   </g>
   <g id="patch_70">
    <path d="M 304.376414 320.4 
L 308.064654 320.4 
L 308.064654 320.4 
L 304.376414 320.4 
z
" clip-path="url(#pe2aed2831e)" style="fill: #284f8c"/>
   </g>
   <g id="patch_71">
    <path d="M 308.064654 320.4 
L 311.752894 320.4 
L 311.752894 320.4 
L 308.064654 320.4 
z
" clip-path="url(#pe2aed2831e)" style="fill: #284f8c"/>
   </g>
   <g id="patch_72">
    <path d="M 311.752895 320.4 
L 315.441135 320.4 
L 315.441135 309.4 
L 311.752895 309.4 
z
" clip-path="url(#pe2aed2831e)" style="fill: #284f8c"/>
   </g>
   <g id="patch_73">
    <path d="M 315.441135 320.4 
L 319.129375 320.4 
L 319.129375 320.4 
L 315.441135 320.4 
z
" clip-path="url(#pe2aed2831e)" style="fill: #284f8c"/>
   </g>
   <g id="patch_74">
    <path d="M 319.129376 320.4 
L 322.817616 320.4 
L 322.817616 309.4 
L 319.129376 309.4 
z
" clip-path="url(#pe2aed2831e)" style="fill: #284f8c"/>
   </g>
   <g id="patch_75">
    <path d="M 322.817616 320.4 
L 326.505856 320.4 
L 326.505856 320.4 
L 322.817616 320.4 
z
" clip-path="url(#pe2aed2831e)" style="fill: #284f8c"/>
   </g>
   <g id="patch_76">
    <path d="M 326.505857 320.4 
L 330.194097 320.4 
L 330.194097 320.4 
L 326.505857 320.4 
z
" clip-path="url(#pe2aed2831e)" style="fill: #284f8c"/>
   </g>
   <g id="patch_77">
    <path d="M 330.194097 320.4 
L 333.882338 320.4 
L 333.882338 320.4 
L 330.194097 320.4 
z
" clip-path="url(#pe2aed2831e)" style="fill: #284f8c"/>
   </g>
   <g id="patch_78">
    <path d="M 333.882338 320.4 
L 337.570578 320.4 
L 337.570578 320.4 
L 333.882338 320.4 
z
" clip-path="url(#pe2aed2831e)" style="fill: #284f8c"/>
   </g>
   <g id="patch_79">
    <path d="M 337.570578 320.4 
L 341.258819 320.4 
L 341.258819 320.4 
L 337.570578 320.4 
z
" clip-path="url(#pe2aed2831e)" style="fill: #284f8c"/>
   </g>
   <g id="patch_80">
    <path d="M 341.258818 320.4 
L 344.947059 320.4 
L 344.947059 320.4 
L 341.258818 320.4 
z
" clip-path="url(#pe2aed2831e)" style="fill: #284f8c"/>
   </g>
   <g id="patch_81">
    <path d="M 344.947059 320.4 
L 348.6353 320.4 
L 348.6353 320.4 
L 344.947059 320.4 
z
" clip-path="url(#pe2aed2831e)" style="fill: #284f8c"/>
   </g>
   <g id="patch_82">
    <path d="M 348.635299 320.4 
L 352.32354 320.4 
L 352.32354 320.4 
L 348.635299 320.4 
z
" clip-path="url(#pe2aed2831e)" style="fill: #284f8c"/>
   </g>
   <g id="patch_83">
    <path d="M 352.32354 320.4 
L 356.011781 320.4 
L 356.011781 320.4 
L 352.32354 320.4 
z
" clip-path="url(#pe2aed2831e)" style="fill: #284f8c"/>
   </g>
   <g id="patch_84">
    <path d="M 356.01178 320.4 
L 359.700021 320.4 
L 359.700021 320.4 
L 356.01178 320.4 
z
" clip-path="url(#pe2aed2831e)" style="fill: #284f8c"/>
   </g>
   <g id="patch_85">
    <path d="M 359.700021 320.4 
L 363.388262 320.4 
L 363.388262 320.4 
L 359.700021 320.4 
z
" clip-path="url(#pe2aed2831e)" style="fill: #284f8c"/>
   </g>
   <g id="patch_86">
    <path d="M 363.388261 320.4 
L 367.076502 320.4 
L 367.076502 320.4 
L 363.388261 320.4 
z
" clip-path="url(#pe2aed2831e)" style="fill: #284f8c"/>
   </g>
   <g id="patch_87">
    <path d="M 367.076502 320.4 
L 370.764743 320.4 
L 370.764743 320.4 
L 367.076502 320.4 
z
" clip-path="url(#pe2aed2831e)" style="fill: #284f8c"/>
   </g>
   <g id="patch_88">
    <path d="M 370.764743 320.4 
L 374.452983 320.4 
L 374.452983 320.4 
L 370.764743 320.4 
z
" clip-path="url(#pe2aed2831e)" style="fill: #284f8c"/>
   </g>
   <g id="patch_89">
    <path d="M 374.452983 320.4 
L 378.141223 320.4 
L 378.141223 309.4 
L 374.452983 309.4 
z
" clip-path="url(#pe2aed2831e)" style="fill: #284f8c"/>
   </g>
   <g id="patch_90">
    <path d="M 378.141224 320.4 
L 381.829464 320.4 
L 381.829464 320.4 
L 378.141224 320.4 
z
" clip-path="url(#pe2aed2831e)" style="fill: #284f8c"/>
   </g>
   <g id="patch_91">
    <path d="M 381.829464 320.4 
L 385.517704 320.4 
L 385.517704 320.4 
L 381.829464 320.4 
z
" clip-path="url(#pe2aed2831e)" style="fill: #284f8c"/>
   </g>
   <g id="patch_92">
    <path d="M 385.517705 320.4 
L 389.205945 320.4 
L 389.205945 320.4 
L 385.517705 320.4 
z
" clip-path="url(#pe2aed2831e)" style="fill: #284f8c"/>
   </g>
   <g id="patch_93">
    <path d="M 389.205945 320.4 
L 392.894185 320.4 
L 392.894185 320.4 
L 389.205945 320.4 
z
" clip-path="url(#pe2aed2831e)" style="fill: #284f8c"/>
   </g>
   <g id="patch_94">
    <path d="M 392.894186 320.4 
L 396.582426 320.4 
L 396.582426 320.4 
L 392.894186 320.4 
z
" clip-path="url(#pe2aed2831e)" style="fill: #284f8c"/>
   </g>
   <g id="patch_95">
    <path d="M 396.582426 320.4 
L 400.270667 320.4 
L 400.270667 320.4 
L 396.582426 320.4 
z
" clip-path="url(#pe2aed2831e)" style="fill: #284f8c"/>
   </g>
   <g id="patch_96">
    <path d="M 400.270667 320.4 
L 403.958907 320.4 
L 403.958907 320.4 
L 400.270667 320.4 
z
" clip-path="url(#pe2aed2831e)" style="fill: #284f8c"/>
   </g>
   <g id="patch_97">
    <path d="M 403.958907 320.4 
L 407.647148 320.4 
L 407.647148 320.4 
L 403.958907 320.4 
z
" clip-path="url(#pe2aed2831e)" style="fill: #284f8c"/>
   </g>
   <g id="patch_98">
    <path d="M 407.647148 320.4 
L 411.335388 320.4 
L 411.335388 320.4 
L 407.647148 320.4 
z
" clip-path="url(#pe2aed2831e)" style="fill: #284f8c"/>
   </g>
   <g id="patch_99">
    <path d="M 411.335388 320.4 
L 415.023628 320.4 
L 415.023628 320.4 
L 411.335388 320.4 
z
" clip-path="url(#pe2aed2831e)" style="fill: #284f8c"/>
   </g>
   <g id="patch_100">
    <path d="M 415.023628 320.4 
L 418.711869 320.4 
L 418.711869 320.4 
L 415.023628 320.4 
z
" clip-path="url(#pe2aed2831e)" style="fill: #284f8c"/>
   </g>
   <g id="patch_101">
    <path d="M 418.711869 320.4 
L 422.40011 320.4 
L 422.40011 320.4 
L 418.711869 320.4 
z
" clip-path="url(#pe2aed2831e)" style="fill: #284f8c"/>
   </g>
   <g id="patch_102">
    <path d="M 422.400109 320.4 
L 426.08835 320.4 
L 426.08835 309.4 
L 422.400109 309.4 
z
" clip-path="url(#pe2aed2831e)" style="fill: #284f8c"/>
   </g>
   <g id="patch_103">
    <path d="M 426.08835 320.4 
L 429.77659 320.4 
L 429.77659 320.4 
L 426.08835 320.4 
z
" clip-path="url(#pe2aed2831e)" style="fill: #284f8c"/>
   </g>
   <g id="patch_104">
    <path d="M 429.77659 320.4 
L 433.464831 320.4 
L 433.464831 320.4 
L 429.77659 320.4 
z
" clip-path="url(#pe2aed2831e)" style="fill: #284f8c"/>
   </g>
   <g id="patch_105">
    <path d="M 433.464831 320.4 
L 437.153072 320.4 
L 437.153072 320.4 
L 433.464831 320.4 
z
" clip-path="url(#pe2aed2831e)" style="fill: #284f8c"/>
   </g>
   <g id="patch_106">
    <path d="M 437.153072 320.4 
L 440.841312 320.4 
L 440.841312 320.4 
L 437.153072 320.4 
z
" clip-path="url(#pe2aed2831e)" style="fill: #284f8c"/>
   </g>
   <g id="patch_107">
    <path d="M 440.841312 320.4 
L 444.529553 320.4 
L 444.529553 320.4 
L 440.841312 320.4 
z
" clip-path="url(#pe2aed2831e)" style="fill: #284f8c"/>
   </g>
   <g id="patch_108">
    <path d="M 444.529553 320.4 
L 448.217793 320.4 
L 448.217793 320.4 
L 444.529553 320.4 
z
" clip-path="url(#pe2aed2831e)" style="fill: #284f8c"/>
   </g>
   <g id="patch_109">
    <path d="M 448.217793 320.4 
L 451.906034 320.4 
L 451.906034 320.4 
L 448.217793 320.4 
z
" clip-path="url(#pe2aed2831e)" style="fill: #284f8c"/>
   </g>
   <g id="patch_110">
    <path d="M 451.906034 320.4 
L 455.594274 320.4 
L 455.594274 320.4 
L 451.906034 320.4 
z
" clip-path="url(#pe2aed2831e)" style="fill: #284f8c"/>
   </g>
   <g id="patch_111">
    <path d="M 455.594274 320.4 
L 459.282515 320.4 
L 459.282515 320.4 
L 455.594274 320.4 
z
" clip-path="url(#pe2aed2831e)" style="fill: #284f8c"/>
   </g>
   <g id="patch_112">
    <path d="M 459.282515 320.4 
L 462.970755 320.4 
L 462.970755 320.4 
L 459.282515 320.4 
z
" clip-path="url(#pe2aed2831e)" style="fill: #284f8c"/>
   </g>
   <g id="patch_113">
    <path d="M 462.970755 320.4 
L 466.658996 320.4 
L 466.658996 320.4 
L 462.970755 320.4 
z
" clip-path="url(#pe2aed2831e)" style="fill: #284f8c"/>
   </g>
   <g id="patch_114">
    <path d="M 466.658996 320.4 
L 470.347236 320.4 
L 470.347236 320.4 
L 466.658996 320.4 
z
" clip-path="url(#pe2aed2831e)" style="fill: #284f8c"/>
   </g>
   <g id="patch_115">
    <path d="M 470.347236 320.4 
L 474.035477 320.4 
L 474.035477 320.4 
L 470.347236 320.4 
z
" clip-path="url(#pe2aed2831e)" style="fill: #284f8c"/>
   </g>
   <g id="patch_116">
    <path d="M 474.035477 320.4 
L 477.723717 320.4 
L 477.723717 320.4 
L 474.035477 320.4 
z
" clip-path="url(#pe2aed2831e)" style="fill: #284f8c"/>
   </g>
   <g id="patch_117">
    <path d="M 477.723717 320.4 
L 481.411957 320.4 
L 481.411957 320.4 
L 477.723717 320.4 
z
" clip-path="url(#pe2aed2831e)" style="fill: #284f8c"/>
   </g>
   <g id="patch_118">
    <path d="M 481.411958 320.4 
L 485.100198 320.4 
L 485.100198 320.4 
L 481.411958 320.4 
z
" clip-path="url(#pe2aed2831e)" style="fill: #284f8c"/>
   </g>
   <g id="patch_119">
    <path d="M 485.100198 320.4 
L 488.788439 320.4 
L 488.788439 320.4 
L 485.100198 320.4 
z
" clip-path="url(#pe2aed2831e)" style="fill: #284f8c"/>
   </g>
   <g id="patch_120">
    <path d="M 488.788439 320.4 
L 492.476679 320.4 
L 492.476679 320.4 
L 488.788439 320.4 
z
" clip-path="url(#pe2aed2831e)" style="fill: #284f8c"/>
   </g>
   <g id="patch_121">
    <path d="M 492.476679 320.4 
L 496.164919 320.4 
L 496.164919 320.4 
L 492.476679 320.4 
z
" clip-path="url(#pe2aed2831e)" style="fill: #284f8c"/>
   </g>
   <g id="patch_122">
    <path d="M 496.16492 320.4 
L 499.85316 320.4 
L 499.85316 320.4 
L 496.16492 320.4 
z
" clip-path="url(#pe2aed2831e)" style="fill: #284f8c"/>
   </g>
   <g id="patch_123">
    <path d="M 499.85316 320.4 
L 503.541401 320.4 
L 503.541401 320.4 
L 499.85316 320.4 
z
" clip-path="url(#pe2aed2831e)" style="fill: #284f8c"/>
   </g>
   <g id="patch_124">
    <path d="M 503.541401 320.4 
L 507.229641 320.4 
L 507.229641 320.4 
L 503.541401 320.4 
z
" clip-path="url(#pe2aed2831e)" style="fill: #284f8c"/>
   </g>
   <g id="patch_125">
    <path d="M 507.229641 320.4 
L 510.917882 320.4 
L 510.917882 320.4 
L 507.229641 320.4 
z
" clip-path="url(#pe2aed2831e)" style="fill: #284f8c"/>
   </g>
   <g id="patch_126">
    <path d="M 510.917882 320.4 
L 514.606122 320.4 
L 514.606122 320.4 
L 510.917882 320.4 
z
" clip-path="url(#pe2aed2831e)" style="fill: #284f8c"/>
   </g>
   <g id="patch_127">
    <path d="M 514.606122 320.4 
L 518.294363 320.4 
L 518.294363 320.4 
L 514.606122 320.4 
z
" clip-path="url(#pe2aed2831e)" style="fill: #284f8c"/>
   </g>
   <g id="patch_128">
    <path d="M 518.294363 320.4 
L 521.982603 320.4 
L 521.982603 320.4 
L 518.294363 320.4 
z
" clip-path="url(#pe2aed2831e)" style="fill: #284f8c"/>
   </g>
   <g id="patch_129">
    <path d="M 521.982603 320.4 
L 525.670844 320.4 
L 525.670844 320.4 
L 521.982603 320.4 
z
" clip-path="url(#pe2aed2831e)" style="fill: #284f8c"/>
   </g>
   <g id="patch_130">
    <path d="M 525.670844 320.4 
L 529.359084 320.4 
L 529.359084 320.4 
L 525.670844 320.4 
z
" clip-path="url(#pe2aed2831e)" style="fill: #284f8c"/>
   </g>
   <g id="patch_131">
    <path d="M 529.359084 320.4 
L 533.047325 320.4 
L 533.047325 320.4 
L 529.359084 320.4 
z
" clip-path="url(#pe2aed2831e)" style="fill: #284f8c"/>
   </g>
   <g id="patch_132">
    <path d="M 533.047325 320.4 
L 536.735565 320.4 
L 536.735565 320.4 
L 533.047325 320.4 
z
" clip-path="url(#pe2aed2831e)" style="fill: #284f8c"/>
   </g>
   <g id="patch_133">
    <path d="M 536.735565 320.4 
L 540.423806 320.4 
L 540.423806 320.4 
L 536.735565 320.4 
z
" clip-path="url(#pe2aed2831e)" style="fill: #284f8c"/>
   </g>
   <g id="patch_134">
    <path d="M 540.423806 320.4 
L 544.112046 320.4 
L 544.112046 320.4 
L 540.423806 320.4 
z
" clip-path="url(#pe2aed2831e)" style="fill: #284f8c"/>
   </g>
   <g id="patch_135">
    <path d="M 544.112046 320.4 
L 547.800287 320.4 
L 547.800287 320.4 
L 544.112046 320.4 
z
" clip-path="url(#pe2aed2831e)" style="fill: #284f8c"/>
   </g>
   <g id="patch_136">
    <path d="M 547.800287 320.4 
L 551.488527 320.4 
L 551.488527 320.4 
L 547.800287 320.4 
z
" clip-path="url(#pe2aed2831e)" style="fill: #284f8c"/>
   </g>
   <g id="patch_137">
    <path d="M 551.488527 320.4 
L 555.176768 320.4 
L 555.176768 320.4 
L 551.488527 320.4 
z
" clip-path="url(#pe2aed2831e)" style="fill: #284f8c"/>
   </g>
   <g id="patch_138">
    <path d="M 555.176768 320.4 
L 558.865008 320.4 
L 558.865008 320.4 
L 555.176768 320.4 
z
" clip-path="url(#pe2aed2831e)" style="fill: #284f8c"/>
   </g>
   <g id="patch_139">
    <path d="M 558.865008 320.4 
L 562.553249 320.4 
L 562.553249 320.4 
L 558.865008 320.4 
z
" clip-path="url(#pe2aed2831e)" style="fill: #284f8c"/>
   </g>
   <g id="patch_140">
    <path d="M 562.553249 320.4 
L 566.241489 320.4 
L 566.241489 320.4 
L 562.553249 320.4 
z
" clip-path="url(#pe2aed2831e)" style="fill: #284f8c"/>
   </g>
   <g id="patch_141">
    <path d="M 566.241489 320.4 
L 569.92973 320.4 
L 569.92973 320.4 
L 566.241489 320.4 
z
" clip-path="url(#pe2aed2831e)" style="fill: #284f8c"/>
   </g>
   <g id="patch_142">
    <path d="M 569.92973 320.4 
L 573.61797 320.4 
L 573.61797 320.4 
L 569.92973 320.4 
z
" clip-path="url(#pe2aed2831e)" style="fill: #284f8c"/>
   </g>
   <g id="patch_143">
    <path d="M 573.61797 320.4 
L 577.306211 320.4 
L 577.306211 320.4 
L 573.61797 320.4 
z
" clip-path="url(#pe2aed2831e)" style="fill: #284f8c"/>
   </g>
   <g id="patch_144">
    <path d="M 577.306211 320.4 
L 580.994451 320.4 
L 580.994451 320.4 
L 577.306211 320.4 
z
" clip-path="url(#pe2aed2831e)" style="fill: #284f8c"/>
   </g>
   <g id="patch_145">
    <path d="M 580.994451 320.4 
L 584.682692 320.4 
L 584.682692 320.4 
L 580.994451 320.4 
z
" clip-path="url(#pe2aed2831e)" style="fill: #284f8c"/>
   </g>
   <g id="patch_146">
    <path d="M 584.682692 320.4 
L 588.370932 320.4 
L 588.370932 320.4 
L 584.682692 320.4 
z
" clip-path="url(#pe2aed2831e)" style="fill: #284f8c"/>
   </g>
   <g id="patch_147">
    <path d="M 588.370932 320.4 
L 592.059173 320.4 
L 592.059173 320.4 
L 588.370932 320.4 
z
" clip-path="url(#pe2aed2831e)" style="fill: #284f8c"/>
   </g>
   <g id="patch_148">
    <path d="M 592.059173 320.4 
L 595.747413 320.4 
L 595.747413 320.4 
L 592.059173 320.4 
z
" clip-path="url(#pe2aed2831e)" style="fill: #284f8c"/>
   </g>
   <g id="patch_149">
    <path d="M 595.747413 320.4 
L 599.435654 320.4 
L 599.435654 320.4 
L 595.747413 320.4 
z
" clip-path="url(#pe2aed2831e)" style="fill: #284f8c"/>
   </g>
   <g id="patch_150">
    <path d="M 599.435654 320.4 
L 603.123894 320.4 
L 603.123894 320.4 
L 599.435654 320.4 
z
" clip-path="url(#pe2aed2831e)" style="fill: #284f8c"/>
   </g>
   <g id="patch_151">
    <path d="M 603.123894 320.4 
L 606.812135 320.4 
L 606.812135 320.4 
L 603.123894 320.4 
z
" clip-path="url(#pe2aed2831e)" style="fill: #284f8c"/>
   </g>
   <g id="patch_152">
    <path d="M 606.812135 320.4 
L 610.500375 320.4 
L 610.500375 320.4 
L 606.812135 320.4 
z
" clip-path="url(#pe2aed2831e)" style="fill: #284f8c"/>
   </g>
   <g id="patch_153">
    <path d="M 610.500375 320.4 
L 614.188616 320.4 
L 614.188616 320.4 
L 610.500375 320.4 
z
" clip-path="url(#pe2aed2831e)" style="fill: #284f8c"/>
   </g>
   <g id="patch_154">
    <path d="M 614.188616 320.4 
L 617.876856 320.4 
L 617.876856 320.4 
L 614.188616 320.4 
z
" clip-path="url(#pe2aed2831e)" style="fill: #284f8c"/>
   </g>
   <g id="patch_155">
    <path d="M 617.876856 320.4 
L 621.565096 320.4 
L 621.565096 320.4 
L 617.876856 320.4 
z
" clip-path="url(#pe2aed2831e)" style="fill: #284f8c"/>
   </g>
   <g id="patch_156">
    <path d="M 621.565097 320.4 
L 625.253337 320.4 
L 625.253337 320.4 
L 621.565097 320.4 
z
" clip-path="url(#pe2aed2831e)" style="fill: #284f8c"/>
   </g>
   <g id="patch_157">
    <path d="M 625.253337 320.4 
L 628.941577 320.4 
L 628.941577 320.4 
L 625.253337 320.4 
z
" clip-path="url(#pe2aed2831e)" style="fill: #284f8c"/>
   </g>
   <g id="patch_158">
    <path d="M 628.941578 320.4 
L 632.629818 320.4 
L 632.629818 320.4 
L 628.941578 320.4 
z
" clip-path="url(#pe2aed2831e)" style="fill: #284f8c"/>
   </g>
   <g id="patch_159">
    <path d="M 632.629818 320.4 
L 636.318059 320.4 
L 636.318059 320.4 
L 632.629818 320.4 
z
" clip-path="url(#pe2aed2831e)" style="fill: #284f8c"/>
   </g>
   <g id="patch_160">
    <path d="M 636.318059 320.4 
L 640.006299 320.4 
L 640.006299 320.4 
L 636.318059 320.4 
z
" clip-path="url(#pe2aed2831e)" style="fill: #284f8c"/>
   </g>
   <g id="patch_161">
    <path d="M 640.006299 320.4 
L 643.69454 320.4 
L 643.69454 320.4 
L 640.006299 320.4 
z
" clip-path="url(#pe2aed2831e)" style="fill: #284f8c"/>
   </g>
   <g id="patch_162">
    <path d="M 643.69454 320.4 
L 647.38278 320.4 
L 647.38278 320.4 
L 643.69454 320.4 
z
" clip-path="url(#pe2aed2831e)" style="fill: #284f8c"/>
   </g>
   <g id="patch_163">
    <path d="M 647.38278 320.4 
L 651.071021 320.4 
L 651.071021 320.4 
L 647.38278 320.4 
z
" clip-path="url(#pe2aed2831e)" style="fill: #284f8c"/>
   </g>
   <g id="patch_164">
    <path d="M 651.071021 320.4 
L 654.759261 320.4 
L 654.759261 320.4 
L 651.071021 320.4 
z
" clip-path="url(#pe2aed2831e)" style="fill: #284f8c"/>
   </g>
   <g id="patch_165">
    <path d="M 654.759261 320.4 
L 658.447502 320.4 
L 658.447502 320.4 
L 654.759261 320.4 
z
" clip-path="url(#pe2aed2831e)" style="fill: #284f8c"/>
   </g>
   <g id="patch_166">
    <path d="M 658.447502 320.4 
L 662.135742 320.4 
L 662.135742 320.4 
L 658.447502 320.4 
z
" clip-path="url(#pe2aed2831e)" style="fill: #284f8c"/>
   </g>
   <g id="patch_167">
    <path d="M 662.135742 320.4 
L 665.823983 320.4 
L 665.823983 320.4 
L 662.135742 320.4 
z
" clip-path="url(#pe2aed2831e)" style="fill: #284f8c"/>
   </g>
   <g id="patch_168">
    <path d="M 665.823983 320.4 
L 669.512223 320.4 
L 669.512223 320.4 
L 665.823983 320.4 
z
" clip-path="url(#pe2aed2831e)" style="fill: #284f8c"/>
   </g>
   <g id="patch_169">
    <path d="M 669.512223 320.4 
L 673.200464 320.4 
L 673.200464 320.4 
L 669.512223 320.4 
z
" clip-path="url(#pe2aed2831e)" style="fill: #284f8c"/>
   </g>
   <g id="patch_170">
    <path d="M 673.200464 320.4 
L 676.888704 320.4 
L 676.888704 320.4 
L 673.200464 320.4 
z
" clip-path="url(#pe2aed2831e)" style="fill: #284f8c"/>
   </g>
   <g id="patch_171">
    <path d="M 676.888704 320.4 
L 680.576945 320.4 
L 680.576945 320.4 
L 676.888704 320.4 
z
" clip-path="url(#pe2aed2831e)" style="fill: #284f8c"/>
   </g>
   <g id="patch_172">
    <path d="M 680.576945 320.4 
L 684.265185 320.4 
L 684.265185 320.4 
L 680.576945 320.4 
z
" clip-path="url(#pe2aed2831e)" style="fill: #284f8c"/>
   </g>
   <g id="patch_173">
    <path d="M 684.265185 320.4 
L 687.953425 320.4 
L 687.953425 320.4 
L 684.265185 320.4 
z
" clip-path="url(#pe2aed2831e)" style="fill: #284f8c"/>
   </g>
   <g id="patch_174">
    <path d="M 687.953426 320.4 
L 691.641666 320.4 
L 691.641666 320.4 
L 687.953426 320.4 
z
" clip-path="url(#pe2aed2831e)" style="fill: #284f8c"/>
   </g>
   <g id="patch_175">
    <path d="M 691.641666 320.4 
L 695.329906 320.4 
L 695.329906 320.4 
L 691.641666 320.4 
z
" clip-path="url(#pe2aed2831e)" style="fill: #284f8c"/>
   </g>
   <g id="patch_176">
    <path d="M 695.329907 320.4 
L 699.018147 320.4 
L 699.018147 320.4 
L 695.329907 320.4 
z
" clip-path="url(#pe2aed2831e)" style="fill: #284f8c"/>
   </g>
   <g id="patch_177">
    <path d="M 699.018147 320.4 
L 702.706388 320.4 
L 702.706388 320.4 
L 699.018147 320.4 
z
" clip-path="url(#pe2aed2831e)" style="fill: #284f8c"/>
   </g>
   <g id="patch_178">
    <path d="M 702.706388 320.4 
L 706.394628 320.4 
L 706.394628 320.4 
L 702.706388 320.4 
z
" clip-path="url(#pe2aed2831e)" style="fill: #284f8c"/>
   </g>
   <g id="patch_179">
    <path d="M 706.394628 320.4 
L 710.082869 320.4 
L 710.082869 320.4 
L 706.394628 320.4 
z
" clip-path="url(#pe2aed2831e)" style="fill: #284f8c"/>
   </g>
   <g id="patch_180">
    <path d="M 710.082869 320.4 
L 713.771109 320.4 
L 713.771109 320.4 
L 710.082869 320.4 
z
" clip-path="url(#pe2aed2831e)" style="fill: #284f8c"/>
   </g>
   <g id="patch_181">
    <path d="M 713.771109 320.4 
L 717.45935 320.4 
L 717.45935 320.4 
L 713.771109 320.4 
z
" clip-path="url(#pe2aed2831e)" style="fill: #284f8c"/>
   </g>
   <g id="patch_182">
    <path d="M 717.45935 320.4 
L 721.14759 320.4 
L 721.14759 320.4 
L 717.45935 320.4 
z
" clip-path="url(#pe2aed2831e)" style="fill: #284f8c"/>
   </g>
   <g id="patch_183">
    <path d="M 721.14759 320.4 
L 724.835831 320.4 
L 724.835831 320.4 
L 721.14759 320.4 
z
" clip-path="url(#pe2aed2831e)" style="fill: #284f8c"/>
   </g>
   <g id="patch_184">
    <path d="M 724.835831 320.4 
L 728.524071 320.4 
L 728.524071 320.4 
L 724.835831 320.4 
z
" clip-path="url(#pe2aed2831e)" style="fill: #284f8c"/>
   </g>
   <g id="patch_185">
    <path d="M 728.524071 320.4 
L 732.212312 320.4 
L 732.212312 320.4 
L 728.524071 320.4 
z
" clip-path="url(#pe2aed2831e)" style="fill: #284f8c"/>
   </g>
   <g id="patch_186">
    <path d="M 732.212312 320.4 
L 735.900552 320.4 
L 735.900552 320.4 
L 732.212312 320.4 
z
" clip-path="url(#pe2aed2831e)" style="fill: #284f8c"/>
   </g>
   <g id="patch_187">
    <path d="M 735.900552 320.4 
L 739.588793 320.4 
L 739.588793 320.4 
L 735.900552 320.4 
z
" clip-path="url(#pe2aed2831e)" style="fill: #284f8c"/>
   </g>
   <g id="patch_188">
    <path d="M 739.588792 320.4 
L 743.277033 320.4 
L 743.277033 320.4 
L 739.588792 320.4 
z
" clip-path="url(#pe2aed2831e)" style="fill: #284f8c"/>
   </g>
   <g id="patch_189">
    <path d="M 743.277033 320.4 
L 746.965273 320.4 
L 746.965273 320.4 
L 743.277033 320.4 
z
" clip-path="url(#pe2aed2831e)" style="fill: #284f8c"/>
   </g>
   <g id="patch_190">
    <path d="M 746.965273 320.4 
L 750.653514 320.4 
L 750.653514 320.4 
L 746.965273 320.4 
z
" clip-path="url(#pe2aed2831e)" style="fill: #284f8c"/>
   </g>
   <g id="patch_191">
    <path d="M 750.653514 320.4 
L 754.341754 320.4 
L 754.341754 320.4 
L 750.653514 320.4 
z
" clip-path="url(#pe2aed2831e)" style="fill: #284f8c"/>
   </g>
   <g id="patch_192">
    <path d="M 754.341755 320.4 
L 758.029995 320.4 
L 758.029995 320.4 
L 754.341755 320.4 
z
" clip-path="url(#pe2aed2831e)" style="fill: #284f8c"/>
   </g>
   <g id="patch_193">
    <path d="M 758.029995 320.4 
L 761.718235 320.4 
L 761.718235 320.4 
L 758.029995 320.4 
z
" clip-path="url(#pe2aed2831e)" style="fill: #284f8c"/>
   </g>
   <g id="patch_194">
    <path d="M 761.718235 320.4 
L 765.406476 320.4 
L 765.406476 320.4 
L 761.718235 320.4 
z
" clip-path="url(#pe2aed2831e)" style="fill: #284f8c"/>
   </g>
   <g id="patch_195">
    <path d="M 765.406476 320.4 
L 769.094717 320.4 
L 769.094717 320.4 
L 765.406476 320.4 
z
" clip-path="url(#pe2aed2831e)" style="fill: #284f8c"/>
   </g>
   <g id="patch_196">
    <path d="M 769.094717 320.4 
L 772.782957 320.4 
L 772.782957 320.4 
L 769.094717 320.4 
z
" clip-path="url(#pe2aed2831e)" style="fill: #284f8c"/>
   </g>
   <g id="patch_197">
    <path d="M 772.782957 320.4 
L 776.471197 320.4 
L 776.471197 320.4 
L 772.782957 320.4 
z
" clip-path="url(#pe2aed2831e)" style="fill: #284f8c"/>
   </g>
   <g id="patch_198">
    <path d="M 776.471198 320.4 
L 780.159438 320.4 
L 780.159438 320.4 
L 776.471198 320.4 
z
" clip-path="url(#pe2aed2831e)" style="fill: #284f8c"/>
   </g>
   <g id="patch_199">
    <path d="M 780.159438 320.4 
L 783.847678 320.4 
L 783.847678 320.4 
L 780.159438 320.4 
z
" clip-path="url(#pe2aed2831e)" style="fill: #284f8c"/>
   </g>
   <g id="patch_200">
    <path d="M 783.847679 320.4 
L 787.535919 320.4 
L 787.535919 320.4 
L 783.847679 320.4 
z
" clip-path="url(#pe2aed2831e)" style="fill: #284f8c"/>
   </g>
   <g id="patch_201">
    <path d="M 787.535919 320.4 
L 791.22416 320.4 
L 791.22416 320.4 
L 787.535919 320.4 
z
" clip-path="url(#pe2aed2831e)" style="fill: #284f8c"/>
   </g>
   <g id="patch_202">
    <path d="M 791.224159 320.4 
L 794.9124 320.4 
L 794.9124 309.4 
L 791.224159 309.4 
z
" clip-path="url(#pe2aed2831e)" style="fill: #284f8c"/>
   </g>
   <g id="matplotlib.axis_1">
    <g id="xtick_1">
     <g id="line2d_1">
      <defs>
       <path id="m0256f48eaf" d="M 0 0 
L 0 3 
" style="stroke: #000000"/>
      </defs>
      <g>
       <use xlink:href="#m0256f48eaf" x="54" y="320.4" style="stroke: #000000"/>
      </g>
     </g>
     <g id="text_1">
      <!-- 0 -->
      <g transform="translate(50.5 336.62125) scale(0.14 -0.14)">
       <defs>
        <path id="TimesNewRomanPSMT-30" d="M 231 2094 
Q 231 2819 450 3342 
Q 669 3866 1031 4122 
Q 1313 4325 1613 4325 
Q 2100 4325 2488 3828 
Q 2972 3213 2972 2159 
Q 2972 1422 2759 906 
Q 2547 391 2217 158 
Q 1888 -75 1581 -75 
Q 975 -75 572 641 
Q 231 1244 231 2094 
z
M 844 2016 
Q 844 1141 1059 588 
Q 1238 122 1591 122 
Q 1759 122 1940 273 
Q 2122 425 2216 781 
Q 2359 1319 2359 2297 
Q 2359 3022 2209 3506 
Q 2097 3866 1919 4016 
Q 1791 4119 1609 4119 
Q 1397 4119 1231 3928 
Q 1006 3669 925 3112 
Q 844 2556 844 2016 
z
" transform="scale(0.015625)"/>
       </defs>
       <use xlink:href="#TimesNewRomanPSMT-30"/>
      </g>
     </g>
    </g>
    <g id="xtick_2">
     <g id="line2d_2">
      <g>
       <use xlink:href="#m0256f48eaf" x="137.7" y="320.4" style="stroke: #000000"/>
      </g>
     </g>
     <g id="text_2">
      <!-- 1000 -->
      <g transform="translate(123.7 336.62125) scale(0.14 -0.14)">
       <defs>
        <path id="TimesNewRomanPSMT-31" d="M 750 3822 
L 1781 4325 
L 1884 4325 
L 1884 747 
Q 1884 391 1914 303 
Q 1944 216 2037 169 
Q 2131 122 2419 116 
L 2419 0 
L 825 0 
L 825 116 
Q 1125 122 1212 167 
Q 1300 213 1334 289 
Q 1369 366 1369 747 
L 1369 3034 
Q 1369 3497 1338 3628 
Q 1316 3728 1258 3775 
Q 1200 3822 1119 3822 
Q 1003 3822 797 3725 
L 750 3822 
z
" transform="scale(0.015625)"/>
       </defs>
       <use xlink:href="#TimesNewRomanPSMT-31"/>
       <use xlink:href="#TimesNewRomanPSMT-30" x="50"/>
       <use xlink:href="#TimesNewRomanPSMT-30" x="100"/>
       <use xlink:href="#TimesNewRomanPSMT-30" x="150"/>
      </g>
     </g>
    </g>
    <g id="xtick_3">
     <g id="line2d_3">
      <g>
       <use xlink:href="#m0256f48eaf" x="221.4" y="320.4" style="stroke: #000000"/>
      </g>
     </g>
     <g id="text_3">
      <!-- 2000 -->
      <g transform="translate(207.4 336.62125) scale(0.14 -0.14)">
       <defs>
        <path id="TimesNewRomanPSMT-32" d="M 2934 816 
L 2638 0 
L 138 0 
L 138 116 
Q 1241 1122 1691 1759 
Q 2141 2397 2141 2925 
Q 2141 3328 1894 3587 
Q 1647 3847 1303 3847 
Q 991 3847 742 3664 
Q 494 3481 375 3128 
L 259 3128 
Q 338 3706 661 4015 
Q 984 4325 1469 4325 
Q 1984 4325 2329 3994 
Q 2675 3663 2675 3213 
Q 2675 2891 2525 2569 
Q 2294 2063 1775 1497 
Q 997 647 803 472 
L 1909 472 
Q 2247 472 2383 497 
Q 2519 522 2628 598 
Q 2738 675 2819 816 
L 2934 816 
z
" transform="scale(0.015625)"/>
       </defs>
       <use xlink:href="#TimesNewRomanPSMT-32"/>
       <use xlink:href="#TimesNewRomanPSMT-30" x="50"/>
       <use xlink:href="#TimesNewRomanPSMT-30" x="100"/>
       <use xlink:href="#TimesNewRomanPSMT-30" x="150"/>
      </g>
     </g>
    </g>
    <g id="xtick_4">
     <g id="line2d_4">
      <g>
       <use xlink:href="#m0256f48eaf" x="305.1" y="320.4" style="stroke: #000000"/>
      </g>
     </g>
     <g id="text_4">
      <!-- 3000 -->
      <g transform="translate(291.1 336.62125) scale(0.14 -0.14)">
       <defs>
        <path id="TimesNewRomanPSMT-33" d="M 325 3431 
Q 506 3859 782 4092 
Q 1059 4325 1472 4325 
Q 1981 4325 2253 3994 
Q 2459 3747 2459 3466 
Q 2459 3003 1878 2509 
Q 2269 2356 2469 2072 
Q 2669 1788 2669 1403 
Q 2669 853 2319 450 
Q 1863 -75 997 -75 
Q 569 -75 414 31 
Q 259 138 259 259 
Q 259 350 332 419 
Q 406 488 509 488 
Q 588 488 669 463 
Q 722 447 909 348 
Q 1097 250 1169 231 
Q 1284 197 1416 197 
Q 1734 197 1970 444 
Q 2206 691 2206 1028 
Q 2206 1275 2097 1509 
Q 2016 1684 1919 1775 
Q 1784 1900 1550 2001 
Q 1316 2103 1072 2103 
L 972 2103 
L 972 2197 
Q 1219 2228 1467 2375 
Q 1716 2522 1828 2728 
Q 1941 2934 1941 3181 
Q 1941 3503 1739 3701 
Q 1538 3900 1238 3900 
Q 753 3900 428 3381 
L 325 3431 
z
" transform="scale(0.015625)"/>
       </defs>
       <use xlink:href="#TimesNewRomanPSMT-33"/>
       <use xlink:href="#TimesNewRomanPSMT-30" x="50"/>
       <use xlink:href="#TimesNewRomanPSMT-30" x="100"/>
       <use xlink:href="#TimesNewRomanPSMT-30" x="150"/>
      </g>
     </g>
    </g>
    <g id="xtick_5">
     <g id="line2d_5">
      <g>
       <use xlink:href="#m0256f48eaf" x="388.8" y="320.4" style="stroke: #000000"/>
      </g>
     </g>
     <g id="text_5">
      <!-- 4000 -->
      <g transform="translate(374.8 336.62125) scale(0.14 -0.14)">
       <defs>
        <path id="TimesNewRomanPSMT-34" d="M 2978 1563 
L 2978 1119 
L 2409 1119 
L 2409 0 
L 1894 0 
L 1894 1119 
L 100 1119 
L 100 1519 
L 2066 4325 
L 2409 4325 
L 2409 1563 
L 2978 1563 
z
M 1894 1563 
L 1894 3666 
L 406 1563 
L 1894 1563 
z
" transform="scale(0.015625)"/>
       </defs>
       <use xlink:href="#TimesNewRomanPSMT-34"/>
       <use xlink:href="#TimesNewRomanPSMT-30" x="50"/>
       <use xlink:href="#TimesNewRomanPSMT-30" x="100"/>
       <use xlink:href="#TimesNewRomanPSMT-30" x="150"/>
      </g>
     </g>
    </g>
    <g id="text_6">
     <!-- Article length (tokens) -->
     <g transform="translate(148.9775 354.725937) scale(0.16 -0.16)">
      <defs>
       <path id="TimesNewRomanPSMT-41" d="M 2928 1419 
L 1288 1419 
L 1000 750 
Q 894 503 894 381 
Q 894 284 986 211 
Q 1078 138 1384 116 
L 1384 0 
L 50 0 
L 50 116 
Q 316 163 394 238 
Q 553 388 747 847 
L 2238 4334 
L 2347 4334 
L 3822 809 
Q 4000 384 4145 257 
Q 4291 131 4550 116 
L 4550 0 
L 2878 0 
L 2878 116 
Q 3131 128 3220 200 
Q 3309 272 3309 375 
Q 3309 513 3184 809 
L 2928 1419 
z
M 2841 1650 
L 2122 3363 
L 1384 1650 
L 2841 1650 
z
" transform="scale(0.015625)"/>
       <path id="TimesNewRomanPSMT-72" d="M 1038 2947 
L 1038 2303 
Q 1397 2947 1775 2947 
Q 1947 2947 2059 2842 
Q 2172 2738 2172 2600 
Q 2172 2478 2090 2393 
Q 2009 2309 1897 2309 
Q 1788 2309 1652 2417 
Q 1516 2525 1450 2525 
Q 1394 2525 1328 2463 
Q 1188 2334 1038 2041 
L 1038 669 
Q 1038 431 1097 309 
Q 1138 225 1241 169 
Q 1344 113 1538 113 
L 1538 0 
L 72 0 
L 72 113 
Q 291 113 397 181 
Q 475 231 506 341 
Q 522 394 522 644 
L 522 1753 
Q 522 2253 501 2348 
Q 481 2444 426 2487 
Q 372 2531 291 2531 
Q 194 2531 72 2484 
L 41 2597 
L 906 2947 
L 1038 2947 
z
" transform="scale(0.015625)"/>
       <path id="TimesNewRomanPSMT-74" d="M 1031 3803 
L 1031 2863 
L 1700 2863 
L 1700 2644 
L 1031 2644 
L 1031 788 
Q 1031 509 1111 412 
Q 1191 316 1316 316 
Q 1419 316 1516 380 
Q 1613 444 1666 569 
L 1788 569 
Q 1678 263 1478 108 
Q 1278 -47 1066 -47 
Q 922 -47 784 33 
Q 647 113 581 261 
Q 516 409 516 719 
L 516 2644 
L 63 2644 
L 63 2747 
Q 234 2816 414 2980 
Q 594 3144 734 3369 
Q 806 3488 934 3803 
L 1031 3803 
z
" transform="scale(0.015625)"/>
       <path id="TimesNewRomanPSMT-69" d="M 928 4444 
Q 1059 4444 1151 4351 
Q 1244 4259 1244 4128 
Q 1244 3997 1151 3903 
Q 1059 3809 928 3809 
Q 797 3809 703 3903 
Q 609 3997 609 4128 
Q 609 4259 701 4351 
Q 794 4444 928 4444 
z
M 1188 2947 
L 1188 647 
Q 1188 378 1227 289 
Q 1266 200 1342 156 
Q 1419 113 1622 113 
L 1622 0 
L 231 0 
L 231 113 
Q 441 113 512 153 
Q 584 194 626 287 
Q 669 381 669 647 
L 669 1750 
Q 669 2216 641 2353 
Q 619 2453 572 2492 
Q 525 2531 444 2531 
Q 356 2531 231 2484 
L 188 2597 
L 1050 2947 
L 1188 2947 
z
" transform="scale(0.015625)"/>
       <path id="TimesNewRomanPSMT-63" d="M 2631 1088 
Q 2516 522 2178 217 
Q 1841 -88 1431 -88 
Q 944 -88 581 321 
Q 219 731 219 1428 
Q 219 2103 620 2525 
Q 1022 2947 1584 2947 
Q 2006 2947 2278 2723 
Q 2550 2500 2550 2259 
Q 2550 2141 2473 2067 
Q 2397 1994 2259 1994 
Q 2075 1994 1981 2113 
Q 1928 2178 1911 2362 
Q 1894 2547 1784 2644 
Q 1675 2738 1481 2738 
Q 1169 2738 978 2506 
Q 725 2200 725 1697 
Q 725 1184 976 792 
Q 1228 400 1656 400 
Q 1963 400 2206 609 
Q 2378 753 2541 1131 
L 2631 1088 
z
" transform="scale(0.015625)"/>
       <path id="TimesNewRomanPSMT-6c" d="M 1184 4444 
L 1184 647 
Q 1184 378 1223 290 
Q 1263 203 1344 158 
Q 1425 113 1647 113 
L 1647 0 
L 244 0 
L 244 113 
Q 441 113 512 153 
Q 584 194 625 287 
Q 666 381 666 647 
L 666 3247 
Q 666 3731 644 3842 
Q 622 3953 573 3993 
Q 525 4034 450 4034 
Q 369 4034 244 3984 
L 191 4094 
L 1044 4444 
L 1184 4444 
z
" transform="scale(0.015625)"/>
       <path id="TimesNewRomanPSMT-65" d="M 681 1784 
Q 678 1147 991 784 
Q 1303 422 1725 422 
Q 2006 422 2214 576 
Q 2422 731 2563 1106 
L 2659 1044 
Q 2594 616 2278 264 
Q 1963 -88 1488 -88 
Q 972 -88 605 314 
Q 238 716 238 1394 
Q 238 2128 614 2539 
Q 991 2950 1559 2950 
Q 2041 2950 2350 2633 
Q 2659 2316 2659 1784 
L 681 1784 
z
M 681 1966 
L 2006 1966 
Q 1991 2241 1941 2353 
Q 1863 2528 1708 2628 
Q 1553 2728 1384 2728 
Q 1125 2728 920 2526 
Q 716 2325 681 1966 
z
" transform="scale(0.015625)"/>
       <path id="TimesNewRomanPSMT-20" transform="scale(0.015625)"/>
       <path id="TimesNewRomanPSMT-6e" d="M 1034 2341 
Q 1538 2947 1994 2947 
Q 2228 2947 2397 2830 
Q 2566 2713 2666 2444 
Q 2734 2256 2734 1869 
L 2734 647 
Q 2734 375 2778 278 
Q 2813 200 2889 156 
Q 2966 113 3172 113 
L 3172 0 
L 1756 0 
L 1756 113 
L 1816 113 
Q 2016 113 2095 173 
Q 2175 234 2206 353 
Q 2219 400 2219 647 
L 2219 1819 
Q 2219 2209 2117 2386 
Q 2016 2563 1775 2563 
Q 1403 2563 1034 2156 
L 1034 647 
Q 1034 356 1069 288 
Q 1113 197 1189 155 
Q 1266 113 1500 113 
L 1500 0 
L 84 0 
L 84 113 
L 147 113 
Q 366 113 442 223 
Q 519 334 519 647 
L 519 1709 
Q 519 2225 495 2337 
Q 472 2450 423 2490 
Q 375 2531 294 2531 
Q 206 2531 84 2484 
L 38 2597 
L 900 2947 
L 1034 2947 
L 1034 2341 
z
" transform="scale(0.015625)"/>
       <path id="TimesNewRomanPSMT-67" d="M 966 1044 
Q 703 1172 562 1401 
Q 422 1631 422 1909 
Q 422 2334 742 2640 
Q 1063 2947 1563 2947 
Q 1972 2947 2272 2747 
L 2878 2747 
Q 3013 2747 3034 2739 
Q 3056 2731 3066 2713 
Q 3084 2684 3084 2613 
Q 3084 2531 3069 2500 
Q 3059 2484 3036 2475 
Q 3013 2466 2878 2466 
L 2506 2466 
Q 2681 2241 2681 1891 
Q 2681 1491 2375 1206 
Q 2069 922 1553 922 
Q 1341 922 1119 984 
Q 981 866 932 777 
Q 884 688 884 625 
Q 884 572 936 522 
Q 988 472 1138 450 
Q 1225 438 1575 428 
Q 2219 413 2409 384 
Q 2700 344 2873 169 
Q 3047 -6 3047 -263 
Q 3047 -616 2716 -925 
Q 2228 -1381 1444 -1381 
Q 841 -1381 425 -1109 
Q 191 -953 191 -784 
Q 191 -709 225 -634 
Q 278 -519 444 -313 
Q 466 -284 763 25 
Q 600 122 533 198 
Q 466 275 466 372 
Q 466 481 555 628 
Q 644 775 966 1044 
z
M 1509 2797 
Q 1278 2797 1122 2612 
Q 966 2428 966 2047 
Q 966 1553 1178 1281 
Q 1341 1075 1591 1075 
Q 1828 1075 1981 1253 
Q 2134 1431 2134 1813 
Q 2134 2309 1919 2591 
Q 1759 2797 1509 2797 
z
M 934 0 
Q 788 -159 713 -296 
Q 638 -434 638 -550 
Q 638 -700 819 -813 
Q 1131 -1006 1722 -1006 
Q 2284 -1006 2551 -807 
Q 2819 -609 2819 -384 
Q 2819 -222 2659 -153 
Q 2497 -84 2016 -72 
Q 1313 -53 934 0 
z
" transform="scale(0.015625)"/>
       <path id="TimesNewRomanPSMT-68" d="M 1041 4444 
L 1041 2350 
Q 1388 2731 1591 2839 
Q 1794 2947 1997 2947 
Q 2241 2947 2416 2812 
Q 2591 2678 2675 2391 
Q 2734 2191 2734 1659 
L 2734 647 
Q 2734 375 2778 275 
Q 2809 200 2884 156 
Q 2959 113 3159 113 
L 3159 0 
L 1753 0 
L 1753 113 
L 1819 113 
Q 2019 113 2097 173 
Q 2175 234 2206 353 
Q 2216 403 2216 647 
L 2216 1659 
Q 2216 2128 2167 2275 
Q 2119 2422 2012 2495 
Q 1906 2569 1756 2569 
Q 1603 2569 1437 2487 
Q 1272 2406 1041 2159 
L 1041 647 
Q 1041 353 1073 281 
Q 1106 209 1195 161 
Q 1284 113 1503 113 
L 1503 0 
L 84 0 
L 84 113 
Q 275 113 384 172 
Q 447 203 484 290 
Q 522 378 522 647 
L 522 3238 
Q 522 3728 498 3840 
Q 475 3953 426 3993 
Q 378 4034 297 4034 
Q 231 4034 84 3984 
L 41 4094 
L 897 4444 
L 1041 4444 
z
" transform="scale(0.015625)"/>
       <path id="TimesNewRomanPSMT-28" d="M 1988 -1253 
L 1988 -1369 
Q 1516 -1131 1200 -813 
Q 750 -359 506 256 
Q 263 872 263 1534 
Q 263 2503 741 3301 
Q 1219 4100 1988 4444 
L 1988 4313 
Q 1603 4100 1356 3731 
Q 1109 3363 987 2797 
Q 866 2231 866 1616 
Q 866 947 969 400 
Q 1050 -31 1165 -292 
Q 1281 -553 1476 -793 
Q 1672 -1034 1988 -1253 
z
" transform="scale(0.015625)"/>
       <path id="TimesNewRomanPSMT-6f" d="M 1600 2947 
Q 2250 2947 2644 2453 
Q 2978 2031 2978 1484 
Q 2978 1100 2793 706 
Q 2609 313 2286 112 
Q 1963 -88 1566 -88 
Q 919 -88 538 428 
Q 216 863 216 1403 
Q 216 1797 411 2186 
Q 606 2575 925 2761 
Q 1244 2947 1600 2947 
z
M 1503 2744 
Q 1338 2744 1170 2645 
Q 1003 2547 900 2300 
Q 797 2053 797 1666 
Q 797 1041 1045 587 
Q 1294 134 1700 134 
Q 2003 134 2200 384 
Q 2397 634 2397 1244 
Q 2397 2006 2069 2444 
Q 1847 2744 1503 2744 
z
" transform="scale(0.015625)"/>
       <path id="TimesNewRomanPSMT-6b" d="M 1047 4444 
L 1047 1597 
L 1775 2259 
Q 2006 2472 2044 2528 
Q 2069 2566 2069 2603 
Q 2069 2666 2017 2711 
Q 1966 2756 1847 2763 
L 1847 2863 
L 3091 2863 
L 3091 2763 
Q 2834 2756 2664 2684 
Q 2494 2613 2291 2428 
L 1556 1750 
L 2291 822 
Q 2597 438 2703 334 
Q 2853 188 2966 144 
Q 3044 113 3238 113 
L 3238 0 
L 1847 0 
L 1847 113 
Q 1966 116 2008 148 
Q 2050 181 2050 241 
Q 2050 313 1925 472 
L 1047 1594 
L 1047 644 
Q 1047 366 1086 278 
Q 1125 191 1197 153 
Q 1269 116 1509 113 
L 1509 0 
L 53 0 
L 53 113 
Q 272 113 381 166 
Q 447 200 481 272 
Q 528 375 528 628 
L 528 3234 
Q 528 3731 506 3842 
Q 484 3953 434 3995 
Q 384 4038 303 4038 
Q 238 4038 106 3984 
L 53 4094 
L 903 4444 
L 1047 4444 
z
" transform="scale(0.015625)"/>
       <path id="TimesNewRomanPSMT-73" d="M 2050 2947 
L 2050 1972 
L 1947 1972 
Q 1828 2431 1642 2597 
Q 1456 2763 1169 2763 
Q 950 2763 815 2647 
Q 681 2531 681 2391 
Q 681 2216 781 2091 
Q 878 1963 1175 1819 
L 1631 1597 
Q 2266 1288 2266 781 
Q 2266 391 1970 151 
Q 1675 -88 1309 -88 
Q 1047 -88 709 6 
Q 606 38 541 38 
Q 469 38 428 -44 
L 325 -44 
L 325 978 
L 428 978 
Q 516 541 762 319 
Q 1009 97 1316 97 
Q 1531 97 1667 223 
Q 1803 350 1803 528 
Q 1803 744 1651 891 
Q 1500 1038 1047 1263 
Q 594 1488 453 1669 
Q 313 1847 313 2119 
Q 313 2472 555 2709 
Q 797 2947 1181 2947 
Q 1350 2947 1591 2875 
Q 1750 2828 1803 2828 
Q 1853 2828 1881 2850 
Q 1909 2872 1947 2947 
L 2050 2947 
z
" transform="scale(0.015625)"/>
       <path id="TimesNewRomanPSMT-29" d="M 144 4313 
L 144 4444 
Q 619 4209 934 3891 
Q 1381 3434 1625 2820 
Q 1869 2206 1869 1541 
Q 1869 572 1392 -226 
Q 916 -1025 144 -1369 
L 144 -1253 
Q 528 -1038 776 -670 
Q 1025 -303 1145 264 
Q 1266 831 1266 1447 
Q 1266 2113 1163 2663 
Q 1084 3094 967 3353 
Q 850 3613 656 3853 
Q 463 4094 144 4313 
z
" transform="scale(0.015625)"/>
      </defs>
      <use xlink:href="#TimesNewRomanPSMT-41"/>
      <use xlink:href="#TimesNewRomanPSMT-72" x="72.216797"/>
      <use xlink:href="#TimesNewRomanPSMT-74" x="105.517578"/>
      <use xlink:href="#TimesNewRomanPSMT-69" x="133.300781"/>
      <use xlink:href="#TimesNewRomanPSMT-63" x="161.083984"/>
      <use xlink:href="#TimesNewRomanPSMT-6c" x="205.46875"/>
      <use xlink:href="#TimesNewRomanPSMT-65" x="233.251953"/>
      <use xlink:href="#TimesNewRomanPSMT-20" x="277.636719"/>
      <use xlink:href="#TimesNewRomanPSMT-6c" x="302.636719"/>
      <use xlink:href="#TimesNewRomanPSMT-65" x="330.419922"/>
      <use xlink:href="#TimesNewRomanPSMT-6e" x="374.804688"/>
      <use xlink:href="#TimesNewRomanPSMT-67" x="424.804688"/>
      <use xlink:href="#TimesNewRomanPSMT-74" x="474.804688"/>
      <use xlink:href="#TimesNewRomanPSMT-68" x="502.587891"/>
      <use xlink:href="#TimesNewRomanPSMT-20" x="552.587891"/>
      <use xlink:href="#TimesNewRomanPSMT-28" x="577.587891"/>
      <use xlink:href="#TimesNewRomanPSMT-74" x="610.888672"/>
      <use xlink:href="#TimesNewRomanPSMT-6f" x="638.671875"/>
      <use xlink:href="#TimesNewRomanPSMT-6b" x="688.671875"/>
      <use xlink:href="#TimesNewRomanPSMT-65" x="738.671875"/>
      <use xlink:href="#TimesNewRomanPSMT-6e" x="783.056641"/>
      <use xlink:href="#TimesNewRomanPSMT-73" x="833.056641"/>
      <use xlink:href="#TimesNewRomanPSMT-29" x="871.972656"/>
     </g>
    </g>
   </g>
   <g id="matplotlib.axis_2">
    <g id="ytick_1">
     <g id="line2d_6">
      <defs>
       <path id="m188925cfad" d="M 0 0 
L -3 0 
" style="stroke: #000000"/>
      </defs>
      <g>
       <use xlink:href="#m188925cfad" x="54" y="320.4" style="stroke: #000000"/>
      </g>
     </g>
     <g id="text_7">
      <!-- 0 -->
      <g transform="translate(40.5 325.260625) scale(0.14 -0.14)">
       <use xlink:href="#TimesNewRomanPSMT-30"/>
      </g>
     </g>
    </g>
    <g id="ytick_2">
     <g id="line2d_7">
      <g>
       <use xlink:href="#m188925cfad" x="54" y="265.4" style="stroke: #000000"/>
      </g>
     </g>
     <g id="text_8">
      <!-- 5 -->
      <g transform="translate(40.5 270.260625) scale(0.14 -0.14)">
       <defs>
        <path id="TimesNewRomanPSMT-35" d="M 2778 4238 
L 2534 3706 
L 1259 3706 
L 981 3138 
Q 1809 3016 2294 2522 
Q 2709 2097 2709 1522 
Q 2709 1188 2573 903 
Q 2438 619 2231 419 
Q 2025 219 1772 97 
Q 1413 -75 1034 -75 
Q 653 -75 479 54 
Q 306 184 306 341 
Q 306 428 378 495 
Q 450 563 559 563 
Q 641 563 702 538 
Q 763 513 909 409 
Q 1144 247 1384 247 
Q 1750 247 2026 523 
Q 2303 800 2303 1197 
Q 2303 1581 2056 1914 
Q 1809 2247 1375 2428 
Q 1034 2569 447 2591 
L 1259 4238 
L 2778 4238 
z
" transform="scale(0.015625)"/>
       </defs>
       <use xlink:href="#TimesNewRomanPSMT-35"/>
      </g>
     </g>
    </g>
    <g id="ytick_3">
     <g id="line2d_8">
      <g>
       <use xlink:href="#m188925cfad" x="54" y="210.4" style="stroke: #000000"/>
      </g>
     </g>
     <g id="text_9">
      <!-- 10 -->
      <g transform="translate(33.5 215.260625) scale(0.14 -0.14)">
       <use xlink:href="#TimesNewRomanPSMT-31"/>
       <use xlink:href="#TimesNewRomanPSMT-30" x="50"/>
      </g>
     </g>
    </g>
    <g id="ytick_4">
     <g id="line2d_9">
      <g>
       <use xlink:href="#m188925cfad" x="54" y="155.4" style="stroke: #000000"/>
      </g>
     </g>
     <g id="text_10">
      <!-- 15 -->
      <g transform="translate(33.5 160.260625) scale(0.14 -0.14)">
       <use xlink:href="#TimesNewRomanPSMT-31"/>
       <use xlink:href="#TimesNewRomanPSMT-35" x="50"/>
      </g>
     </g>
    </g>
    <g id="ytick_5">
     <g id="line2d_10">
      <g>
       <use xlink:href="#m188925cfad" x="54" y="100.4" style="stroke: #000000"/>
      </g>
     </g>
     <g id="text_11">
      <!-- 20 -->
      <g transform="translate(33.5 105.260625) scale(0.14 -0.14)">
       <use xlink:href="#TimesNewRomanPSMT-32"/>
       <use xlink:href="#TimesNewRomanPSMT-30" x="50"/>
      </g>
     </g>
    </g>
    <g id="ytick_6">
     <g id="line2d_11">
      <g>
       <use xlink:href="#m188925cfad" x="54" y="45.4" style="stroke: #000000"/>
      </g>
     </g>
     <g id="text_12">
      <!-- 25 -->
      <g transform="translate(33.5 50.260625) scale(0.14 -0.14)">
       <use xlink:href="#TimesNewRomanPSMT-32"/>
       <use xlink:href="#TimesNewRomanPSMT-35" x="50"/>
      </g>
     </g>
    </g>
    <g id="text_13">
     <!-- Articles -->
     <g transform="translate(26.0775 207.125) rotate(-90) scale(0.16 -0.16)">
      <use xlink:href="#TimesNewRomanPSMT-41"/>
      <use xlink:href="#TimesNewRomanPSMT-72" x="72.216797"/>
      <use xlink:href="#TimesNewRomanPSMT-74" x="105.517578"/>
      <use xlink:href="#TimesNewRomanPSMT-69" x="133.300781"/>
      <use xlink:href="#TimesNewRomanPSMT-63" x="161.083984"/>
      <use xlink:href="#TimesNewRomanPSMT-6c" x="205.46875"/>
      <use xlink:href="#TimesNewRomanPSMT-65" x="233.251953"/>
      <use xlink:href="#TimesNewRomanPSMT-73" x="277.636719"/>
     </g>
    </g>
   </g>
   <g id="line2d_12">
    <path d="M 96.8544 320.4 
L 96.8544 43.2 
" clip-path="url(#pe2aed2831e)" style="fill: none; stroke-dasharray: 3.7,1.6; stroke-dashoffset: 0; stroke: #000000"/>
   </g>
   <g id="patch_203">
    <path d="M 54 320.4 
L 54 43.2 
" style="fill: none; stroke: #000000; stroke-width: 0.8; stroke-linejoin: miter; stroke-linecap: square"/>
   </g>
   <g id="patch_204">
    <path d="M 54 320.4 
L 388.8 320.4 
" style="fill: none; stroke: #000000; stroke-width: 0.8; stroke-linejoin: miter; stroke-linecap: square"/>
   </g>
  </g>
 </g>
 <defs>
  <clipPath id="pe2aed2831e">
   <rect x="54" y="43.2" width="334.8" height="277.2"/>
  </clipPath>
 </defs>
</svg>
